<svg xmlns="http://www.w3.org/2000/svg" xmlns:xlink="http://www.w3.org/1999/xlink" width="900" zoomAndPan="magnify" viewBox="0 0 675 576" height="768" preserveAspectRatio="xMidYMid meet" version="1.0"><defs><clipPath id="5d9c3aaded"><path d="M 0 19 L 675 19 L 675 561.816406 L 0 561.816406 Z M 0 19 " clip-rule="nonzero"/></clipPath></defs><path fill="#ffffff" d="M 257.144531 174.570312 C 257.144531 140.941406 284.390625 113.6875 318.011719 113.6875 C 351.628906 113.6875 378.878906 140.941406 378.878906 174.570312 C 378.878906 208.199219 351.628906 235.453125 318.011719 235.453125 C 284.390625 235.453125 257.144531 208.199219 257.144531 174.570312 Z M 338.527344 116.203125 C 352.203125 118.933594 363.605469 131.710938 363.605469 131.710938 C 363.605469 131.710938 364.0625 123.050781 357.21875 109.8125 C 350.371094 96.578125 346.730469 84.730469 340.800781 85.1875 C 334.871094 85.648438 332.597656 91.121094 332.597656 91.121094 C 332.597656 91.121094 333.054688 88.832031 326.667969 87.933594 C 320.28125 87.019531 317.097656 90.664062 317.097656 90.664062 C 317.097656 90.664062 311.167969 84.273438 305.695312 92.949219 C 300.222656 101.628906 302.050781 113.015625 302.050781 113.015625 C 308.4375 110.269531 324.839844 113.472656 338.527344 116.203125 Z M 653.699219 526.144531 C 657.046875 542.566406 649.746094 552.890625 637.28125 550.457031 C 629.03125 548.855469 587.78125 544.183594 558.003906 540.328125 L 563.132812 559.886719 L 456.457031 557.761719 L 465.574219 470.816406 L 461.328125 477.203125 C 461.328125 477.203125 436.707031 510.949219 424.847656 514.589844 C 412.988281 518.234375 403.578125 509.425781 401.4375 503.039062 C 399.296875 496.648438 378.03125 416.402344 378.03125 416.402344 C 378.03125 416.402344 348.542969 405.765625 334.574219 402.417969 C 320.609375 399.066406 312.6875 385.699219 312.6875 385.699219 C 312.375 380.535156 320.886719 379.015625 328.484375 379.015625 C 336.078125 379.015625 344.589844 382.660156 344.589844 382.660156 C 344.589844 382.660156 341.550781 373.234375 342.761719 368.675781 C 343.96875 364.113281 346.714844 365.945312 351.269531 373.234375 C 355.828125 380.519531 370.417969 386.304688 383.175781 388.738281 C 395.933594 391.175781 402.011719 399.6875 405.066406 405.765625 C 408.105469 411.84375 424.210938 452.582031 424.210938 452.582031 L 432.574219 443.363281 C 432.410156 441.78125 432.429688 440.734375 432.429688 440.734375 C 432.429688 440.734375 446.410156 418.839844 461.605469 402.433594 C 476.796875 386.011719 500.351562 389.359375 500.351562 389.359375 C 514.027344 391.648438 519.957031 388.902344 520.265625 381.453125 C 517.832031 384.949219 502.183594 382.515625 492.609375 379.328125 C 483.035156 376.140625 475.292969 376.140625 479.394531 367.464844 C 483.492188 358.804688 480.765625 337.367188 481.679688 315.945312 C 482.039062 307.578125 485.390625 300.40625 489.324219 294.75 C 486.910156 297.675781 484.898438 300.796875 483.511719 304.097656 C 477.121094 319.148438 480.324219 356.074219 480.324219 356.074219 C 474.394531 359.71875 449.777344 353.347656 449.777344 353.347656 C 449.777344 353.347656 447.488281 317.773438 446.132812 300.453125 C 444.761719 283.132812 434.730469 229.324219 434.730469 229.324219 C 434.730469 229.324219 406.011719 257.136719 398.710938 264.898438 C 391.410156 272.644531 377.964844 279.488281 377.964844 279.488281 C 377.734375 285.421875 363.148438 296.597656 352.886719 302.054688 C 342.628906 307.511719 313.226562 313.917969 313.226562 313.917969 C 313.226562 313.917969 295.222656 350.175781 294.078125 353.132812 C 292.933594 356.09375 279.035156 399.425781 255.558594 405.796875 C 232.117188 412.171875 197.535156 360.339844 197.4375 360.210938 C 196.976562 361.355469 196.75 362.023438 196.75 362.023438 L 190.363281 354.277344 C 190.363281 354.277344 187.175781 359.753906 178.0625 368.414062 C 168.945312 377.074219 166.203125 374.800781 164.386719 372.054688 C 163.832031 371.238281 163.210938 370.878906 162.429688 370.976562 C 165.792969 372.203125 164.699219 380.257812 164.699219 380.257812 C 164.699219 380.257812 168.652344 379.949219 171.378906 384.816406 C 174.109375 389.6875 167.132812 400.617188 165.304688 404.277344 C 163.472656 407.921875 160.746094 413.707031 149.34375 414.917969 C 137.941406 416.125 95.089844 417.039062 70.472656 413.707031 C 45.855469 410.359375 16.988281 412.1875 20.027344 386.648438 C 23.066406 361.109375 52.242188 304.113281 52.242188 304.113281 C 52.242188 304.113281 60.898438 284.046875 75.03125 270.371094 C 89.160156 256.695312 128.824219 263.066406 128.824219 263.066406 C 129.707031 269.847656 132.058594 274.308594 135.929688 277.660156 C 130.851562 271.058594 128.824219 263.066406 128.824219 263.066406 C 128.824219 263.066406 135.210938 261.464844 140.457031 257.59375 C 145.699219 253.722656 147.070312 237.527344 147.070312 231.367188 C 147.070312 225.207031 138.871094 215.175781 134.542969 209.929688 C 130.214844 204.683594 135.230469 200.125 135.230469 200.125 C 138.871094 196.9375 140.242188 199.667969 149.128906 200.8125 C 158.015625 201.957031 165.320312 200.125 176.933594 196.253906 C 188.566406 192.378906 197.910156 177.558594 197.910156 177.558594 C 197.910156 177.558594 197.910156 177.558594 200.867188 184.636719 C 203.824219 191.710938 204.964844 204.015625 204.964844 208.117188 C 204.964844 212.21875 207.253906 217.003906 208.378906 220.421875 C 209.523438 223.835938 209.066406 224.292969 206.550781 226.351562 C 204.050781 228.410156 202.679688 229.765625 194.691406 238.882812 C 186.71875 248.003906 168.929688 246.402344 168.929688 246.402344 C 168.929688 246.402344 164.828125 259.390625 165.890625 264.71875 C 166.953125 270.046875 177.359375 271.484375 177.359375 271.484375 C 205.847656 275.8125 209.050781 282.203125 219.523438 291.320312 C 230.007812 300.4375 240.039062 321.417969 240.039062 321.417969 C 239.714844 321.484375 239.417969 321.566406 239.09375 321.628906 L 253.941406 342.839844 C 253.941406 342.839844 284.261719 298.148438 287.902344 293.820312 C 291.007812 290.144531 300.203125 286.304688 310.578125 285.226562 C 295.828125 285.535156 288.050781 281.433594 288.050781 281.433594 C 290.777344 274.128906 307.800781 265.925781 307.800781 265.925781 L 312.964844 250.125 L 320.871094 249.523438 L 325.117188 266.546875 C 327.550781 265.945312 339.394531 272.316406 339.394531 272.316406 C 339.394531 272.316406 338.789062 275.667969 336.355469 280.519531 C 333.921875 285.371094 334.527344 283.246094 316.148438 284.929688 C 328.679688 284.929688 330.507812 286.988281 334.152344 284.246094 C 337.792969 281.515625 342.351562 261.679688 348.96875 262.804688 L 341.664062 246.15625 C 353.527344 242.054688 363.097656 231.5625 363.097656 231.5625 L 355.796875 222.902344 C 369.46875 213.328125 379.5 189.160156 379.5 189.160156 L 384.515625 207.855469 C 384.515625 207.855469 412.777344 170.46875 425.09375 159.0625 C 437.394531 147.65625 462.46875 150.402344 462.46875 150.402344 C 472.042969 149.945312 473.871094 144.929688 473.414062 137.640625 C 472.957031 130.335938 466.113281 127.152344 466.113281 127.152344 C 424.621094 133.082031 426.449219 66.496094 426.449219 66.496094 C 441.804688 71.367188 491.644531 65.289062 491.644531 65.289062 L 497.722656 86.871094 C 497.722656 86.871094 508.960938 81.707031 511.394531 87.476562 C 513.828125 93.246094 502.886719 100.238281 502.886719 100.238281 C 502.886719 100.238281 509.566406 130.941406 512.3125 138.246094 C 515.054688 145.550781 524.007812 145.84375 524.007812 145.84375 C 524.007812 145.84375 555.011719 144.929688 569.144531 149.488281 C 583.273438 154.046875 596.046875 177.296875 596.046875 177.296875 L 595.625 178.394531 C 611.371094 200.011719 645.953125 247.5625 651.214844 255.273438 C 658.058594 265.304688 658.515625 266.222656 651.214844 282.1875 C 643.914062 298.148438 609.722656 332.351562 600.605469 340.09375 C 593.566406 346.074219 588.4375 353.691406 585.203125 353.917969 C 588.109375 359.769531 590.574219 363.820312 590.574219 363.820312 C 590.574219 363.820312 574.160156 377.496094 564.128906 382.054688 C 554.097656 386.617188 553.640625 386.15625 549.996094 377.957031 C 549.605469 377.089844 549.296875 376.058594 549.050781 374.964844 C 549.375 377.5625 549.816406 380.128906 550.453125 382.515625 C 554.097656 396.191406 568.847656 390.570312 568.847656 390.570312 C 568.847656 390.570312 587.082031 393.003906 595.296875 402.121094 C 603.496094 411.238281 630.257812 471.4375 630.257812 471.4375 C 630.257812 471.4375 650.347656 509.738281 653.699219 526.144531 Z M 139.34375 367.792969 C 140.324219 368.214844 141.242188 368.886719 142.1875 369.898438 C 142.515625 370.242188 142.726562 370.585938 142.875 370.894531 C 144.050781 368.902344 142.660156 367.890625 139.34375 367.792969 Z M 121.523438 372.023438 C 124.921875 370.734375 127.648438 369.65625 129.9375 368.855469 C 129.28125 368.984375 128.597656 369.132812 127.894531 369.277344 C 124.691406 369.996094 122.175781 371.207031 120.035156 372.613281 C 120.511719 372.414062 121 372.21875 121.523438 372.023438 Z M 128.808594 390.257812 C 130.621094 389.851562 132.648438 389.554688 134.707031 389.195312 C 134.085938 389.246094 133.480469 389.296875 132.910156 389.34375 C 126.523438 389.800781 127.4375 390.714844 129.722656 384.328125 C 131.0625 380.570312 133.203125 378.855469 135.75 377.074219 C 133.792969 378.085938 131.996094 379.195312 131.242188 380.535156 C 128.808594 384.785156 123.335938 391.484375 128.808594 390.257812 Z M 177 272.234375 C 175.628906 274.929688 169.8125 284.113281 153.882812 286.058594 C 167.132812 290.273438 175.25 275.765625 177 272.234375 Z M 197.453125 360.113281 C 197.664062 359.71875 202.320312 351.222656 208.363281 341.566406 C 202.253906 349.195312 198.824219 356.730469 197.453125 360.113281 Z M 363.457031 270.664062 C 358.261719 271.105469 353.117188 273.066406 353.117188 273.066406 C 353.363281 271.710938 353.167969 270.355469 352.773438 269.082031 C 352.742188 272.59375 351.53125 276.269531 351.53125 276.269531 C 351.53125 276.269531 352.398438 274.113281 363.457031 270.664062 Z M 446.230469 465.292969 C 445.53125 463.167969 445.171875 461.289062 445.023438 460.226562 C 445.21875 462.105469 445.628906 463.789062 446.230469 465.292969 Z M 533.089844 407.875 C 550.257812 407.660156 559.929688 401.011719 564.78125 396.011719 C 560.273438 400.210938 551.125 405.636719 533.089844 407.875 Z M 562.527344 341.207031 C 562.757812 341.910156 562.871094 342.726562 562.820312 343.738281 C 562.9375 342.710938 562.820312 341.890625 562.527344 341.207031 Z M 514.828125 277.105469 C 558.722656 267.332031 574.355469 313.035156 576.035156 327.332031 C 576.59375 332.054688 578.160156 337.300781 580.089844 342.285156 C 576.886719 329.3125 572.851562 309.082031 572.851562 309.082031 C 588.355469 299.964844 599.300781 269.867188 599.300781 269.867188 L 573.359375 236.5625 C 573.699219 243.835938 576.054688 293.96875 576.054688 299.046875 C 576.054688 304.523438 572.867188 309.082031 572.867188 309.082031 C 562.378906 282.625 540.507812 271.695312 524.546875 274.425781 C 521.359375 274.980469 518.09375 275.894531 514.828125 277.105469 Z M 493.066406 341.011719 C 493.394531 345.453125 494.976562 349.097656 497.167969 352.089844 C 495.796875 349.050781 494.535156 345.40625 493.066406 341.011719 Z M 596.847656 509.117188 L 586.820312 491.175781 C 586.820312 491.175781 582.261719 483.578125 580.136719 479.019531 C 578.011719 474.460938 576.789062 475.667969 576.789062 475.667969 L 560.371094 504.132812 Z M 588.191406 491.242188 C 588.238281 491.242188 588.273438 491.242188 588.320312 491.242188 C 588.273438 491.242188 588.238281 491.242188 588.191406 491.242188 Z M 587.257812 491.207031 C 587.375 491.207031 587.519531 491.226562 587.683594 491.226562 C 587.539062 491.226562 587.390625 491.226562 587.257812 491.207031 Z M 586.882812 491.191406 C 586.933594 491.191406 587.03125 491.207031 587.210938 491.207031 C 587.0625 491.207031 586.949219 491.191406 586.882812 491.191406 Z M 623.492188 478.578125 C 616.46875 481.796875 607.5 479.328125 607.5 479.328125 C 607.5 479.328125 616.15625 482.5 623.492188 478.578125 Z M 418.148438 543.171875 L 371.347656 542.253906 C 371.347656 542.253906 379.253906 539.820312 376.214844 528.269531 C 373.175781 516.714844 354.03125 453.183594 354.03125 453.183594 C 354.03125 453.183594 351.910156 446.5 344.605469 446.5 C 337.304688 446.5 217.5625 444.980469 217.5625 444.980469 C 217.5625 444.980469 202.664062 448.9375 203.578125 460.179688 C 204.492188 471.421875 222.722656 541.339844 228.195312 543.171875 C 233.667969 545 241.574219 545.605469 241.574219 545.605469 C 241.574219 545.605469 241.265625 555.636719 246.132812 557.46875 C 251 559.296875 421.5 558.675781 421.5 558.675781 C 421.5 558.675781 430.320312 553.511719 429.699219 548.039062 C 429.09375 542.566406 418.148438 543.171875 418.148438 543.171875 Z M 418.148438 543.171875 " fill-opacity="1" fill-rule="evenodd"/><path fill="#000000" d="M 124.25 182.332031 C 126.683594 175.335938 135.488281 145.84375 173.175781 148.589844 C 210.863281 151.316406 219.066406 170.777344 224.539062 186.285156 C 230.007812 201.792969 236.085938 267.445312 238.519531 280.226562 C 240.953125 292.988281 248.859375 302.414062 251.898438 313.050781 C 254.9375 323.691406 247.03125 333.722656 247.03125 333.722656 C 247.03125 333.722656 240.351562 323.085938 234.878906 313.050781 C 229.40625 303.019531 216.941406 286.597656 206.617188 279.605469 C 196.277344 272.609375 169.238281 268.65625 165.890625 264.703125 C 162.542969 260.746094 169.238281 244.945312 169.238281 244.945312 C 169.238281 244.945312 173.488281 245.863281 185.035156 243.117188 C 196.585938 240.386719 202.664062 229.441406 202.664062 229.441406 C 202.664062 229.441406 210.570312 223.964844 209.964844 222.136719 C 209.359375 220.304688 206.011719 214.226562 206.011719 214.226562 C 207.222656 204.503906 198.414062 177.136719 198.414062 177.136719 C 198.414062 177.136719 198.414062 177.136719 190.507812 185.648438 C 182.601562 194.160156 169.535156 197.199219 157.984375 200.550781 C 146.433594 203.898438 143.398438 195.386719 137.320312 199.03125 C 131.242188 202.675781 133.074219 206.628906 139.441406 215.746094 C 147.464844 227.21875 147.039062 226.695312 146.433594 239.457031 C 145.832031 252.21875 137.007812 261.957031 130.636719 262.871094 C 124.25 263.785156 100.859375 261.664062 100.859375 261.664062 L 104.5 246.761719 C 104.5 246.777344 121.816406 189.308594 124.25 182.332031 Z M 42.195312 409.867188 C 42.195312 409.867188 13.019531 512.007812 24.878906 557.613281 L 90.992188 557.613281 C 90.992188 557.613281 94.175781 501.078125 99.191406 492.402344 C 99.191406 492.402344 113.320312 553.054688 124.265625 559.429688 L 196.292969 559.429688 C 196.292969 559.429688 185.804688 534.804688 178.519531 518.382812 C 171.214844 501.960938 157.542969 470.503906 154.359375 455 C 151.171875 439.492188 148.429688 426.730469 149.34375 414.867188 C 149.328125 414.882812 87.332031 420.816406 42.195312 409.867188 Z M 491.695312 65.289062 L 497.773438 86.871094 C 497.773438 86.871094 506.28125 81.398438 509.925781 85.042969 C 513.570312 88.6875 509.011719 97.511719 502.933594 100.238281 L 506.886719 114.226562 C 506.886719 114.226562 526.539062 104.339844 521.164062 75.925781 C 516.917969 53.425781 513.863281 54.648438 513.863281 54.648438 Z M 449.761719 353.332031 L 453.402344 412.464844 C 453.402344 412.464844 466.78125 391.191406 482.578125 389.359375 C 498.375 387.53125 514.792969 391.796875 519.058594 387.53125 C 523.320312 383.265625 520.265625 381.453125 520.265625 381.453125 C 520.265625 381.453125 500.207031 386.925781 477.710938 372.335938 L 480.292969 356.074219 Z M 435.777344 557.15625 L 456.441406 557.761719 L 465.558594 470.816406 L 446.101562 498.167969 Z M 554.308594 382.660156 C 554.308594 382.660156 554.308594 389.964844 568.898438 390.570312 C 583.484375 391.175781 585.921875 396.648438 585.921875 396.648438 L 578.011719 375.375 Z M 596.847656 509.117188 L 576.789062 475.667969 L 560.371094 503.023438 Z M 557.953125 540.734375 L 565.253906 559.574219 L 614.492188 558.367188 L 610.246094 547.417969 Z M 557.953125 540.734375 " fill-opacity="1" fill-rule="evenodd"/><path fill="#f7ce4d" d="M 502.640625 27.589844 C 509.027344 31.839844 513.878906 54.648438 513.878906 54.648438 C 478.921875 76.546875 426.496094 66.511719 426.496094 66.511719 C 426.496094 66.511719 426.351562 59.207031 426.957031 48.882812 C 427.558594 38.539062 430.910156 35.5 430.910156 35.5 C 451.28125 14.519531 496.253906 23.324219 502.640625 27.589844 Z M 89.308594 380.226562 C 99.941406 383.574219 106.019531 382.957031 108.453125 382.054688 C 110.886719 381.140625 123.351562 371.714844 127.910156 369.292969 C 132.46875 366.859375 141.289062 363.820312 142.1875 369.898438 C 143.101562 375.976562 135.195312 377.203125 131.242188 380.535156 C 127.289062 383.886719 125.769531 388.738281 128.808594 390.257812 C 131.847656 391.777344 145.519531 387.53125 148.558594 384.785156 C 151.597656 382.054688 159.503906 371.714844 159.503906 371.714844 L 174.402344 339.800781 L 148.871094 325.8125 C 148.871094 325.8125 154.636719 314.261719 143.101562 308.789062 C 131.554688 303.3125 122.128906 313.035156 122.128906 313.035156 L 99.941406 304.832031 L 62.859375 371.714844 C 62.859375 371.714844 78.671875 376.875 89.308594 380.226562 Z M 307.980469 114.832031 C 300.679688 115.746094 285.421875 122.347656 276.519531 128.277344 C 267.632812 134.210938 259.644531 153.359375 256.230469 165.664062 C 252.816406 177.96875 259.871094 192.117188 261.472656 196.21875 C 263.074219 200.320312 267.402344 197.820312 270.589844 194.847656 C 273.773438 191.890625 271.730469 185.957031 275.601562 185.5 C 279.476562 185.042969 292.707031 180.941406 299.535156 177.296875 C 306.378906 173.65625 308.195312 167.265625 308.878906 160.648438 C 309.566406 154.03125 303.179688 147.199219 304.320312 140.355469 C 305.464844 133.507812 315.039062 133.277344 319.367188 126.449219 C 323.695312 119.617188 317.996094 113.671875 317.996094 113.671875 C 317.996094 113.671875 315.265625 113.929688 307.980469 114.832031 Z M 323.253906 175.027344 C 323.253906 175.027344 317.78125 181.1875 320.753906 187.332031 C 323.730469 193.476562 326.6875 195.304688 325.3125 200.09375 C 323.941406 204.878906 320.070312 211.726562 326.457031 214.226562 C 332.84375 216.726562 340.359375 207.609375 342.875 201.238281 C 345.390625 194.863281 345.375 185.957031 347.433594 180.941406 C 349.492188 175.925781 351.53125 174.097656 346.976562 171.824219 C 342.402344 169.554688 329.167969 164.996094 323.253906 175.027344 Z M 355.617188 127.378906 C 355.617188 127.378906 352.660156 139.242188 357.675781 145.15625 C 362.691406 151.074219 366.105469 153.589844 367.019531 159.75 C 367.933594 165.910156 365.1875 172.511719 367.246094 177.527344 C 369.304688 182.542969 372.71875 186.1875 377.050781 180.941406 C 381.378906 175.695312 381.148438 173.636719 379.777344 165.894531 C 378.40625 158.148438 376.363281 147.199219 372.703125 143.328125 C 369.0625 139.453125 355.617188 127.378906 355.617188 127.378906 Z M 454.316406 206.039062 L 455.234375 223.671875 L 483.492188 219.421875 L 481.664062 202.398438 Z M 542.449219 322.171875 L 555.828125 312.136719 L 549.296875 305.601562 L 537.289062 317.007812 Z M 500.957031 468.003906 L 499.667969 460.015625 L 488.117188 462.222656 L 489.683594 472.808594 Z M 509.515625 521.160156 L 496.90625 521.519531 L 499.699219 540.359375 L 506.691406 549.183594 L 512.769531 541.273438 Z M 509.515625 521.160156 " fill-opacity="1" fill-rule="evenodd"/><g clip-path="url(#5d9c3aaded)"><path fill="#000000" d="M 175.578125 226.269531 C 175.171875 225.5 175.464844 224.554688 176.230469 224.160156 C 176.851562 223.835938 177.585938 223.964844 178.0625 224.421875 L 178.226562 224.585938 C 179.058594 225.402344 180.121094 226.320312 181.117188 227.070312 C 182.144531 227.839844 183.238281 228.476562 184.367188 229 C 185.496094 229.523438 186.6875 229.914062 187.929688 230.125 C 189.167969 230.402344 190.460938 230.4375 191.816406 230.484375 L 191.964844 230.484375 C 192.714844 230.519531 193.304688 231.15625 193.269531 231.90625 C 193.253906 232.511719 192.828125 233.003906 192.289062 233.164062 C 190.789062 233.605469 189.167969 233.917969 187.535156 233.785156 C 185.902344 233.738281 184.269531 233.34375 182.75 232.707031 C 181.230469 232.085938 179.824219 231.1875 178.617188 230.125 C 177.375 229.015625 176.394531 227.839844 175.578125 226.269531 Z M 197.828125 194.847656 C 196.683594 193.980469 195.246094 193.425781 193.792969 193.230469 C 192.339844 193.019531 190.867188 193.148438 189.546875 193.574219 C 188.207031 194.015625 187.03125 194.652344 185.984375 195.664062 C 185.773438 195.878906 185.640625 196.203125 185.707031 196.53125 C 185.789062 197.070312 186.292969 197.429688 186.832031 197.347656 L 187.011719 197.316406 C 188.058594 197.152344 189.1875 196.972656 190.214844 196.9375 C 191.246094 196.90625 192.226562 196.988281 193.140625 197.199219 C 194.054688 197.429688 194.921875 197.707031 195.785156 198.164062 C 196.683594 198.558594 197.515625 199.160156 198.53125 199.71875 L 198.695312 199.800781 C 199.054688 199.996094 199.511719 200.011719 199.902344 199.816406 C 200.574219 199.488281 200.832031 198.6875 200.523438 198.035156 C 199.886719 196.808594 199.003906 195.679688 197.828125 194.847656 Z M 524.21875 335.75 C 525.558594 336.109375 527.078125 334.785156 527.601562 332.792969 C 528.125 330.796875 527.453125 328.902344 526.113281 328.542969 C 524.773438 328.183594 523.253906 329.507812 522.734375 331.5 C 522.210938 333.492188 522.878906 335.390625 524.21875 335.75 Z M 508.0625 323.625 C 506.722656 323.265625 505.203125 324.589844 504.683594 326.582031 C 504.160156 328.574219 504.828125 330.472656 506.167969 330.832031 C 507.507812 331.191406 509.027344 329.867188 509.550781 327.871094 C 510.074219 325.878906 509.402344 323.984375 508.0625 323.625 Z M 512.851562 335.585938 C 512.523438 335.488281 512.34375 335.355469 512.132812 335.226562 C 511.917969 335.128906 511.625 334.851562 511.3125 334.71875 L 510.039062 334.195312 C 509.972656 334.164062 509.894531 334.148438 509.8125 334.132812 C 509.289062 334.066406 508.796875 334.425781 508.734375 334.949219 C 508.585938 336.011719 508.847656 336.859375 509.453125 337.675781 C 510.054688 338.460938 510.953125 338.933594 511.789062 339.179688 C 512.652344 339.425781 513.453125 339.410156 514.1875 339.3125 C 514.925781 339.210938 515.609375 338.984375 516.230469 338.707031 C 516.6875 338.492188 517.03125 338.035156 517.0625 337.496094 C 517.128906 336.695312 516.523438 336.011719 515.726562 335.945312 L 515.578125 335.929688 C 515.023438 335.878906 514.5 335.863281 514.027344 335.832031 C 513.570312 335.765625 513.144531 335.714844 512.851562 335.585938 Z M 507.082031 348.378906 C 508.257812 349.359375 509.679688 350.113281 511.199219 350.519531 C 512.71875 350.914062 514.320312 351.058594 515.824219 350.765625 C 516.589844 350.699219 517.292969 350.421875 518.011719 350.226562 C 518.699219 349.964844 519.367188 349.636719 520.003906 349.3125 C 520.476562 349.066406 520.757812 348.542969 520.675781 347.988281 C 520.558594 347.300781 519.90625 346.84375 519.21875 346.957031 L 519.089844 346.972656 C 517.847656 347.1875 516.671875 347.398438 515.527344 347.382812 C 514.386719 347.433594 513.289062 347.21875 512.246094 346.925781 C 511.199219 346.613281 510.21875 346.125 509.289062 345.488281 C 508.390625 344.867188 507.425781 344.03125 506.707031 343.296875 L 506.542969 343.117188 C 506.121094 342.691406 505.449219 342.5625 504.878906 342.839844 C 504.175781 343.183594 503.882812 344.050781 504.222656 344.769531 C 504.960938 346.253906 505.875 347.382812 507.082031 348.378906 Z M 505.15625 319 L 505.367188 319.03125 C 506.121094 319.128906 506.9375 319.195312 507.621094 319.34375 C 508.324219 319.488281 508.945312 319.6875 509.515625 319.929688 C 510.074219 320.210938 510.613281 320.46875 511.132812 320.863281 C 511.707031 321.207031 512.210938 321.695312 512.929688 322.152344 L 513.109375 322.269531 C 513.371094 322.449219 513.714844 322.511719 514.042969 322.449219 C 514.710938 322.300781 515.152344 321.648438 515.007812 320.960938 C 514.792969 319.964844 514.320312 319 513.570312 318.199219 C 512.851562 317.398438 511.851562 316.777344 510.792969 316.449219 C 509.730469 316.109375 508.617188 316.027344 507.589844 316.191406 C 506.542969 316.371094 505.613281 316.710938 504.730469 317.367188 C 504.550781 317.511719 504.402344 317.726562 504.371094 317.96875 C 504.304688 318.476562 504.648438 318.933594 505.15625 319 Z M 524.023438 323.902344 L 524.234375 323.933594 C 524.988281 324.03125 525.804688 324.097656 526.488281 324.246094 C 527.191406 324.390625 527.8125 324.589844 528.386719 324.832031 C 528.941406 325.109375 529.480469 325.371094 530.003906 325.765625 C 530.574219 326.109375 531.082031 326.597656 531.800781 327.054688 L 531.980469 327.171875 C 532.242188 327.351562 532.582031 327.414062 532.910156 327.351562 C 533.578125 327.203125 534.019531 326.550781 533.875 325.863281 C 533.660156 324.867188 533.1875 323.902344 532.4375 323.101562 C 531.71875 322.300781 530.722656 321.679688 529.660156 321.351562 C 528.597656 321.011719 527.488281 320.929688 526.457031 321.089844 C 525.410156 321.269531 524.480469 321.613281 523.597656 322.269531 C 523.417969 322.414062 523.273438 322.628906 523.238281 322.871094 C 523.175781 323.394531 523.515625 323.851562 524.023438 323.902344 Z M 675.050781 559.28125 C 675.050781 560.636719 673.953125 561.730469 672.597656 561.730469 L 2.449219 561.730469 C 1.09375 561.730469 0 560.636719 0 559.28125 C 0 557.925781 1.09375 556.832031 2.449219 556.832031 L 20.957031 556.832031 C 13.671875 487.582031 34.566406 426.09375 39.730469 412.285156 C 30.417969 410.683594 24.195312 407.335938 20.828125 402.058594 C 16.042969 394.558594 18.246094 384.835938 20.714844 377.203125 C 24.8125 364.507812 51.425781 294.226562 69.003906 272.445312 C 75.898438 263.902344 87.199219 260.910156 98.523438 260.027344 C 101.378906 249.421875 119.59375 182.445312 128.285156 169.421875 C 133.824219 161.105469 150.683594 135.792969 196.390625 149.894531 C 227.394531 159.457031 231.527344 202.332031 234.566406 233.640625 C 234.878906 236.859375 235.171875 239.945312 235.5 242.886719 L 235.761719 245.324219 C 238.847656 274.082031 240.269531 287.203125 249.761719 303.3125 C 259.855469 320.453125 251.507812 332.039062 250.003906 333.902344 C 251.703125 336.648438 252.996094 338.625 253.910156 339.996094 C 263.679688 325.40625 276.699219 306.125 282.171875 298.835938 C 285.878906 293.902344 289.683594 290.207031 293.835938 287.628906 L 286.105469 287.628906 C 285.289062 287.628906 284.539062 287.21875 284.082031 286.546875 C 283.625 285.878906 283.542969 285.011719 283.835938 284.261719 C 284.082031 283.65625 289.78125 269.929688 305.695312 264.964844 L 310.429688 250.992188 C 271.648438 247.167969 241.265625 214.375 241.265625 174.585938 C 241.265625 142.574219 261.421875 113.636719 291.433594 102.542969 C 292.640625 102.101562 293.996094 102.671875 294.519531 103.851562 L 298.898438 113.734375 C 299.566406 113.523438 300.253906 113.34375 300.925781 113.148438 C 298.441406 109.550781 300.171875 102.835938 302.230469 97.542969 C 306.101562 87.574219 313.683594 86.9375 317.585938 88.066406 C 318.878906 86.726562 320.460938 85.890625 322.242188 85.628906 C 326.75 84.992188 330.964844 88.179688 331.796875 88.867188 C 333.644531 86.742188 335.703125 85.027344 337.808594 84.046875 C 340.75 82.6875 343.722656 82.6875 346.417969 84.0625 C 354.441406 88.148438 357.625 103.246094 357.96875 104.945312 C 357.984375 104.992188 357.96875 105.042969 357.984375 105.074219 L 365.726562 131.90625 C 365.777344 132.054688 365.792969 132.199219 365.808594 132.347656 C 376.117188 144.015625 381.804688 158.964844 381.804688 174.570312 C 381.804688 178.035156 381.507812 181.433594 380.984375 184.75 C 381.003906 184.78125 381.003906 184.796875 381.019531 184.832031 L 385.917969 201.792969 C 393.027344 192.25 414 164.847656 425.679688 157.445312 C 434.257812 152.003906 447.816406 149.914062 458.695312 148.230469 C 464.054688 147.394531 470.71875 146.367188 471.863281 145.371094 C 472.890625 144.453125 471.992188 138.214844 468.367188 130.222656 C 456.6875 131.316406 447.082031 128.34375 439.8125 121.382812 C 422.886719 105.15625 424.503906 72.867188 424.816406 68.554688 C 424.765625 68.328125 424.699219 68.113281 424.71875 67.867188 L 425.582031 43.800781 C 425.535156 37.460938 428.882812 31.5625 434.355469 28.375 C 450.101562 19.222656 477.15625 19.324219 491.875 20.203125 C 498.769531 20.613281 504.828125 25.023438 507.3125 31.464844 L 516.851562 53.621094 C 516.933594 53.800781 516.984375 53.980469 517.015625 54.160156 C 517.046875 54.226562 517.082031 54.273438 517.097656 54.339844 C 517.40625 55.125 524.660156 73.621094 524.253906 85.5 C 523.714844 101.53125 512.457031 113.210938 508.78125 116.613281 L 513.355469 133.277344 C 514.84375 137.542969 516.984375 142.707031 520.085938 143.441406 C 522.195312 143.949219 526.292969 143.621094 531.046875 143.246094 C 546.289062 142.035156 569.324219 140.207031 584.320312 158.410156 C 596.832031 173.605469 612.546875 196.351562 625.191406 214.621094 C 631.757812 224.128906 637.445312 232.332031 640.921875 236.921875 C 641.609375 237.757812 658.925781 259.179688 658.289062 273.933594 C 657.585938 290.242188 598.957031 344.964844 587.144531 355.847656 C 588.699219 358.527344 590.558594 360.714844 592.878906 362.21875 C 593.53125 362.644531 593.957031 363.347656 594.007812 364.132812 C 594.054688 364.914062 593.730469 365.667969 593.125 366.175781 C 592.683594 366.550781 587.960938 370.4375 581.507812 374.71875 L 586.835938 393.902344 C 593.027344 397.039062 599.039062 402.136719 603.742188 411.011719 C 618.511719 438.757812 654.480469 514.183594 656.867188 526.144531 C 657.714844 530.390625 659.007812 540.996094 652.734375 547.761719 C 649.5 551.257812 644.910156 553.023438 639.0625 553.023438 C 637.769531 553.023438 636.429688 552.941406 635.007812 552.761719 C 630.976562 552.269531 623.507812 551.308594 614.296875 550.082031 L 616.550781 556.847656 L 672.597656 556.847656 C 673.953125 556.832031 675.050781 557.925781 675.050781 559.28125 Z M 608.886719 549.347656 C 594.546875 547.433594 577.132812 545.082031 561.839844 542.972656 L 566.300781 556.832031 L 611.386719 556.832031 Z M 652.046875 527.089844 C 650.953125 521.648438 641.480469 500.066406 630.335938 476.222656 C 624.683594 483.039062 615.457031 483.316406 609.527344 482.105469 C 606.113281 490.40625 598.382812 492.695312 592.09375 492.695312 C 591.6875 492.695312 591.277344 492.679688 590.886719 492.664062 L 598.5625 505.734375 L 612.320312 507.289062 C 613.660156 507.433594 614.640625 508.660156 614.476562 510 C 614.328125 511.339844 613.121094 512.320312 611.761719 512.15625 L 537.613281 503.773438 C 535.164062 503.496094 533.121094 501.699219 532.519531 499.3125 C 531.472656 495.082031 528.628906 484.460938 524.792969 477.464844 C 521.035156 470.605469 513.929688 468.316406 503.113281 470.488281 C 496.726562 471.765625 489.210938 476.175781 485.796875 478.332031 C 486.648438 479.101562 488.28125 479.785156 491.464844 479.085938 L 492.460938 478.855469 C 500.207031 477.125 505.320312 475.996094 513.617188 477.222656 C 514.679688 477.382812 515.511719 478.203125 515.675781 479.265625 C 515.839844 480.324219 515.300781 481.371094 514.320312 481.84375 C 503.734375 487.007812 491.464844 493.804688 490.125 495.785156 C 489.554688 496.765625 489.324219 498.707031 489.425781 501.125 L 515.804688 488.070312 C 517.015625 487.464844 518.484375 487.972656 519.089844 489.183594 C 519.695312 490.390625 519.1875 491.863281 517.980469 492.464844 L 490.0625 506.273438 C 490.421875 508.121094 490.941406 510.03125 491.597656 511.878906 L 520.691406 499.964844 C 521.949219 499.460938 523.371094 500.066406 523.894531 501.304688 C 524.398438 502.566406 523.8125 503.988281 522.554688 504.507812 L 493.640625 516.339844 C 495.957031 519.867188 501.105469 521.585938 522.765625 513.773438 C 524.039062 513.316406 525.445312 513.96875 525.902344 515.246094 C 526.359375 516.519531 525.707031 517.925781 524.433594 518.382812 C 522.210938 519.183594 520.167969 519.867188 518.222656 520.507812 C 518.257812 520.636719 518.289062 520.769531 518.289062 520.914062 C 518.84375 528.1875 521.261719 531.960938 525.871094 532.828125 C 532.84375 534.132812 616.535156 545.523438 635.582031 547.84375 C 641.722656 548.59375 646.28125 547.433594 649.109375 544.378906 C 652.421875 540.867188 653.5 534.378906 652.046875 527.089844 Z M 506.480469 523.628906 C 504.160156 524.035156 502.101562 524.265625 500.335938 524.265625 C 500.089844 524.265625 499.847656 524.25 499.601562 524.25 L 502.199219 540.507812 L 506.121094 544.671875 L 509.207031 539.789062 Z M 493.425781 487.449219 C 496.53125 485.554688 500.171875 483.5625 503.585938 481.78125 C 500.484375 482.089844 497.414062 482.777344 493.539062 483.644531 L 492.820312 483.804688 Z M 490.925781 469.804688 C 492.855469 468.855469 494.914062 467.921875 497.019531 467.15625 L 496.15625 461.941406 L 489.929688 463.445312 Z M 577.457031 479.476562 L 564.714844 501.910156 L 592.488281 505.046875 Z M 568.03125 393.511719 C 566.578125 396.289062 557.316406 410.996094 525.035156 411.859375 C 524.285156 411.878906 523.566406 411.894531 522.847656 411.894531 C 510.742188 411.894531 502.605469 409.019531 498.652344 403.347656 C 495.664062 399.050781 495.894531 394.328125 496.449219 391.484375 C 493.835938 391.335938 491.171875 391.257812 488.574219 391.335938 C 476.078125 391.746094 460.835938 403.820312 446.753906 424.476562 C 442.539062 430.652344 438.980469 435.800781 436.039062 439.980469 C 435.890625 440.898438 433.785156 454.964844 446.558594 457.480469 C 447.785156 457.726562 448.632812 458.839844 448.535156 460.082031 C 448.535156 460.113281 448.304688 463.5625 449.742188 467.007812 C 451.441406 471.078125 454.792969 473.429688 459.644531 474.050781 C 461.847656 471.027344 463.351562 468.886719 463.742188 468.347656 L 466.75 440.472656 C 466.898438 439.132812 468.089844 438.152344 469.445312 438.300781 C 470.785156 438.445312 471.765625 439.65625 471.617188 440.996094 L 459.105469 556.847656 L 561.121094 556.847656 L 556.433594 542.238281 C 540.472656 540.03125 527.746094 538.203125 524.953125 537.679688 C 518.175781 536.40625 514.320312 531.128906 513.453125 521.992188 C 512.6875 522.207031 511.96875 522.386719 511.25 522.582031 L 514.15625 539.902344 C 514.253906 540.488281 514.140625 541.109375 513.8125 541.617188 L 508.535156 549.96875 C 508.128906 550.605469 507.457031 551.03125 506.691406 551.09375 C 506.609375 551.09375 506.527344 551.109375 506.460938 551.109375 C 505.792969 551.109375 505.140625 550.832031 504.679688 550.34375 L 498.082031 543.300781 C 497.738281 542.941406 497.527344 542.5 497.445312 542.007812 L 494.457031 523.234375 C 491.300781 521.910156 489.425781 519.363281 487.90625 515.882812 C 484.785156 508.707031 483.132812 498.039062 485.910156 493.300781 C 486.367188 492.5 487.464844 491.519531 488.933594 490.425781 L 487.90625 484.214844 C 486.289062 484.066406 484.867188 483.609375 483.625 482.808594 C 480.863281 481.027344 480.226562 478.316406 480.160156 478.003906 C 479.964844 477.042969 480.355469 476.042969 481.15625 475.488281 C 481.355469 475.359375 483.378906 473.96875 486.335938 472.253906 L 484.703125 461.976562 C 484.507812 460.71875 485.308594 459.507812 486.546875 459.199219 L 497.542969 456.566406 C 498.195312 456.421875 498.898438 456.535156 499.46875 456.910156 C 500.042969 457.285156 500.417969 457.875 500.53125 458.542969 L 501.742188 465.765625 C 501.871094 465.734375 502.003906 465.703125 502.148438 465.667969 C 518.355469 462.417969 525.753906 469.003906 529.085938 475.097656 C 533.039062 482.320312 535.914062 492.628906 537.273438 498.121094 C 537.371094 498.546875 537.730469 498.839844 538.152344 498.886719 L 559.40625 501.289062 C 559.421875 501.257812 559.421875 501.226562 559.441406 501.207031 L 574.566406 474.574219 L 568.882812 464.902344 C 568.195312 463.742188 568.585938 462.238281 569.746094 461.550781 C 570.90625 460.863281 572.410156 461.257812 573.097656 462.417969 L 587.71875 487.320312 C 589.496094 487.695312 602.304688 490.015625 605.539062 478.496094 C 605.71875 477.859375 606.144531 477.320312 606.730469 477.007812 C 607.320312 476.699219 608.007812 476.617188 608.628906 476.828125 C 609.183594 477.007812 622.398438 480.945312 627.855469 471.0625 C 617.675781 449.460938 606.550781 426.84375 599.332031 413.296875 C 591.082031 397.675781 578.40625 395.257812 568.03125 393.511719 Z M 454.203125 556.832031 L 462.699219 478.203125 C 459.007812 483.25 453.796875 490.226562 448.535156 496.699219 C 448.535156 496.714844 448.535156 496.714844 448.535156 496.730469 L 442.621094 534.460938 L 439.941406 551.535156 L 439.109375 556.832031 Z M 434.144531 556.832031 L 435.089844 550.769531 L 437.769531 533.691406 L 442.441406 503.90625 C 438.800781 508.007812 435.433594 511.371094 432.902344 513.105469 C 428.015625 516.4375 422.625 518.203125 417.628906 518.203125 C 415.488281 518.203125 413.429688 517.875 411.519531 517.222656 C 407.253906 515.765625 401.472656 511.910156 398.1875 501.8125 C 392.632812 484.738281 377.867188 426.339844 375.613281 417.433594 C 373.242188 416.222656 366.054688 412.890625 354.425781 410.421875 C 335.832031 406.46875 323.582031 399.050781 317.945312 394.964844 C 312.914062 391.320312 309.664062 388.167969 310.1875 384.539062 C 310.742188 380.78125 315.203125 378.773438 319.023438 377.449219 C 327.945312 374.34375 334.609375 376.941406 342.269531 380.945312 C 340.195312 376.746094 338.332031 371.8125 339.050781 368.707031 C 339.363281 367.367188 340.113281 366.304688 341.207031 365.652344 C 345.601562 363.003906 349.671875 367.105469 353.949219 371.433594 C 356.402344 373.917969 359.195312 376.746094 362.332031 378.753906 C 367.902344 382.335938 373.03125 383.558594 379.53125 385.113281 C 382.359375 385.78125 385.558594 386.550781 389.054688 387.597656 C 401.847656 391.402344 406.648438 403.332031 414.066406 424.082031 C 417.25 433.019531 420.683594 441.828125 423.558594 449.019531 C 426.136719 445.472656 432.558594 436.582031 442.703125 421.699219 C 445.203125 418.019531 447.734375 414.636719 450.28125 411.5 C 449.808594 403.265625 445.691406 330.519531 444.550781 312.871094 C 443.75 300.386719 437.882812 259.683594 434.109375 234.179688 C 425.777344 243.394531 396.882812 274.277344 379.449219 279.113281 C 377.800781 287.824219 361.285156 301.238281 348.117188 305.894531 C 335.507812 310.371094 318.207031 314.882812 313.730469 316.027344 C 311.886719 319.71875 304.859375 334 292.085938 362.351562 C 278.296875 392.972656 269.722656 407.710938 252.535156 407.710938 C 250.757812 407.710938 248.894531 407.546875 246.917969 407.238281 C 229.828125 404.523438 200.097656 369.277344 191.128906 358.199219 C 185.054688 370.046875 172.148438 374.71875 167.476562 376.074219 C 167.460938 376.613281 167.410156 377.136719 167.328125 377.644531 C 168.878906 378.25 170.21875 379.507812 171.152344 380.960938 C 175.332031 383.835938 173.945312 388.429688 171.199219 396.09375 C 167.6875 408.070312 162.363281 413.28125 151.859375 415.980469 C 151.777344 416.859375 151.433594 422.074219 152.496094 439.65625 C 153.671875 459.050781 197.4375 555.769531 197.875 556.75 C 197.894531 556.78125 197.894531 556.796875 197.910156 556.832031 L 241.574219 556.832031 C 239.828125 554.691406 238.78125 551.960938 238.78125 548.988281 L 238.78125 548.039062 L 236.332031 548.039062 C 229.519531 548.039062 223.539062 543.429688 221.808594 536.847656 L 202.304688 462.90625 C 201.113281 458.363281 202.058594 453.625 204.933594 449.902344 C 207.808594 446.175781 212.136719 444.050781 216.84375 444.050781 L 342.351562 444.050781 C 349.050781 444.050781 354.996094 448.542969 356.808594 455 L 377.671875 528.9375 C 378.8125 532.972656 378.226562 537.171875 376.117188 540.71875 L 424.339844 540.71875 C 426.988281 540.71875 429.375 542.074219 430.730469 544.347656 C 432.085938 546.617188 432.148438 549.363281 430.890625 551.699219 L 429.796875 553.710938 C 429.175781 554.851562 428.410156 555.898438 427.542969 556.832031 Z M 372.980469 530.277344 L 352.121094 456.339844 C 350.894531 451.992188 346.894531 448.96875 342.367188 448.96875 L 216.859375 448.96875 C 213.691406 448.96875 210.765625 450.40625 208.839844 452.921875 C 206.910156 455.441406 206.257812 458.625 207.074219 461.683594 L 226.578125 535.621094 C 227.753906 540.066406 231.773438 543.171875 236.363281 543.171875 L 363.230469 543.171875 C 366.429688 543.171875 369.371094 541.699219 371.300781 539.148438 C 373.242188 536.585938 373.847656 533.347656 372.980469 530.277344 Z M 243.714844 549.003906 C 243.714844 553.152344 247.097656 556.535156 251.246094 556.535156 L 416.941406 556.535156 C 420.535156 556.535156 423.835938 554.574219 425.535156 551.40625 L 426.628906 549.378906 C 427.25 548.234375 426.792969 547.238281 426.578125 546.863281 C 426.351562 546.488281 425.699219 545.621094 424.390625 545.621094 L 371.480469 545.621094 C 369.078125 547.191406 366.25 548.054688 363.261719 548.054688 L 243.730469 548.054688 L 243.730469 549.003906 Z M 135.148438 381.515625 C 132.792969 382.695312 131.078125 385.046875 130.195312 386.796875 C 135.210938 386.453125 144.410156 385.277344 147.890625 382.089844 C 149.703125 380.421875 151.238281 378.316406 152.742188 376.253906 C 154 374.523438 155.289062 372.757812 156.695312 371.433594 C 156.726562 371.207031 156.792969 370.976562 156.90625 370.765625 L 171.429688 340.0625 L 147.121094 328.429688 C 145.992188 327.890625 145.453125 326.597656 145.863281 325.421875 C 146.011719 324.980469 149.507812 314.34375 140.898438 310.945312 C 131.832031 307.347656 125.523438 315.09375 125.246094 315.4375 C 124.5625 316.304688 123.367188 316.597656 122.355469 316.171875 L 100.710938 306.792969 L 66.128906 370.242188 C 72.777344 371.972656 88.492188 376.109375 96.070312 378.625 C 104.941406 381.582031 105.808594 381.679688 112.800781 375.945312 C 120.671875 368.117188 130.425781 365.160156 136.730469 365.160156 C 137.988281 365.160156 139.117188 365.273438 140.0625 365.503906 C 143.070312 366.207031 144.179688 367.808594 144.574219 369.015625 C 146.828125 375.667969 139.230469 379.476562 135.148438 381.515625 Z M 474.460938 373.003906 C 474.476562 372.203125 474.722656 371.597656 475.359375 371.175781 C 475.71875 370.570312 477.058594 367.792969 477.726562 359.035156 C 477.613281 359.035156 477.5 359.035156 477.382812 359.035156 C 468.660156 359.035156 456.605469 357.234375 452.0625 356.484375 C 453.191406 376.09375 454.351562 396.4375 454.90625 406.15625 C 466.339844 393.675781 477.90625 386.777344 488.425781 386.4375 C 493.410156 386.273438 498.507812 386.664062 503.015625 387.007812 C 508.878906 387.449219 516.882812 388.070312 517.703125 386.109375 C 517.78125 385.894531 517.863281 385.636719 517.914062 385.339844 C 490.878906 384.769531 476.371094 375.355469 475.75 374.949219 C 475.046875 374.507812 474.445312 373.855469 474.460938 373.003906 Z M 505.367188 357.21875 C 510.757812 360.8125 517.179688 360.914062 517.242188 360.914062 C 518.339844 360.929688 519.300781 361.664062 519.597656 362.710938 C 520.476562 365.894531 524.710938 382.054688 522.226562 388.019531 C 520.054688 393.25 512.375 392.660156 502.640625 391.910156 C 502.246094 391.875 501.824219 391.84375 501.414062 391.8125 C 500.972656 393.640625 500.484375 397.398438 502.722656 400.585938 C 505.875 405.0625 513.570312 407.269531 524.921875 406.957031 C 541.46875 406.519531 551.191406 402.1875 556.417969 398.625 C 559.832031 396.304688 561.808594 394.015625 562.835938 392.578125 C 557.21875 391.453125 552.59375 389.785156 550.242188 385.128906 C 550.226562 385.113281 550.226562 385.097656 550.210938 385.078125 C 550.195312 385.03125 550.160156 384.980469 550.128906 384.933594 C 544.003906 372.1875 545.277344 349.996094 545.324219 349.066406 C 545.375 348.3125 545.765625 347.613281 546.386719 347.1875 C 547.007812 346.761719 547.792969 346.648438 548.511719 346.875 C 550.242188 347.414062 555.371094 348.492188 558.3125 346.859375 C 559.40625 346.253906 560.078125 345.355469 560.4375 344.015625 C 560.714844 342.972656 560.664062 342.21875 560.289062 341.828125 C 559.0625 340.519531 554.621094 340.585938 551.890625 341.125 C 551.125 341.273438 550.339844 341.058594 549.769531 340.535156 C 549.195312 340.011719 548.902344 339.246094 548.984375 338.476562 L 549.753906 330.765625 L 509.15625 301.582031 C 507.246094 304.425781 503.667969 310.078125 500.664062 316.859375 C 498.539062 321.648438 497.019531 326.222656 496.1875 330.4375 C 493.769531 342.53125 496.855469 351.53125 505.367188 357.21875 Z M 543.039062 319.488281 L 552.710938 311.679688 L 548.886719 308.085938 L 538.53125 316.664062 L 542.792969 319.734375 C 542.875 319.652344 542.957031 319.570312 543.039062 319.488281 Z M 456.457031 478.414062 C 446.789062 475.980469 443.863281 467.582031 443.632812 461.796875 C 435.367188 459.363281 432.101562 452.824219 431.203125 446.84375 C 427.917969 451.453125 426.21875 453.707031 426.1875 453.757812 C 426.039062 453.953125 425.859375 454.101562 425.679688 454.246094 C 428.476562 461.078125 430.386719 465.503906 430.433594 465.601562 C 430.972656 466.84375 430.402344 468.285156 429.160156 468.824219 C 427.917969 469.363281 426.480469 468.789062 425.941406 467.546875 C 425.859375 467.351562 417.007812 446.863281 409.476562 425.75 C 401.996094 404.785156 397.664062 395.277344 387.683594 392.316406 C 384.320312 391.320312 381.328125 390.601562 378.421875 389.917969 C 371.738281 388.316406 365.972656 386.941406 359.699219 382.921875 C 356.105469 380.617188 353.117188 377.59375 350.488281 374.914062 C 348.054688 372.449219 345.03125 369.375 343.839844 369.835938 C 343.167969 371.613281 346.355469 379.097656 350.617188 385.765625 C 351.222656 386.695312 351.109375 387.921875 350.355469 388.738281 C 349.605469 389.558594 348.414062 389.769531 347.414062 389.261719 C 345.960938 388.511719 344.589844 387.757812 343.265625 387.054688 C 336.011719 383.167969 331.0625 380.503906 325.183594 381.074219 C 328.890625 384.015625 334.984375 388.496094 341.664062 391.910156 C 342.875 392.53125 343.347656 394 342.742188 395.210938 C 342.320312 396.058594 341.453125 396.550781 340.554688 396.550781 C 340.179688 396.550781 339.804688 396.46875 339.445312 396.289062 C 330.148438 391.550781 322.175781 385.0625 319.300781 382.613281 C 315.25 384.214844 315.023438 385.292969 315.023438 385.292969 C 314.988281 385.535156 315.101562 386.925781 320.789062 391.042969 C 326.128906 394.898438 337.710938 401.925781 355.421875 405.683594 C 370.679688 408.917969 378.617188 413.527344 378.945312 413.722656 C 379.515625 414.050781 379.925781 414.605469 380.070312 415.242188 C 380.234375 415.914062 396.980469 482.402344 402.8125 500.359375 C 404.933594 506.910156 408.398438 511.046875 413.054688 512.648438 C 418.003906 514.347656 424.375 513.023438 430.09375 509.117188 C 436.332031 504.851562 448.550781 489.085938 456.457031 478.414062 Z M 577.164062 377.449219 C 571.039062 381.175781 563.996094 384.671875 557.707031 385.894531 C 560.125 387.15625 563.636719 387.808594 568.226562 388.578125 C 572.132812 389.230469 576.558594 389.996094 581.070312 391.5 Z M 587.570312 364.292969 C 580.007812 357.382812 577.375 344.636719 574.597656 331.222656 C 571.152344 314.539062 567.230469 295.617188 553.183594 285.550781 C 547.253906 281.304688 540.816406 278.558594 534.039062 277.414062 C 512.097656 273.707031 490.941406 287.839844 484.832031 310.289062 C 482.972656 317.136719 482.285156 325.667969 482.742188 336.335938 C 483.671875 358.363281 481.925781 367.875 480.359375 371.957031 C 484.964844 374.375 497.851562 380.03125 517.980469 380.457031 C 517.621094 376.074219 516.476562 370.273438 515.300781 365.667969 C 512.570312 365.375 507.359375 364.425781 502.640625 361.273438 C 492.460938 354.492188 488.574219 343.492188 491.367188 329.472656 C 492.28125 324.914062 493.898438 319.996094 496.171875 314.867188 C 500.726562 304.589844 506.363281 296.988281 506.59375 296.664062 C 507.394531 295.585938 508.894531 295.355469 509.992188 296.140625 L 534.414062 313.707031 L 547.417969 302.9375 C 548.363281 302.152344 549.753906 302.1875 550.652344 303.035156 L 558.101562 310.027344 C 558.621094 310.519531 558.902344 311.207031 558.867188 311.910156 C 558.835938 312.609375 558.507812 313.28125 557.953125 313.722656 L 546.878906 322.675781 L 553.738281 327.609375 C 554.457031 328.117188 554.832031 328.96875 554.75 329.851562 L 554.148438 335.894531 C 557.183594 335.683594 561.464844 335.945312 563.835938 338.460938 C 564.945312 339.636719 566.070312 341.777344 565.15625 345.257812 C 564.472656 347.871094 562.902344 349.914062 560.648438 351.15625 C 557.25 353.019531 552.953125 352.757812 550.09375 352.269531 C 549.980469 358.28125 550.160156 372.269531 553.902344 381.386719 C 560.679688 381.140625 569.535156 376.515625 576.773438 371.875 C 577.050781 371.566406 577.410156 371.335938 577.816406 371.191406 C 581.917969 368.558594 585.398438 365.976562 587.570312 364.292969 Z M 598.859375 272.496094 L 574.648438 241.777344 L 577.082031 302.007812 C 583.699219 294.785156 592.617188 281.925781 598.859375 272.496094 Z M 513.257812 58.113281 C 506.757812 61.398438 500.109375 63.964844 493.523438 65.90625 L 497.804688 84.585938 C 500.289062 82.949219 503.863281 81.203125 507.277344 81.628906 C 509.582031 81.90625 511.527344 83.148438 512.898438 85.207031 C 514.171875 87.132812 514.546875 89.289062 513.976562 91.480469 C 512.75 96.089844 507.476562 99.765625 504.617188 101.464844 L 507.277344 111.1875 C 511.460938 106.773438 518.941406 97.28125 519.351562 85.351562 C 519.628906 76.609375 515.070312 63.128906 513.257812 58.113281 Z M 432.167969 37.671875 C 438.03125 39.40625 456.097656 42.753906 488.964844 32.34375 C 490.304688 31.921875 491.726562 32.65625 492.152344 33.996094 C 492.578125 35.335938 491.824219 36.757812 490.503906 37.183594 C 472.074219 43.015625 458.074219 44.699219 448.027344 44.699219 C 439.5 44.699219 433.832031 43.488281 430.710938 42.542969 C 430.679688 42.949219 430.632812 43.375 430.648438 43.800781 C 430.648438 43.832031 430.648438 43.882812 430.648438 43.914062 L 429.863281 65.746094 C 439.386719 66.921875 478.019531 70.289062 511.230469 53.441406 L 502.574219 33.40625 C 500.777344 28.734375 496.449219 25.597656 491.53125 25.304688 C 477.382812 24.46875 451.460938 24.324219 436.871094 32.804688 C 434.863281 33.964844 433.246094 35.679688 432.167969 37.671875 Z M 470.441406 151.089844 C 488.671875 156.171875 507.230469 150.648438 516.3125 147.101562 C 512.589844 144.734375 510.367188 139.632812 508.683594 134.75 L 499.390625 100.890625 C 499.078125 99.765625 499.617188 98.570312 500.648438 98.050781 C 503.554688 96.59375 508.457031 93.164062 509.238281 90.207031 C 509.453125 89.390625 509.320312 88.667969 508.832031 87.917969 C 508.242188 87.035156 507.589844 86.609375 506.707031 86.496094 C 503.734375 86.105469 499.257812 89.453125 497.933594 90.664062 C 497.296875 91.25 496.382812 91.449219 495.550781 91.1875 C 494.714844 90.925781 494.097656 90.238281 493.898438 89.40625 L 488.785156 67.230469 C 474.183594 70.988281 460.167969 72.035156 449.15625 72.035156 C 440.1875 72.035156 433.246094 71.347656 429.585938 70.890625 C 429.324219 78.832031 429.585938 104.847656 443.191406 117.871094 C 449.710938 124.113281 458.550781 126.5625 469.511719 125.171875 C 470.554688 125.042969 471.570312 125.582031 472.027344 126.53125 C 474.605469 131.824219 480.046875 144.632812 475.097656 149.046875 C 474.132812 149.894531 472.628906 150.515625 470.441406 151.089844 Z M 378.632812 194.324219 C 375.054688 205.273438 368.605469 214.914062 360.175781 222.363281 L 365.875 231.859375 C 366.511719 232.921875 366.25 234.292969 365.289062 235.042969 C 359.078125 239.898438 352.316406 243.703125 345.144531 246.417969 L 349.964844 260.878906 C 349.996094 260.992188 350.03125 261.125 350.046875 261.238281 C 351.027344 261.664062 351.890625 262.316406 352.5625 263.214844 C 354.03125 265.191406 354.472656 268.050781 354.503906 270.648438 C 361.121094 267.003906 367.917969 267.382812 372.378906 269.144531 C 375.269531 270.289062 377.441406 272.085938 378.632812 274.261719 C 386.019531 272.054688 397.222656 263.949219 411.273438 250.617188 C 423.035156 239.441406 432.625 228.523438 432.707031 228.410156 C 432.851562 228.246094 433.03125 228.101562 433.210938 227.984375 C 431.871094 218.980469 430.957031 212.984375 430.925781 212.757812 C 430.710938 211.417969 431.644531 210.175781 432.984375 209.960938 C 434.304688 209.765625 435.5625 210.679688 435.777344 212.019531 C 436.285156 215.355469 448.273438 293.820312 449.484375 312.5625 C 449.921875 319.472656 450.839844 334.832031 451.800781 351.46875 C 455.019531 352.007812 468.957031 354.230469 478.023438 354.113281 C 478.183594 349.523438 478.183594 343.773438 477.875 336.53125 C 477.402344 325.339844 478.136719 316.320312 480.144531 308.984375 C 486.910156 284.082031 510.449219 268.425781 534.886719 272.5625 C 542.402344 273.835938 549.523438 276.84375 556.058594 281.546875 C 563.898438 287.167969 568.832031 294.980469 572.261719 303.589844 L 569.503906 235.289062 C 569.503906 235.257812 569.503906 235.242188 569.503906 235.207031 L 549.359375 209.652344 C 548.527344 208.589844 548.707031 207.054688 549.769531 206.203125 C 550.832031 205.371094 552.367188 205.550781 553.214844 206.613281 L 601.734375 268.148438 C 604.496094 263.902344 606.292969 261.042969 606.355469 260.945312 C 607.074219 259.800781 608.59375 259.441406 609.738281 260.160156 C 610.882812 260.878906 611.242188 262.382812 610.523438 263.542969 C 609.527344 265.144531 585.824219 302.953125 575.203125 310.453125 C 575.058594 310.550781 574.910156 310.617188 574.746094 310.683594 C 576.722656 317.152344 578.113281 323.820312 579.433594 330.210938 C 581.019531 337.855469 582.554688 345.242188 584.941406 351.207031 C 634.617188 305.519531 653.144531 279.847656 653.402344 273.707031 C 653.960938 260.8125 637.246094 240.160156 637.085938 239.945312 C 633.492188 235.207031 627.789062 226.957031 621.171875 217.398438 C 608.59375 199.210938 592.945312 176.5625 580.5625 161.515625 C 567.199219 145.273438 545.703125 146.988281 531.472656 148.113281 C 529.007812 148.3125 526.785156 148.492188 524.824219 148.554688 C 524.675781 148.6875 524.53125 148.800781 524.351562 148.898438 C 523.566406 149.308594 512.605469 154.976562 497.820312 157.214844 C 498.867188 167.070312 503.523438 210.878906 508.308594 253.164062 C 508.457031 254.503906 507.492188 255.730469 506.152344 255.878906 C 506.054688 255.894531 505.972656 255.894531 505.875 255.894531 C 504.648438 255.894531 503.585938 254.964844 503.441406 253.722656 C 498.671875 211.515625 494.015625 167.789062 492.953125 157.789062 C 490.796875 157.984375 488.589844 158.097656 486.320312 158.097656 C 478.363281 158.097656 469.871094 156.757812 461.570312 153.066406 C 461.40625 152.984375 461.246094 152.902344 461.113281 152.789062 C 460.574219 152.871094 460.035156 152.953125 459.464844 153.050781 C 449.023438 154.667969 436.039062 156.675781 428.328125 161.5625 C 415.683594 169.570312 389.808594 204.765625 387.667969 207.691406 L 391.996094 222.640625 C 392.371094 223.949219 391.621094 225.304688 390.332031 225.683594 C 390.101562 225.746094 389.871094 225.78125 389.644531 225.78125 C 388.582031 225.78125 387.601562 225.078125 387.292969 224.015625 Z M 344.917969 261.253906 L 340.503906 248.019531 C 335.066406 249.683594 329.429688 250.730469 323.648438 251.140625 L 327.160156 264.765625 C 329.59375 265.386719 334.214844 266.972656 338.1875 270.683594 C 339.867188 266.449219 341.8125 262.609375 344.917969 261.253906 Z M 259.136719 174.570312 C 259.136719 181.675781 260.394531 188.492188 262.714844 194.816406 C 264.855469 195.664062 266.667969 195.761719 267.875 195.09375 C 269.609375 194.113281 270.230469 191.449219 270.441406 189.375 C 271.160156 182.414062 276.648438 181.972656 281.484375 181.578125 C 285.355469 181.269531 289.734375 180.910156 294.503906 178.34375 C 304.894531 172.757812 308.570312 163.554688 304.617188 153.097656 L 304.371094 152.445312 C 299.976562 140.84375 299.242188 136.875 312.867188 130.550781 C 315.382812 129.390625 316.851562 127.835938 317.375 125.792969 C 318.238281 122.414062 316.328125 118.164062 314.90625 115.761719 C 283.886719 117.378906 259.136719 143.148438 259.136719 174.570312 Z M 265.097656 200.371094 C 274.671875 219.945312 294.796875 233.460938 318.011719 233.460938 C 347.234375 233.460938 371.542969 212.054688 376.101562 184.097656 C 375.152344 184.40625 374.140625 184.585938 373.144531 184.585938 C 372.3125 184.585938 371.480469 184.472656 370.679688 184.226562 C 366.625 183.019531 364.488281 179.144531 364.960938 173.882812 L 365.15625 171.808594 C 365.988281 163.148438 366.414062 158.785156 359.503906 151.121094 C 350.601562 141.21875 352.742188 128.605469 352.839844 128.066406 C 352.886719 127.789062 352.988281 127.542969 353.117188 127.3125 C 343.675781 120.304688 332.289062 116.234375 320.445312 115.730469 C 321.867188 118.734375 323.171875 122.953125 322.144531 126.988281 C 321.246094 130.5 318.828125 133.179688 314.941406 134.976562 C 304.796875 139.683594 305.023438 140.304688 308.960938 150.679688 L 309.207031 151.335938 C 314.058594 164.144531 309.417969 175.84375 296.824219 182.625 C 291.15625 185.679688 285.78125 186.121094 281.875 186.433594 C 276.304688 186.875 275.570312 187.265625 275.308594 189.847656 C 274.820312 194.539062 273.136719 197.722656 270.277344 199.324219 C 269.003906 200.042969 267.550781 200.402344 265.980469 200.402344 C 265.6875 200.4375 265.394531 200.402344 265.097656 200.371094 Z M 376.886719 174.570312 C 376.886719 159.863281 371.429688 145.777344 361.53125 134.914062 C 360.238281 133.492188 358.882812 132.167969 357.480469 130.894531 C 357.332031 134.375 357.722656 141.839844 363.148438 147.855469 C 371.496094 157.136719 370.890625 163.492188 370.042969 172.296875 L 369.84375 174.339844 C 369.664062 176.351562 369.894531 178.882812 372.082031 179.539062 C 373.78125 180.042969 376.050781 179.210938 376.789062 177.820312 C 376.789062 177.820312 376.789062 177.820312 376.789062 177.804688 C 376.851562 176.742188 376.886719 175.664062 376.886719 174.570312 Z M 328.664062 108.964844 C 328.777344 109.355469 328.859375 109.570312 329.871094 109.371094 C 333.773438 108.652344 338.480469 100.746094 340.503906 95.941406 C 341.027344 94.699219 342.464844 94.109375 343.722656 94.632812 C 344.964844 95.15625 345.554688 96.59375 345.03125 97.835938 C 344.476562 99.144531 340.128906 109.0625 334.054688 112.835938 C 343.085938 115.191406 351.550781 119.535156 358.769531 125.53125 L 352.578125 104.109375 C 352.496094 103.816406 352.464844 103.507812 352.496094 103.210938 C 351.171875 98.308594 348.296875 90.515625 344.164062 88.425781 C 342.808594 87.738281 341.4375 87.753906 339.835938 88.488281 C 333.398438 91.464844 327.371094 104.878906 328.664062 108.964844 Z M 320.496094 92.183594 C 316.882812 97.609375 314.890625 108.261719 315.984375 110.550781 C 319.417969 110.011719 322.488281 106.382812 323.402344 104.992188 C 323.566406 104.730469 323.777344 104.535156 324.007812 104.371094 C 324.742188 100.710938 326.488281 96.511719 328.859375 92.804688 C 328.824219 92.769531 328.777344 92.753906 328.726562 92.722656 C 327.84375 91.988281 325.066406 90.171875 322.878906 90.484375 C 322.308594 90.566406 321.394531 90.828125 320.496094 92.183594 Z M 304.992188 110.417969 C 305.007812 110.433594 306.347656 110.972656 310.691406 107.949219 C 310.742188 107.917969 310.789062 107.902344 310.839844 107.871094 C 310.921875 103.015625 312.75 96.839844 314.742188 92.558594 C 312.621094 92.507812 309.074219 93.410156 306.773438 99.308594 C 303.929688 106.628906 304.46875 110.011719 304.992188 110.417969 Z M 318.011719 246.449219 C 333.515625 246.449219 348.167969 241.644531 360.550781 232.511719 L 356.351562 225.519531 C 345.667969 233.574219 332.386719 238.363281 318.011719 238.363281 C 291.105469 238.363281 268.054688 221.597656 258.710938 197.984375 C 258.5 197.675781 258.351562 197.332031 258.304688 196.957031 C 255.691406 189.976562 254.234375 182.445312 254.234375 174.570312 C 254.234375 147.789062 270.816406 124.832031 294.257812 115.386719 L 290.976562 107.949219 C 264.070312 118.898438 246.164062 145.371094 246.164062 174.570312 C 246.148438 214.210938 278.378906 246.449219 318.011719 246.449219 Z M 315.480469 251.285156 L 311.167969 264 L 321.914062 264 L 318.648438 251.335938 C 318.4375 251.335938 318.222656 251.351562 318.011719 251.351562 C 317.160156 251.351562 316.328125 251.320312 315.480469 251.285156 Z M 290.191406 282.707031 L 332.597656 282.707031 C 332.617188 282.707031 332.632812 282.707031 332.648438 282.707031 C 333.105469 282.203125 333.53125 281.597656 333.957031 280.828125 C 334.773438 279.375 335.523438 277.59375 336.242188 275.746094 C 331.734375 270.371094 324.855469 269.277344 324.789062 269.261719 C 324.449219 269.210938 324.121094 269.082031 323.84375 268.902344 L 309.109375 268.902344 C 308.914062 269.03125 308.683594 269.128906 308.4375 269.195312 C 298.457031 271.84375 292.820312 278.589844 290.191406 282.707031 Z M 241.953125 357.90625 C 242.375 357.269531 246.003906 351.792969 250.96875 344.359375 C 249.171875 341.828125 245.152344 335.765625 237.636719 322.609375 C 210.339844 330.472656 200.539062 360.894531 200.441406 361.207031 C 200.410156 361.335938 200.328125 361.433594 200.261719 361.550781 C 213.671875 377.335938 235.644531 400.519531 247.71875 402.433594 C 264.609375 405.128906 272.140625 394.816406 287.644531 360.375 C 302.6875 326.957031 309.8125 312.988281 309.875 312.839844 C 310.203125 312.203125 310.773438 311.746094 311.460938 311.582031 C 311.671875 311.53125 332.191406 306.386719 346.5 301.304688 C 361.757812 295.894531 375.464844 281.664062 374.695312 277.625 C 374.417969 276.140625 372.949219 274.734375 370.761719 273.820312 C 369.617188 276.957031 366.25 284.539062 358.898438 290.617188 C 358.441406 290.992188 357.886719 291.171875 357.332031 291.171875 C 356.628906 291.171875 355.925781 290.863281 355.4375 290.289062 C 354.570312 289.246094 354.71875 287.707031 355.761719 286.84375 C 361.726562 281.90625 364.699219 275.78125 365.875 272.824219 C 362.527344 272.691406 358.523438 273.558594 354.734375 276.320312 C 354.570312 276.433594 354.40625 276.515625 354.226562 276.597656 C 353.28125 280.683594 349.949219 290.730469 338.988281 298.640625 C 338.5625 298.949219 338.054688 299.097656 337.550781 299.097656 C 336.78125 299.097656 336.046875 298.738281 335.554688 298.085938 C 334.773438 296.988281 335.015625 295.453125 336.113281 294.667969 C 344.769531 288.425781 347.988281 280.648438 349.113281 276.710938 C 349.066406 276.417969 349.050781 276.125 349.113281 275.8125 C 349.6875 272.886719 349.882812 267.953125 348.558594 266.1875 C 348.296875 265.84375 348.035156 265.699219 347.628906 265.648438 C 345.339844 265.421875 343.25 270.910156 341.601562 275.304688 C 340.554688 278.050781 339.492188 280.910156 338.152344 283.265625 C 334.070312 290.503906 328.53125 289.816406 320.183594 288.789062 C 318.484375 288.574219 316.605469 288.347656 314.515625 288.148438 C 302.246094 286.957031 294.257812 290.78125 286.007812 301.777344 C 280.375 309.292969 266.144531 330.421875 256.261719 345.191406 C 256.128906 345.570312 255.902344 345.929688 255.574219 346.222656 C 250.085938 354.441406 246.085938 360.472656 245.96875 360.632812 C 245.496094 361.355469 244.710938 361.730469 243.929688 361.730469 C 243.453125 361.730469 242.996094 361.597656 242.570312 361.320312 C 241.527344 360.554688 241.214844 359.035156 241.953125 357.90625 Z M 103.683594 259.75 C 109.417969 259.585938 114.988281 259.847656 119.792969 260.078125 C 125.703125 260.355469 131.308594 260.617188 133.433594 259.832031 C 140.441406 257.25 146.304688 236.597656 143.789062 228.183594 C 142.808594 224.929688 140.128906 221.417969 137.546875 218.035156 C 133.234375 212.398438 128.777344 206.5625 131.636719 200.84375 C 133.953125 196.21875 138.691406 194.929688 144.671875 197.28125 C 148.019531 198.605469 151.386719 199.113281 154.652344 198.800781 C 165.464844 197.789062 185.117188 193.296875 195.34375 174.472656 C 195.785156 173.65625 196.570312 173.164062 197.582031 173.195312 C 198.515625 173.230469 199.347656 173.785156 199.722656 174.636719 C 200.035156 175.304688 207.222656 191.320312 207.921875 208.378906 L 208.054688 214.945312 C 209.882812 217.199219 212.398438 220.699219 212.398438 223.082031 C 212.398438 224.046875 212.398438 226.5625 203.105469 231.664062 C 200.71875 235.8125 197.4375 239.242188 193.351562 241.875 C 185.394531 247.003906 177.765625 248.835938 170.644531 247.300781 C 168.503906 254.164062 167.101562 261.925781 168.242188 263.722656 C 169.371094 265.421875 178.746094 267.90625 184.957031 269.539062 C 191.179688 271.171875 197.632812 272.871094 202.664062 274.945312 C 218.019531 281.253906 233.246094 304.980469 240.9375 318.558594 C 243.371094 322.839844 245.429688 326.371094 247.195312 329.328125 C 249.171875 325.992188 252.472656 317.609375 245.511719 305.8125 C 235.480469 288.789062 234.027344 275.324219 230.859375 245.863281 L 230.597656 243.425781 C 230.289062 240.484375 229.976562 237.363281 229.667969 234.128906 C 226.773438 204.195312 222.804688 163.214844 194.9375 154.601562 C 157.117188 142.933594 141.109375 159.03125 132.355469 172.167969 C 124.5625 183.867188 107.507812 245.648438 103.683594 259.75 Z M 119.5625 264.964844 C 118.058594 264.898438 116.476562 264.816406 114.839844 264.75 C 119.511719 284.964844 135.097656 292.660156 140.128906 294.636719 L 145.488281 287.808594 C 131.765625 283.410156 127.550781 267.804688 126.945312 265.242188 C 124.789062 265.207031 122.324219 265.09375 119.5625 264.964844 Z M 174.695312 271.761719 C 169.011719 270.046875 165.53125 268.507812 164.144531 266.351562 C 161.007812 261.484375 165.253906 247.902344 166.625 243.867188 C 166.707031 243.625 166.824219 243.410156 166.96875 243.230469 C 167.507812 242.203125 168.71875 241.664062 169.878906 242.023438 C 176.167969 244.03125 183.175781 242.59375 190.707031 237.722656 C 194.300781 235.402344 197.140625 232.347656 199.167969 228.640625 C 199.394531 228.214844 199.738281 227.871094 200.164062 227.660156 C 203.316406 225.976562 206.484375 223.820312 207.417969 222.773438 C 207.007812 221.761719 205.40625 219.375 203.757812 217.429688 C 203.398438 217.003906 203.1875 216.449219 203.167969 215.894531 L 203.023438 208.523438 C 202.582031 197.625 199.183594 186.90625 197.042969 181.089844 C 188.925781 192.984375 177.246094 198.738281 167.183594 201.480469 L 179.941406 204.980469 C 182.03125 201.335938 185.804688 198.898438 190.117188 198.898438 C 196.699219 198.898438 202.042969 204.554688 202.042969 211.515625 C 202.042969 218.476562 196.699219 224.128906 190.117188 224.128906 C 183.535156 224.128906 178.191406 218.476562 178.191406 211.515625 C 178.191406 210.648438 178.273438 209.800781 178.4375 208.964844 L 157.886719 203.34375 C 156.90625 203.476562 155.976562 203.589844 155.09375 203.671875 C 151.042969 204.046875 146.925781 203.425781 142.859375 201.824219 C 137.628906 199.765625 136.453125 202.136719 135.996094 203.019531 C 134.511719 205.992188 137.859375 210.386719 141.421875 215.042969 C 144.277344 218.785156 147.234375 222.640625 148.460938 226.761719 C 151.464844 236.761719 145.324219 260.648438 135.113281 264.425781 C 134.25 264.75 133.171875 264.945312 131.960938 265.078125 C 133.121094 269.097656 137.808594 282.167969 150.109375 283.867188 C 168.800781 286.449219 173.960938 273.867188 174.695312 271.761719 Z M 182.457031 211.515625 C 182.457031 216.121094 185.902344 219.882812 190.132812 219.882812 C 194.363281 219.882812 197.8125 216.121094 197.8125 211.515625 C 197.8125 206.90625 194.363281 203.148438 190.132812 203.148438 C 185.902344 203.148438 182.457031 206.890625 182.457031 211.515625 Z M 162.886719 288.117188 L 165.628906 296.042969 C 170.5625 295.535156 184.824219 292.660156 192.535156 276.644531 C 189.675781 275.8125 186.6875 275.027344 183.730469 274.246094 C 182.195312 273.835938 180.757812 273.460938 179.417969 273.101562 C 178.8125 274.816406 174.875 284.898438 162.886719 288.117188 Z M 56.652344 303.003906 C 62.09375 304.046875 73.332031 308.410156 84.605469 326.058594 L 97.476562 302.429688 C 98.082031 301.320312 99.4375 300.863281 100.597656 301.351562 L 122.683594 310.910156 C 126.390625 307.21875 133.890625 302.855469 142.695312 306.335938 C 151.84375 309.964844 152.347656 319.082031 151.074219 324.851562 L 175.742188 336.648438 C 176.96875 337.234375 177.472656 338.691406 176.902344 339.914062 L 162.96875 369.34375 C 163.046875 369.359375 163.148438 369.394531 163.226562 369.425781 C 164.4375 369.785156 165.417969 370.453125 166.152344 371.355469 C 170.546875 370.046875 184.023438 365.113281 188.171875 352.675781 C 188.449219 351.828125 189.1875 351.191406 190.085938 351.042969 C 190.984375 350.894531 191.882812 351.238281 192.4375 351.957031 C 193.597656 353.460938 195.035156 355.242188 196.652344 357.21875 C 199.65625 349.410156 210.554688 325.894531 235.121094 318.214844 C 223.035156 297.527344 210.617188 283.445312 200.816406 279.425781 C 199.707031 278.964844 198.515625 278.542969 197.273438 278.117188 C 186.785156 300.765625 164.144531 301.042969 163.914062 301.042969 C 162.867188 301.042969 161.9375 300.371094 161.59375 299.390625 L 157.984375 288.96875 C 157.019531 289.046875 156.023438 289.113281 154.980469 289.113281 C 153.6875 289.113281 152.300781 289.015625 150.863281 288.867188 L 142.890625 299.046875 C 142.417969 299.652344 141.699219 299.980469 140.960938 299.980469 C 140.734375 299.980469 140.488281 299.949219 140.261719 299.882812 C 139.230469 299.570312 115.429688 292.167969 109.761719 264.621094 C 96.316406 264.40625 80.699219 265.746094 72.808594 275.519531 C 67.925781 281.582031 62.304688 291.566406 56.652344 303.003906 Z M 43.40625 407.890625 C 70.523438 411.222656 117.40625 415.128906 136.796875 413.347656 C 155.957031 411.597656 162.265625 408.9375 166.480469 394.882812 C 162.101562 400.847656 155.273438 407.449219 145.992188 408.640625 C 145.878906 408.65625 145.78125 408.65625 145.683594 408.65625 C 144.476562 408.65625 143.414062 407.757812 143.25 406.519531 C 143.070312 405.175781 144.015625 403.953125 145.375 403.773438 C 157.707031 402.1875 165.367188 388.035156 167.3125 384 C 167.296875 383.96875 167.261719 383.953125 167.246094 383.917969 C 167.003906 383.496094 166.332031 382.644531 165.761719 382.316406 C 163.523438 386.8125 155.5 400.734375 141.46875 401.371094 C 141.4375 401.371094 141.386719 401.371094 141.355469 401.371094 C 140.046875 401.371094 138.96875 400.339844 138.902344 399.035156 C 138.839844 397.675781 139.882812 396.535156 141.242188 396.46875 C 154.585938 395.863281 161.824219 379.195312 161.890625 379.035156 C 161.890625 379.035156 161.890625 379.015625 161.890625 379.015625 C 162.394531 377.824219 162.917969 375.601562 162.460938 374.589844 C 162.378906 374.425781 162.265625 374.246094 161.839844 374.132812 C 160.632812 373.753906 158.539062 376.597656 156.710938 379.117188 C 155.160156 381.253906 153.378906 383.691406 151.207031 385.683594 C 144.71875 391.632812 127.617188 391.796875 127.4375 391.796875 C 126.128906 391.796875 125.035156 390.894531 124.707031 389.574219 C 124.023438 386.695312 127.519531 379.835938 132.941406 377.121094 C 139.328125 373.933594 140.40625 372.203125 139.949219 370.617188 C 139.703125 370.4375 138.789062 370.03125 136.878906 369.996094 C 136.796875 369.996094 136.730469 369.996094 136.648438 369.996094 C 131.128906 369.996094 122.714844 372.90625 116.164062 379.441406 C 116.117188 379.492188 116.050781 379.554688 115.984375 379.605469 C 107.410156 386.664062 104.664062 386.617188 94.503906 383.234375 C 85.125 380.113281 62.078125 374.214844 61.847656 374.164062 C 61.113281 373.984375 60.507812 373.460938 60.214844 372.773438 C 59.902344 372.089844 59.953125 371.289062 60.3125 370.617188 L 81.925781 330.976562 C 81.859375 330.894531 81.777344 330.8125 81.730469 330.730469 C 69.605469 310.617188 57.632812 307.988281 54.414062 307.644531 C 41.035156 335.667969 28.113281 370.210938 25.386719 378.707031 C 23.261719 385.324219 21.285156 393.640625 24.960938 399.425781 C 27.820312 403.886719 34.027344 406.746094 43.40625 407.890625 Z M 25.84375 556.519531 L 89.257812 556.078125 C 89.277344 544.902344 89.863281 505.523438 97.363281 487.808594 C 97.785156 486.796875 98.847656 486.191406 99.941406 486.339844 C 101.039062 486.484375 101.902344 487.335938 102.050781 488.429688 C 102.117188 488.871094 108.242188 532.238281 124.136719 555.800781 C 124.136719 555.816406 124.152344 555.816406 124.152344 555.832031 L 191.882812 555.359375 C 183.878906 537.550781 148.738281 458.332031 147.628906 439.980469 C 146.792969 426.238281 146.8125 419.835938 146.910156 417.058594 C 144.015625 417.546875 140.816406 417.9375 137.222656 418.265625 C 133.792969 418.578125 129.527344 418.722656 124.691406 418.722656 C 102.261719 418.722656 67.351562 415.734375 44.679688 413.019531 C 40.511719 423.96875 18.394531 486.191406 25.84375 556.519531 Z M 98.945312 499.3125 C 94.519531 518.757812 94.175781 548.710938 94.175781 556.847656 L 119.023438 556.847656 C 107.882812 539.296875 101.691406 513.496094 98.945312 499.3125 Z M 304.257812 491.339844 C 306.316406 495.621094 306.753906 500.375 305.480469 504.738281 C 304.175781 509.199219 301.265625 512.710938 297.265625 514.640625 C 295.140625 515.652344 292.902344 516.144531 290.648438 516.144531 C 284.230469 516.144531 277.859375 512.207031 274.671875 505.605469 C 270.375 496.683594 273.511719 486.226562 281.679688 482.285156 C 289.816406 478.363281 299.960938 482.433594 304.257812 491.339844 Z M 299.84375 493.480469 C 297.507812 488.625 292.871094 485.71875 288.296875 485.71875 C 286.761719 485.71875 285.226562 486.046875 283.789062 486.746094 C 278.070312 489.507812 275.945312 497.027344 279.066406 503.511719 C 282.203125 510 289.390625 513.023438 295.125 510.261719 C 297.851562 508.9375 299.863281 506.503906 300.761719 503.398438 C 301.707031 500.164062 301.382812 496.648438 299.84375 493.480469 Z M 186.636719 211.007812 L 186.71875 210.976562 C 187.257812 210.730469 187.796875 210.519531 188.304688 210.484375 C 188.808594 210.421875 189.269531 210.519531 189.691406 210.714844 C 190.101562 210.910156 190.476562 211.203125 190.804688 211.597656 C 191.113281 211.957031 191.457031 212.496094 191.585938 212.839844 C 191.636719 212.96875 191.703125 213.101562 191.785156 213.214844 C 192.289062 213.964844 193.320312 214.160156 194.070312 213.65625 C 194.820312 213.148438 195.019531 212.121094 194.511719 211.367188 L 194.460938 211.300781 C 193.921875 210.5 193.402344 209.996094 192.714844 209.472656 C 192.046875 208.964844 191.261719 208.558594 190.410156 208.359375 C 189.5625 208.164062 188.628906 208.214844 187.847656 208.476562 C 187.046875 208.71875 186.394531 209.160156 185.804688 209.601562 C 185.496094 209.832031 185.378906 210.257812 185.542969 210.617188 C 185.722656 211.007812 186.214844 211.203125 186.636719 211.007812 Z M 320.117188 191.644531 C 316.574219 186.644531 317.015625 180.222656 321.277344 174.898438 C 324.449219 170.941406 329.28125 168.246094 333.890625 167.871094 C 334.003906 167.871094 344.558594 167.136719 348.984375 171.285156 C 350.273438 172.496094 350.945312 174.03125 350.910156 175.714844 C 350.878906 177.234375 350.371094 178.507812 349.914062 179.636719 L 349.75 180.042969 C 348.527344 183.148438 348.214844 186.480469 347.875 190.011719 C 347.53125 193.636719 347.171875 197.378906 345.765625 200.992188 C 343.757812 206.140625 340.144531 213.066406 334.429688 216.890625 C 333.054688 217.804688 331.488281 218.199219 329.886719 218.199219 C 327.09375 218.199219 324.234375 216.972656 322.355469 215.175781 C 319.367188 212.347656 318.828125 208.359375 320.933594 204.78125 C 324.332031 198.980469 324.773438 198.246094 320.117188 191.644531 Z M 325.101562 177.96875 C 323.710938 179.699219 320.855469 184.210938 324.105469 188.816406 C 329.839844 196.921875 329.511719 199.878906 325.132812 207.28125 C 324.1875 208.898438 324.367188 210.371094 325.707031 211.628906 C 327.386719 213.214844 330.230469 213.785156 331.699219 212.804688 C 336.355469 209.699219 339.445312 203.6875 341.191406 199.195312 C 342.351562 196.21875 342.660156 192.96875 342.988281 189.539062 C 343.347656 185.828125 343.707031 181.988281 345.179688 178.246094 L 345.359375 177.804688 C 345.683594 176.988281 345.996094 176.238281 345.996094 175.617188 C 345.996094 175.417969 345.976562 175.191406 345.601562 174.847656 C 343.773438 173.117188 337.746094 172.460938 334.265625 172.757812 C 330.964844 173.035156 327.453125 175.027344 325.101562 177.96875 Z M 466.816406 85.550781 C 465.199219 85.679688 464.054688 87.722656 464.25 90.109375 C 464.445312 92.492188 465.917969 94.324219 467.535156 94.191406 C 469.152344 94.0625 470.292969 92.019531 470.097656 89.632812 C 469.902344 87.25 468.433594 85.417969 466.816406 85.550781 Z M 445.089844 87.132812 C 443.472656 87.265625 442.328125 89.308594 442.523438 91.691406 C 442.71875 94.078125 444.191406 95.910156 445.808594 95.777344 C 447.425781 95.648438 448.566406 93.605469 448.371094 91.21875 C 448.160156 88.832031 446.707031 87.003906 445.089844 87.132812 Z M 450.625 100.304688 C 450.886719 101.496094 451.492188 102.3125 452.4375 102.933594 C 453.371094 103.539062 454.53125 103.71875 455.527344 103.652344 C 456.539062 103.589844 457.40625 103.277344 458.191406 102.902344 C 458.941406 102.492188 459.609375 102.003906 460.183594 101.464844 C 460.589844 101.070312 460.785156 100.46875 460.609375 99.878906 C 460.363281 99.046875 459.496094 98.570312 458.664062 98.800781 L 458.515625 98.851562 C 457.878906 99.03125 457.308594 99.226562 456.769531 99.371094 C 456.230469 99.488281 455.722656 99.601562 455.332031 99.585938 C 454.921875 99.601562 454.628906 99.519531 454.316406 99.453125 C 454.039062 99.40625 453.597656 99.191406 453.191406 99.128906 L 451.917969 98.929688 C 451.785156 98.914062 451.640625 98.914062 451.507812 98.949219 C 450.886719 99.078125 450.496094 99.683594 450.625 100.304688 Z M 466.847656 109.503906 L 466.652344 109.601562 C 466 109.929688 465.410156 110.335938 464.773438 110.648438 C 464.121094 110.910156 463.53125 111.285156 462.894531 111.464844 C 461.636719 111.972656 460.347656 112.183594 459.070312 112.25 C 457.78125 112.3125 456.492188 112.152344 455.214844 111.808594 C 453.957031 111.464844 452.601562 110.910156 451.507812 110.351562 L 451.296875 110.238281 C 450.707031 109.929688 449.957031 110.042969 449.464844 110.550781 C 448.863281 111.171875 448.894531 112.152344 449.5 112.753906 C 450.871094 114.078125 452.308594 114.945312 454.007812 115.566406 C 455.675781 116.171875 457.503906 116.449219 459.316406 116.300781 C 461.113281 116.136719 462.910156 115.695312 464.445312 114.8125 C 465.261719 114.453125 465.917969 113.882812 466.617188 113.390625 C 467.273438 112.835938 467.875 112.25 468.449219 111.644531 C 468.839844 111.234375 468.957031 110.632812 468.695312 110.089844 C 468.335938 109.4375 467.515625 109.160156 466.847656 109.503906 Z M 445.25 82.363281 C 445.988281 82.445312 446.707031 82.527344 447.457031 82.789062 C 448.226562 82.96875 448.976562 83.308594 449.921875 83.570312 L 450.121094 83.621094 C 450.480469 83.71875 450.855469 83.667969 451.199219 83.457031 C 451.835938 83.046875 452.015625 82.214844 451.605469 81.59375 C 450.96875 80.597656 450.085938 79.75 448.960938 79.175781 C 447.867188 78.589844 446.558594 78.292969 445.285156 78.34375 C 444.011719 78.375 442.769531 78.703125 441.707031 79.273438 C 440.628906 79.863281 439.746094 80.566406 439.027344 81.609375 C 438.878906 81.839844 438.816406 82.117188 438.878906 82.410156 C 439.011719 82.933594 439.550781 83.261719 440.074219 83.128906 L 440.285156 83.082031 C 441.152344 82.867188 442.066406 82.609375 442.882812 82.476562 C 443.730469 82.347656 444.5 82.296875 445.25 82.363281 Z M 471.960938 78.261719 C 470.867188 77.671875 469.558594 77.378906 468.285156 77.429688 C 467.011719 77.460938 465.769531 77.789062 464.707031 78.359375 C 463.628906 78.949219 462.746094 79.648438 462.027344 80.695312 C 461.882812 80.925781 461.816406 81.203125 461.882812 81.496094 C 462.011719 82.019531 462.550781 82.347656 463.074219 82.214844 L 463.285156 82.167969 C 464.152344 81.953125 465.066406 81.691406 465.882812 81.5625 C 466.71875 81.429688 467.5 81.398438 468.234375 81.449219 C 468.972656 81.527344 469.691406 81.609375 470.441406 81.871094 C 471.210938 82.050781 471.960938 82.394531 472.910156 82.65625 L 473.105469 82.707031 C 473.464844 82.804688 473.839844 82.753906 474.183594 82.542969 C 474.820312 82.132812 475 81.300781 474.589844 80.679688 C 473.96875 79.683594 473.089844 78.832031 471.960938 78.261719 Z M 451.574219 224.75 L 450.363281 206.515625 C 450.28125 205.222656 451.214844 204.078125 452.503906 203.917969 L 482.285156 200.273438 C 482.9375 200.191406 483.574219 200.371094 484.097656 200.78125 C 484.605469 201.1875 484.949219 201.777344 485.011719 202.414062 L 487.136719 220.355469 C 487.300781 221.695312 486.351562 222.902344 485.011719 223.066406 L 454.316406 227.023438 C 454.21875 227.039062 454.105469 227.039062 454.007812 227.039062 C 453.4375 227.039062 452.898438 226.84375 452.457031 226.480469 C 451.933594 226.042969 451.605469 225.421875 451.574219 224.75 Z M 455.394531 208.492188 L 456.277344 221.824219 L 481.992188 218.507812 L 480.4375 205.417969 Z M 514.5 206.726562 C 516.882812 206.726562 518.828125 204.78125 518.828125 202.398438 C 518.828125 200.011719 516.882812 198.066406 514.5 198.066406 C 512.113281 198.066406 510.171875 200.011719 510.171875 202.398438 C 510.171875 204.78125 512.097656 206.726562 514.5 206.726562 Z M 511.984375 222.675781 C 511.984375 225.0625 513.929688 227.003906 516.3125 227.003906 C 518.699219 227.003906 520.640625 225.0625 520.640625 222.675781 C 520.640625 220.289062 518.699219 218.34375 516.3125 218.34375 C 513.929688 218.34375 511.984375 220.289062 511.984375 222.675781 Z M 511.984375 222.675781 " fill-opacity="1" fill-rule="nonzero"/></g></svg>