<svg xmlns="http://www.w3.org/2000/svg" xmlns:xlink="http://www.w3.org/1999/xlink" width="500" zoomAndPan="magnify" viewBox="0 0 675 576" height="425" preserveAspectRatio="xMidYMid meet" version="1.0"><defs><clipPath id="d191dafc42"><path d="M 88 29 L 589.003906 29 L 589.003906 547 L 88 547 Z M 88 29 " clip-rule="nonzero"/></clipPath></defs><path fill="#ffffff" d="M 292.539062 89.929688 C 295.492188 72.351562 312.417969 60.632812 312.710938 60.445312 L 311.21875 58.234375 L 309.730469 56.023438 C 308.941406 56.558594 290.660156 69.101562 287.289062 89.007812 C 285.414062 100.046875 288.515625 111.085938 296.519531 121.820312 C 321.21875 154.964844 289.0625 183.59375 287.675781 184.792969 L 291.164062 188.8125 C 291.539062 188.496094 328.476562 155.777344 300.792969 118.636719 C 293.695312 109.128906 290.925781 99.476562 292.539062 89.929688 Z M 348.480469 89.929688 C 351.460938 72.296875 368.492188 60.566406 368.652344 60.445312 L 365.667969 56.023438 C 364.898438 56.558594 346.613281 69.101562 343.230469 89.007812 C 341.367188 100.046875 344.46875 111.085938 352.460938 121.820312 C 377.175781 154.964844 345.003906 183.59375 343.632812 184.792969 L 347.121094 188.8125 C 347.492188 188.496094 384.417969 155.777344 356.734375 118.636719 C 349.652344 109.128906 346.878906 99.476562 348.480469 89.929688 Z M 404.433594 89.929688 C 407.402344 72.296875 424.433594 60.566406 424.605469 60.445312 L 423.117188 58.234375 L 421.625 56.023438 C 420.851562 56.558594 402.570312 69.101562 399.1875 89.007812 C 397.308594 100.046875 400.425781 111.085938 408.414062 121.820312 C 433.117188 154.964844 400.957031 183.59375 399.574219 184.792969 L 403.0625 188.8125 C 403.449219 188.496094 440.375 155.777344 412.6875 118.636719 C 405.605469 109.128906 402.820312 99.476562 404.433594 89.929688 Z M 489.269531 402.164062 C 529.871094 343.441406 525.132812 264.621094 524.890625 261.199219 C 524.746094 227.644531 449.121094 201.359375 352.605469 201.359375 C 260.992188 201.359375 188.21875 225.035156 180.933594 256.152344 L 156.234375 256.152344 C 139.480469 256.152344 124.339844 265.117188 115.726562 280.121094 C 107.109375 295.171875 106.65625 313.425781 114.527344 328.953125 C 128.390625 356.359375 156.125 388.570312 210.441406 393.628906 C 212.175781 396.519531 214.011719 399.355469 215.941406 402.164062 C 166.820312 414.882812 135.871094 434.457031 135.871094 456.816406 C 135.871094 496.019531 231.070312 526.726562 352.605469 526.726562 C 474.144531 526.726562 569.355469 496.019531 569.355469 456.816406 C 569.355469 434.457031 538.394531 414.882812 489.269531 402.164062 Z M 489.269531 402.164062 " fill-opacity="1" fill-rule="nonzero"/><g clip-path="url(#d191dafc42)"><path fill="#ffffff" d="M 523.3125 391.789062 C 521.207031 391.011719 520.1875 388.597656 521.144531 386.566406 C 547.941406 329.675781 545.28125 267.800781 544.867188 260.453125 C 544.519531 242.570312 533.082031 217.761719 481.441406 199.828125 C 467.863281 195.113281 452.464844 191.230469 435.785156 188.269531 C 433.164062 187.804688 431.808594 184.886719 433.128906 182.574219 C 434.34375 180.441406 435.515625 178.167969 436.605469 175.765625 C 447.21875 152.300781 444.410156 127.773438 428.695312 106.691406 C 423.128906 99.210938 423.875 94.722656 424.128906 93.257812 C 425.367188 85.933594 433.222656 78.847656 435.96875 76.878906 L 449.152344 67.929688 C 450.910156 66.738281 451.371094 64.347656 450.179688 62.585938 L 429.171875 31.5 C 427.984375 29.738281 425.589844 29.277344 423.828125 30.464844 L 410.464844 39.472656 C 409.050781 40.421875 401.777344 45.515625 394.546875 54.230469 C 392.90625 56.210938 389.828125 56.074219 388.386719 53.945312 L 373.207031 31.488281 C 372.015625 29.726562 369.621094 29.265625 367.859375 30.453125 L 354.496094 39.472656 C 353.09375 40.421875 345.820312 45.527344 338.59375 54.234375 C 336.949219 56.214844 333.871094 56.078125 332.429688 53.945312 L 317.265625 31.503906 C 316.074219 29.742188 313.679688 29.277344 311.917969 30.46875 L 298.570312 39.472656 C 295.894531 41.269531 272.308594 57.863281 267.597656 85.667969 C 264.8125 102.058594 269.273438 118.691406 280.5 133.75 C 286.292969 141.527344 287.316406 148.613281 283.816406 156.722656 C 280.527344 164.378906 256.390625 190.808594 252.246094 191.757812 C 244.078125 193.628906 236.316406 195.738281 229.046875 198.070312 C 200.464844 207.242188 180.273438 219.65625 169.472656 234.535156 C 168.734375 235.550781 167.574219 236.179688 166.316406 236.179688 L 156.234375 236.179688 C 132.238281 236.179688 110.613281 248.894531 98.402344 270.1875 C 86.429688 291.082031 85.789062 316.421875 96.695312 337.980469 C 107.125 358.574219 124.738281 382.328125 153.902344 397.792969 C 156.574219 399.210938 156.59375 403.027344 153.972656 404.523438 C 123.675781 421.824219 115.898438 441.339844 115.898438 456.816406 C 115.898438 476.855469 129.1875 505.046875 192.535156 525.488281 C 234.960938 539.164062 291.804688 546.699219 352.609375 546.699219 C 413.421875 546.699219 470.269531 539.164062 512.683594 525.488281 C 576.027344 505.046875 589.328125 476.855469 589.328125 456.816406 C 589.328125 437.378906 577.058594 411.5625 523.3125 391.789062 Z M 399.1875 89.007812 C 402.570312 69.101562 420.851562 56.558594 421.625 56.023438 L 423.117188 58.234375 L 424.605469 60.445312 C 424.433594 60.566406 407.402344 72.296875 404.433594 89.929688 C 402.820312 99.476562 405.605469 109.128906 412.6875 118.636719 C 440.375 155.777344 403.449219 188.496094 403.0625 188.8125 L 399.574219 184.792969 C 400.957031 183.59375 433.117188 154.964844 408.414062 121.820312 C 400.425781 111.085938 397.308594 100.046875 399.1875 89.007812 Z M 343.230469 89.007812 C 346.613281 69.101562 364.898438 56.558594 365.667969 56.023438 L 368.652344 60.445312 C 368.492188 60.566406 351.460938 72.296875 348.480469 89.929688 C 346.878906 99.476562 349.652344 109.128906 356.734375 118.636719 C 384.417969 155.777344 347.492188 188.496094 347.121094 188.8125 L 343.632812 184.792969 C 345.003906 183.59375 377.175781 154.964844 352.460938 121.820312 C 344.46875 111.085938 341.367188 100.046875 343.230469 89.007812 Z M 287.289062 89.007812 C 290.660156 69.101562 308.941406 56.558594 309.730469 56.023438 L 311.21875 58.234375 L 312.710938 60.445312 C 312.417969 60.632812 295.492188 72.351562 292.539062 89.929688 C 290.925781 99.476562 293.695312 109.128906 300.792969 118.636719 C 328.476562 155.777344 291.539062 188.496094 291.164062 188.8125 L 287.675781 184.792969 C 289.0625 183.59375 321.21875 154.964844 296.519531 121.820312 C 288.515625 111.085938 285.414062 100.046875 287.289062 89.007812 Z M 352.605469 526.726562 C 231.070312 526.726562 135.871094 496.019531 135.871094 456.816406 C 135.871094 434.457031 166.820312 414.882812 215.941406 402.164062 C 214.011719 399.355469 212.175781 396.519531 210.441406 393.628906 C 156.125 388.570312 128.390625 356.359375 114.527344 328.953125 C 106.65625 313.425781 107.109375 295.171875 115.726562 280.121094 C 124.339844 265.117188 139.480469 256.152344 156.234375 256.152344 L 180.933594 256.152344 C 188.21875 225.035156 260.992188 201.359375 352.605469 201.359375 C 449.121094 201.359375 524.746094 227.644531 524.890625 261.199219 C 525.132812 264.621094 529.871094 343.441406 489.269531 402.164062 C 538.394531 414.882812 569.355469 434.457031 569.355469 456.816406 C 569.355469 496.019531 474.144531 526.726562 352.605469 526.726562 Z M 352.605469 526.726562 " fill-opacity="1" fill-rule="nonzero"/></g><path fill="#f7ce4d" d="M 564.023438 456.8125 C 564.023438 473.273438 541.847656 489.679688 503.183594 501.824219 C 463.003906 514.449219 409.527344 521.398438 352.609375 521.398438 C 295.691406 521.398438 242.214844 514.449219 202.035156 501.824219 C 163.371094 489.679688 141.195312 473.273438 141.195312 456.8125 C 141.195312 440.351562 163.371094 423.945312 202.035156 411.796875 C 207.5625 410.0625 213.351562 408.4375 219.359375 406.917969 C 222.386719 410.960938 225.640625 414.894531 229.152344 418.683594 C 231.242188 420.9375 233.398438 423.109375 235.609375 425.207031 C 220.121094 431.390625 210.125 438.875 208.046875 447.101562 C 201.902344 471.445312 266.40625 492.757812 352.609375 492.757812 C 438.816406 492.757812 503.320312 471.445312 497.171875 447.101562 C 495.097656 438.875 485.101562 431.390625 469.613281 425.203125 C 471.824219 423.105469 473.980469 420.9375 476.070312 418.679688 C 479.578125 414.894531 482.832031 410.960938 485.863281 406.914062 C 491.871094 408.433594 497.660156 410.058594 503.1875 411.796875 C 541.847656 423.945312 564.023438 440.351562 564.023438 456.8125 Z M 207.15625 387.9375 C 202.03125 378.625 197.855469 369.027344 194.464844 359.46875 C 170.449219 352.828125 152.386719 337.769531 140.574219 314.445312 C 136.300781 306.007812 139.457031 298.785156 141.011719 296.074219 C 141.507812 295.203125 142.332031 293.957031 143.511719 292.671875 C 137.246094 293.785156 132.074219 298.453125 130.449219 304.78125 L 125.289062 303.457031 C 127.765625 293.820312 136.445312 287.089844 146.394531 287.089844 L 180.484375 287.089844 C 179.695312 273.058594 180.183594 263.464844 180.308594 261.472656 L 156.234375 261.472656 C 141.414062 261.472656 128 269.4375 120.351562 282.777344 C 112.625 296.257812 112.222656 312.621094 119.273438 326.550781 C 132.191406 352.0625 157.707031 381.960938 207.15625 387.9375 Z M 233.078125 415.085938 C 179.046875 356.773438 185.574219 262.445312 185.644531 261.5 C 185.652344 261.429688 185.652344 261.363281 185.652344 261.296875 C 185.652344 231.695312 262.113281 206.683594 352.609375 206.683594 C 443.109375 206.683594 519.566406 231.691406 519.566406 261.296875 C 519.566406 261.363281 519.570312 261.429688 519.574219 261.5 C 519.648438 262.445312 526.171875 356.773438 472.140625 415.085938 C 443.707031 445.777344 403.492188 461.335938 352.609375 461.335938 C 301.730469 461.335938 261.515625 445.777344 233.078125 415.085938 Z M 216.160156 275.578125 C 235.386719 293.417969 290.222656 305.402344 352.609375 305.402344 C 415 305.402344 469.835938 293.417969 489.054688 275.582031 C 494.058594 270.96875 496.597656 266.023438 496.597656 260.875 C 496.597656 248.414062 481.21875 236.996094 453.296875 228.722656 C 426.363281 220.746094 390.605469 216.351562 352.609375 216.351562 C 314.617188 216.351562 278.859375 220.746094 251.925781 228.722656 C 224 236.996094 208.625 248.414062 208.625 260.875 C 208.625 266.023438 211.160156 270.96875 216.160156 275.578125 Z M 215.371094 309.507812 C 224.398438 350.175781 250.835938 420.824219 326.460938 437.066406 L 327.578125 431.859375 C 254.859375 416.238281 229.320312 347.773438 220.570312 308.351562 Z M 352.609375 241.84375 C 413.003906 241.84375 466.320312 253.078125 487.109375 269.980469 C 489.859375 266.960938 491.269531 263.90625 491.269531 260.875 C 491.269531 241.945312 435.550781 221.675781 352.609375 221.675781 C 269.667969 221.675781 213.949219 241.945312 213.949219 260.875 C 213.949219 263.910156 215.359375 266.960938 218.113281 269.980469 C 238.898438 253.078125 292.214844 241.84375 352.609375 241.84375 Z M 352.609375 241.84375 " fill-opacity="1" fill-rule="nonzero"/><path fill="#000000" d="M 483.117188 273.625 C 463.074219 289.296875 410.417969 300.074219 352.609375 300.074219 C 346.96875 300.074219 341.375 299.972656 335.855469 299.773438 C 333.914062 299.703125 331.988281 299.617188 330.066406 299.527344 C 281.480469 297.148438 239.511719 287.230469 222.101562 273.625 C 242.144531 257.953125 294.800781 247.171875 352.609375 247.171875 C 410.417969 247.171875 463.074219 257.953125 483.117188 273.625 Z M 483.117188 273.625 " fill-opacity="1" fill-rule="nonzero"/><path fill="#2e2301" d="M 489.269531 402.164062 C 529.871094 343.441406 525.132812 264.621094 524.890625 261.199219 C 524.746094 227.644531 449.121094 201.359375 352.605469 201.359375 C 260.992188 201.359375 188.21875 225.035156 180.933594 256.152344 L 156.234375 256.152344 C 139.484375 256.152344 124.34375 265.117188 115.726562 280.121094 C 107.109375 295.171875 106.660156 313.425781 114.527344 328.953125 C 128.390625 356.359375 156.128906 388.570312 210.445312 393.628906 C 212.175781 396.519531 214.011719 399.355469 215.945312 402.164062 C 166.820312 414.882812 135.875 434.457031 135.875 456.816406 C 135.875 496.019531 231.070312 526.726562 352.609375 526.726562 C 474.144531 526.726562 569.355469 496.019531 569.355469 456.816406 C 569.355469 434.457031 538.394531 414.882812 489.269531 402.164062 Z M 192.359375 353.242188 C 171.558594 346.503906 155.808594 332.734375 145.328125 312.042969 C 142.222656 305.917969 144.5 300.683594 145.632812 298.726562 C 146.726562 296.820312 149.933594 292.414062 156.234375 292.414062 L 180.828125 292.414062 C 182.078125 309.152344 185.167969 330.871094 192.359375 353.242188 Z M 119.269531 326.554688 C 112.222656 312.628906 112.625 296.261719 120.347656 282.773438 C 128.003906 269.441406 141.414062 261.480469 156.234375 261.480469 L 180.308594 261.480469 C 180.191406 263.464844 179.699219 273.066406 180.484375 287.085938 L 146.394531 287.085938 C 136.445312 287.085938 127.765625 293.824219 125.289062 303.453125 L 130.453125 304.785156 C 132.078125 298.445312 137.246094 293.785156 143.515625 292.667969 C 142.332031 293.957031 141.507812 295.195312 141.015625 296.074219 C 139.457031 298.777344 136.300781 306.007812 140.574219 314.4375 C 152.386719 337.769531 170.457031 352.828125 194.464844 359.472656 C 197.859375 369.023438 202.027344 378.621094 207.15625 387.929688 C 157.710938 381.964844 132.183594 352.070312 119.269531 326.554688 Z M 185.648438 261.492188 L 185.648438 261.292969 C 185.648438 231.691406 262.109375 206.683594 352.605469 206.683594 C 443.101562 206.683594 519.566406 231.691406 519.566406 261.292969 C 519.566406 261.359375 519.566406 261.425781 519.578125 261.492188 C 519.644531 262.4375 526.167969 356.769531 472.144531 415.082031 C 443.703125 445.777344 403.488281 461.34375 352.605469 461.34375 C 301.726562 461.34375 261.511719 445.777344 233.082031 415.082031 C 179.042969 356.769531 185.570312 262.4375 185.648438 261.492188 Z M 503.1875 501.824219 C 462.996094 514.449219 409.535156 521.398438 352.605469 521.398438 C 295.695312 521.398438 242.214844 514.449219 202.027344 501.824219 C 163.371094 489.679688 141.199219 473.273438 141.199219 456.816406 C 141.199219 440.355469 163.371094 423.949219 202.027344 411.792969 C 207.566406 410.0625 213.347656 408.4375 219.351562 406.917969 C 222.386719 410.96875 225.636719 414.894531 229.152344 418.675781 C 231.242188 420.941406 233.398438 423.113281 235.609375 425.203125 C 220.125 431.394531 210.125 438.878906 208.046875 447.109375 C 201.894531 471.449219 266.398438 492.753906 352.605469 492.753906 C 438.816406 492.753906 503.320312 471.449219 497.167969 447.109375 C 495.089844 438.878906 485.101562 431.394531 469.617188 425.203125 C 471.828125 423.113281 473.984375 420.941406 476.074219 418.675781 C 479.578125 414.894531 482.824219 410.96875 485.863281 406.917969 C 491.867188 408.4375 497.660156 410.0625 503.1875 411.792969 C 541.84375 423.949219 564.027344 440.355469 564.027344 456.816406 C 564.027344 473.273438 541.84375 489.679688 503.1875 501.824219 Z M 215.371094 309.507812 L 220.570312 308.355469 C 229.320312 347.777344 254.859375 416.238281 327.578125 431.859375 L 326.460938 437.070312 C 250.835938 420.820312 224.398438 350.175781 215.371094 309.507812 Z M 352.609375 305.402344 C 415 305.402344 469.832031 293.417969 489.054688 275.582031 C 494.058594 270.96875 496.597656 266.023438 496.597656 260.875 C 496.597656 248.414062 481.21875 236.996094 453.296875 228.722656 C 426.359375 220.746094 390.601562 216.351562 352.609375 216.351562 C 314.617188 216.351562 278.855469 220.746094 251.921875 228.722656 C 224 236.996094 208.621094 248.414062 208.621094 260.875 C 208.621094 266.023438 211.160156 270.96875 216.15625 275.578125 C 235.386719 293.417969 290.222656 305.402344 352.609375 305.402344 Z M 352.609375 300.074219 C 346.96875 300.074219 341.375 299.972656 335.855469 299.773438 C 333.914062 299.703125 331.988281 299.617188 330.066406 299.527344 C 281.480469 297.148438 239.511719 287.230469 222.101562 273.625 C 242.144531 257.953125 294.800781 247.171875 352.609375 247.171875 C 410.417969 247.171875 463.074219 257.953125 483.117188 273.625 C 463.074219 289.296875 410.417969 300.074219 352.609375 300.074219 Z M 213.949219 260.875 C 213.949219 241.945312 269.667969 221.675781 352.609375 221.675781 C 435.554688 221.675781 491.269531 241.945312 491.269531 260.875 C 491.269531 263.90625 489.863281 266.960938 487.109375 269.980469 C 466.320312 253.078125 413.003906 241.84375 352.609375 241.84375 C 292.214844 241.84375 238.898438 253.078125 218.113281 269.980469 C 215.359375 266.960938 213.949219 263.90625 213.949219 260.875 Z M 296.519531 121.820312 C 288.515625 111.085938 285.414062 100.046875 287.289062 89.007812 C 290.660156 69.101562 308.941406 56.558594 309.730469 56.023438 L 311.21875 58.234375 L 312.710938 60.445312 C 312.417969 60.632812 295.492188 72.351562 292.539062 89.929688 C 290.925781 99.476562 293.695312 109.128906 300.792969 118.636719 C 328.476562 155.777344 291.539062 188.496094 291.164062 188.8125 L 287.675781 184.792969 C 289.0625 183.59375 321.21875 154.964844 296.519531 121.820312 Z M 352.460938 121.820312 C 344.46875 111.085938 341.367188 100.046875 343.230469 89.007812 C 346.613281 69.101562 364.898438 56.558594 365.667969 56.023438 L 368.652344 60.445312 C 368.492188 60.566406 351.460938 72.296875 348.480469 89.929688 C 346.878906 99.476562 349.652344 109.128906 356.734375 118.636719 C 384.417969 155.777344 347.492188 188.496094 347.121094 188.8125 L 343.632812 184.792969 C 345.003906 183.59375 377.175781 154.964844 352.460938 121.820312 Z M 408.414062 121.820312 C 400.425781 111.085938 397.308594 100.046875 399.1875 89.007812 C 402.570312 69.101562 420.851562 56.558594 421.625 56.023438 L 423.117188 58.234375 L 424.605469 60.445312 C 424.433594 60.566406 407.402344 72.296875 404.433594 89.929688 C 402.820312 99.476562 405.605469 109.128906 412.6875 118.636719 C 440.375 155.777344 403.449219 188.496094 403.0625 188.8125 L 399.574219 184.792969 C 400.957031 183.59375 433.117188 154.964844 408.414062 121.820312 Z M 408.414062 121.820312 " fill-opacity="1" fill-rule="nonzero"/></svg>