<svg xmlns="http://www.w3.org/2000/svg" xmlns:xlink="http://www.w3.org/1999/xlink" width="600" zoomAndPan="magnify" viewBox="0 0 675 576" height="350" preserveAspectRatio="xMidYMid meet" version="1.0"><defs><clipPath id="1cf32a83ab"><path d="M 0 49.296875 L 675 49.296875 L 675 527.046875 L 0 527.046875 Z M 0 49.296875 " clip-rule="nonzero"/></clipPath></defs><path fill="#ffffff" d="M 365.871094 84.023438 L 111.851562 84.023438 L 111.851562 51.316406 L 365.871094 51.316406 Z M 297.773438 313.261719 L 342.925781 312.828125 L 342.957031 312.398438 L 365.855469 312.398438 L 365.855469 249.308594 C 372.910156 247.351562 380.355469 245.191406 385.070312 243.558594 C 396.257812 239.6875 397.535156 231.082031 395.828125 222.476562 C 394.101562 213.871094 373.464844 209.136719 373.464844 209.136719 C 373.464844 209.136719 390.664062 200.53125 388.953125 196.230469 C 387.226562 191.925781 376.917969 194.5 369.167969 197.957031 C 368.105469 198.433594 366.996094 198.941406 365.871094 199.484375 L 365.871094 86.320312 L 110.710938 86.320312 L 110.710938 312.398438 L 298.019531 312.398438 C 297.867188 312.96875 297.773438 313.261719 297.773438 313.261719 Z M 505.191406 103.792969 L 505.191406 103.144531 C 505.191406 88.078125 492.984375 75.867188 477.929688 75.867188 L 416.476562 75.867188 C 401.421875 75.867188 389.214844 88.078125 389.214844 103.144531 L 389.214844 103.792969 C 389.214844 116.964844 398.539062 127.945312 410.929688 130.503906 L 401.4375 147.144531 L 432.59375 131.074219 L 477.945312 131.074219 C 492.984375 131.074219 505.191406 118.859375 505.191406 103.792969 Z M 22.984375 426.882812 C 22.984375 426.882812 26.714844 409.105469 42.476562 408.519531 C 58.242188 407.949219 141.671875 409.382812 141.671875 409.382812 L 146.832031 416.84375 L 119.710938 417.046875 C 131.949219 417.460938 141.671875 417.988281 141.671875 417.988281 C 141.671875 417.988281 137.941406 430.617188 142.8125 436.921875 L 110.773438 437.816406 C 129.097656 437.726562 147.679688 437.496094 147.679688 437.496094 C 147.679688 437.496094 151.980469 443.230469 142.8125 444.957031 C 133.640625 446.683594 40.75 447.535156 40.75 447.535156 C 40.75 447.535156 24.125 446.390625 22.984375 426.882812 Z M 66.039062 435.519531 C 64.636719 434.085938 63.417969 432.113281 63.003906 429.460938 C 63.3125 432.359375 63.972656 434.257812 66.039062 435.519531 Z M 72.003906 417.414062 C 72.003906 417.414062 68.71875 418 66.070312 420.128906 C 67.78125 419.003906 70.308594 418.015625 74.007812 417.414062 C 74.035156 417.414062 74.082031 417.402344 74.128906 417.402344 Z M 119.882812 476.804688 C 119.882812 476.804688 131.347656 472.792969 129.050781 464.171875 C 126.753906 455.566406 117.863281 455.566406 117.863281 455.566406 L 49.335938 456.136719 C 49.335938 456.136719 52.492188 467.335938 49.628906 476.21875 Z M 150.839844 506.644531 C 150.839844 518.410156 139.375 524.144531 139.375 524.144531 L 31.859375 524.71875 L 26.128906 515.820312 L 39.796875 515.820312 L 33.292969 514.089844 C 38.734375 507.785156 33.585938 494.863281 33.585938 494.863281 L 102.113281 495.15625 L 27.578125 494.289062 C 27.578125 494.289062 29.578125 486.257812 39.613281 485.394531 C 49.644531 484.527344 138.527344 487.121094 138.527344 487.121094 C 138.527344 487.121094 150.839844 494.875 150.839844 506.644531 Z M 111.082031 499.640625 C 111.699219 500.738281 112.175781 502.078125 112.421875 503.773438 C 112.316406 502.078125 111.808594 500.738281 111.082031 499.640625 Z M 374.3125 393.3125 L 340.335938 426.453125 L 357.179688 467.78125 C 349.148438 448.90625 336.035156 418.574219 336.035156 418.574219 C 336.035156 418.574219 335.464844 415.703125 321.132812 415.703125 C 306.804688 415.703125 192.691406 416.84375 192.691406 416.84375 C 192.691406 416.84375 182.9375 417.414062 185.234375 428.320312 L 216.191406 506.9375 L 223.082031 509.234375 C 223.082031 509.234375 223.652344 522.433594 227.671875 524.144531 C 231.679688 525.875 405.996094 524.71875 405.996094 524.71875 C 405.996094 524.71875 411.160156 519.550781 411.730469 512.085938 C 412.300781 504.621094 408.863281 502.324219 408.863281 502.324219 L 368.71875 502.894531 C 368.71875 502.894531 365.855469 489.125 362.988281 481.660156 C 362.847656 481.273438 362.632812 480.75 362.371094 480.132812 L 413.441406 432.46875 C 409.15625 410.523438 374.3125 393.3125 374.3125 393.3125 Z M 611.703125 423.015625 C 611.703125 423.015625 594.507812 419.144531 579.449219 421.71875 C 564.394531 424.292969 552.359375 441.085938 552.359375 441.085938 L 566.121094 477.234375 C 566.121094 477.234375 520.96875 478.097656 509.78125 474.660156 C 498.59375 471.21875 492.585938 452.285156 485.265625 444.542969 C 477.945312 436.800781 468.066406 443.246094 458.175781 448.84375 C 448.28125 454.441406 448.714844 469.507812 448.714844 469.507812 L 457.742188 463.910156 C 464.632812 453.148438 472.367188 457.019531 472.367188 457.019531 C 463.769531 460.457031 463.335938 471.652344 463.335938 471.652344 C 463.335938 471.652344 465.496094 487.582031 473.660156 489.726562 C 481.828125 491.886719 485.695312 498.332031 485.695312 498.332031 C 487.855469 508.664062 505.484375 510.808594 505.484375 510.808594 C 505.484375 510.808594 565.691406 521.570312 593.644531 521.140625 C 621.597656 520.707031 628.054688 504.792969 628.054688 491.019531 C 628.054688 477.234375 611.703125 423.015625 611.703125 423.015625 Z M 477.097656 306.816406 C 477.097656 306.816406 482.261719 322.746094 480.964844 330.917969 C 479.671875 339.089844 473.660156 339.953125 473.660156 339.953125 L 459.039062 340.386719 C 459.039062 340.386719 459.902344 354.15625 482.691406 355.453125 C 505.484375 356.75 518.382812 347.28125 528.707031 340.386719 C 528.707031 340.386719 514.082031 340.386719 511.507812 332.214844 C 508.933594 324.039062 503.339844 308.972656 507.210938 301.664062 C 507.210938 301.664062 508.070312 299.503906 513.664062 298.65625 C 519.257812 297.792969 525.269531 295.21875 525.269531 287.042969 C 525.269531 278.871094 519.675781 273.707031 505.050781 286.613281 L 514.082031 246.59375 C 514.082031 246.59375 511.078125 233.6875 462.472656 235.398438 C 462.472656 235.398438 446.988281 263.804688 447.851562 277.574219 C 448.714844 291.316406 453.011719 305.085938 477.097656 306.816406 Z M 477.097656 306.816406 " fill-opacity="1" fill-rule="evenodd"/><path fill="#f7ce4d" d="M 187.113281 68.542969 C 187.113281 72.101562 184.234375 75.003906 180.65625 75.003906 C 177.097656 75.003906 174.203125 72.117188 174.203125 68.542969 C 174.203125 64.964844 177.082031 62.078125 180.65625 62.078125 C 184.21875 62.078125 187.113281 64.964844 187.113281 68.542969 Z M 159.730469 61.941406 C 156.171875 61.941406 153.273438 64.824219 153.273438 68.402344 C 153.273438 71.980469 156.15625 74.863281 159.730469 74.863281 C 163.292969 74.863281 166.1875 71.980469 166.1875 68.402344 C 166.1875 64.824219 163.292969 61.941406 159.730469 61.941406 Z M 139.515625 61.941406 C 135.953125 61.941406 133.058594 64.824219 133.058594 68.402344 C 133.058594 71.980469 135.9375 74.863281 139.515625 74.863281 C 143.074219 74.863281 145.96875 71.980469 145.96875 68.402344 C 145.96875 64.824219 143.074219 61.941406 139.515625 61.941406 Z M 157.003906 222.460938 C 147.25 236.664062 128.910156 311.257812 128.910156 311.257812 L 153.859375 310.964844 C 153.859375 310.964844 205.328125 261.042969 212.0625 257.453125 C 218.796875 253.859375 234.285156 256.585938 237.722656 257.3125 C 241.15625 258.039062 253.484375 253.441406 253.484375 253.441406 C 253.484375 253.441406 256.488281 255.167969 255.78125 260.042969 C 255.058594 264.914062 241.882812 268.078125 241.882812 268.078125 L 265.96875 280.707031 C 265.96875 280.707031 272.425781 289.449219 270.128906 292.472656 C 267.832031 295.480469 259.957031 292.179688 259.957031 292.179688 C 259.957031 292.179688 254.796875 298.210938 244.039062 302.945312 C 233.28125 307.679688 217.8125 305.101562 217.8125 305.101562 L 211.355469 311.566406 L 297.789062 313.292969 L 321.875 231.960938 L 305.539062 215.183594 L 302.101562 247.890625 L 277.585938 248.320312 L 270.28125 221.210938 L 252.652344 219.917969 L 256.089844 237.125 C 243.621094 239.703125 225.132812 234.117188 225.132812 234.117188 L 220.832031 213.886719 C 203.632812 212.160156 186.003906 195.382812 186.003906 195.382812 C 177.066406 198.648438 157.003906 222.460938 157.003906 222.460938 Z M 74.808594 362.332031 C 61.632812 362.332031 50.9375 372.539062 50.9375 385.140625 C 50.9375 397.738281 61.617188 407.945312 74.808594 407.945312 C 88 407.945312 98.675781 397.738281 98.675781 385.140625 C 98.660156 372.539062 87.984375 362.332031 74.808594 362.332031 Z M 59.105469 359.308594 C 47.070312 345.105469 27.285156 354.574219 27.285156 354.574219 C 41.476562 371.367188 59.105469 359.308594 59.105469 359.308594 Z M 48.488281 446.390625 C 48.488281 446.390625 45.621094 452.421875 45.328125 454.996094 L 121.300781 456.429688 C 121.300781 456.429688 129.621094 462.167969 128.757812 468.769531 C 127.894531 475.367188 122.730469 477.667969 114.132812 477.375 C 105.535156 477.082031 43.894531 476.511719 43.894531 476.511719 C 43.894531 476.511719 45.898438 485.6875 52.785156 485.980469 C 59.675781 486.273438 148.25 485.40625 148.25 485.40625 C 148.25 485.40625 170.039062 482.539062 167.746094 465.605469 C 165.449219 448.675781 147.386719 447.242188 147.386719 447.242188 Z M 374.3125 393.3125 C 374.3125 393.3125 407 406.21875 413.457031 432.484375 L 426.351562 423.878906 L 434.089844 483.695312 L 448.714844 469.492188 C 448.714844 469.492188 446.554688 456.585938 455.601562 450.988281 C 464.632812 445.390625 475.820312 442.382812 475.820312 442.382812 L 488.71875 429.042969 L 496.453125 433.777344 L 485.265625 444.542969 C 485.265625 444.542969 496.867188 470.355469 509.78125 474.660156 C 522.679688 478.960938 566.121094 477.234375 566.121094 477.234375 L 552.359375 441.085938 C 552.359375 441.085938 573.007812 412.679688 611.703125 423.015625 C 611.703125 423.015625 594.507812 370.503906 583.320312 360.1875 C 572.132812 349.871094 553.640625 342.546875 543.761719 341.25 C 533.882812 339.953125 528.707031 340.386719 528.707031 340.386719 C 528.707031 340.386719 510.214844 360.1875 482.691406 355.453125 C 455.167969 350.71875 459.039062 340.386719 459.039062 340.386719 C 459.039062 340.386719 419.050781 327.480469 371.308594 395.039062 M 434.519531 497.46875 L 437.957031 525.011719 L 572.132812 524.144531 L 566.105469 519.410156 L 510.199219 512.519531 C 510.199219 512.519531 488.703125 510.359375 485.679688 498.316406 L 473.644531 489.710938 L 465.480469 481.105469 L 463.320312 471.636719 Z M 434.519531 497.46875 " fill-opacity="1" fill-rule="evenodd"/><path fill="#000000" d="M 311.101562 118.738281 C 317.558594 142.839844 302.074219 247.84375 302.074219 247.84375 L 277.554688 248.277344 L 266.367188 203.089844 L 253.46875 195.78125 L 259.0625 177.277344 C 259.0625 177.277344 274.980469 181.148438 284.011719 173.835938 C 293.042969 166.527344 297.773438 157.058594 299.5 147.160156 C 301.226562 137.257812 297.34375 129.085938 297.34375 129.085938 L 247.027344 138.554688 C 247.027344 138.554688 234.128906 126.507812 230.695312 135.546875 C 227.257812 144.582031 241.449219 153.621094 241.449219 153.621094 L 256.074219 237.109375 C 256.074219 237.109375 237.152344 243.570312 225.117188 234.105469 L 217.550781 193.746094 C 216.761719 189.519531 212.527344 186.882812 208.394531 188.039062 L 189.84375 193.207031 C 189.84375 193.207031 222.09375 104.980469 231.125 95.082031 C 240.15625 85.179688 244.453125 77.4375 256.503906 78.734375 C 268.523438 80.015625 304.660156 94.648438 311.101562 118.738281 Z M 462.042969 459.160156 C 456.449219 464.757812 448.714844 469.492188 448.714844 469.492188 L 427.648438 493.164062 L 424.644531 501.339844 L 431.53125 501.339844 L 463.351562 471.636719 L 472.382812 457.003906 C 472.367188 457.003906 467.636719 453.5625 462.042969 459.160156 Z M 475.804688 442.367188 L 485.265625 444.527344 L 496.453125 433.761719 L 488.71875 429.027344 Z M 519.246094 218.15625 C 499.027344 203.957031 477.097656 203.089844 470.226562 206.113281 C 463.335938 209.121094 465.0625 213.855469 462.921875 218.15625 C 460.765625 222.460938 458.621094 218.15625 453.460938 225.050781 C 448.296875 231.945312 456.03125 241.828125 456.03125 241.828125 L 462.488281 235.367188 C 462.488281 235.367188 500.769531 236.230469 508.933594 239.671875 C 517.101562 243.109375 512.804688 250.867188 512.804688 250.867188 L 505.066406 286.582031 C 516.253906 276.683594 523.992188 280.121094 523.992188 280.121094 C 523.992188 280.121094 527.859375 275.816406 535.179688 264.621094 C 542.496094 253.425781 539.460938 232.359375 519.246094 218.15625 Z M 519.246094 218.15625 " fill-opacity="1" fill-rule="evenodd"/><g clip-path="url(#1cf32a83ab)"><path fill="#000000" d="M 672.632812 522.402344 L 603.273438 522.402344 C 613.027344 520.691406 620.179688 516.730469 624.585938 510.574219 C 630.378906 502.496094 631.445312 490.992188 627.851562 475.414062 C 622.089844 450.433594 601.070312 374.667969 580.761719 354.929688 C 567.199219 341.742188 545.394531 339.601562 530.972656 338.179688 C 524.839844 337.582031 517.871094 336.902344 516.65625 335.527344 C 512.910156 331.367188 506.039062 308.003906 509.550781 301.757812 C 509.953125 301.03125 510.429688 300.660156 511.648438 300.894531 C 517.796875 302.050781 523.144531 299.164062 525.609375 293.320312 C 527.378906 289.125 527.210938 284.578125 525.421875 281.460938 C 530.140625 278.332031 539.183594 269.710938 539.183594 249.539062 C 539.183594 239.964844 534.300781 230.308594 525.070312 221.628906 C 512.078125 209.414062 492.554688 201.179688 478.671875 202.058594 C 474.09375 202.351562 464.570312 202.9375 462.074219 210.957031 C 461.550781 212.636719 461.472656 214.179688 461.394531 215.535156 C 461.257812 218.328125 461.226562 218.992188 458.28125 219.636719 C 453.429688 220.71875 451.363281 223.449219 450.484375 225.558594 C 447.851562 231.835938 452.011719 240.289062 454.429688 244.375 C 450.808594 251.777344 446.785156 262.078125 445.554688 273.121094 C 444.398438 283.574219 446.417969 292.054688 451.5625 298.332031 C 456.632812 304.5 464.429688 308.21875 474.769531 309.390625 C 478.160156 320.585938 480.226562 333.554688 477.761719 336.023438 C 475.710938 338.074219 473 337.902344 467.097656 337.316406 C 462.503906 336.855469 456.804688 336.300781 449.34375 337.070312 C 432.808594 338.78125 414.363281 343.085938 387.058594 374.574219 C 364.328125 400.777344 345.683594 419.480469 341.199219 423.921875 L 339.6875 420.207031 C 337.917969 415.8125 333.710938 412.988281 328.976562 412.988281 C 328.964844 412.988281 328.933594 412.988281 328.917969 412.988281 L 193.832031 413.746094 C 190.027344 413.761719 186.46875 415.65625 184.324219 418.820312 C 182.183594 421.980469 181.738281 425.976562 183.125 429.523438 L 212.046875 503.605469 C 213.511719 507.335938 216.703125 509.941406 220.507812 510.714844 L 220.507812 513.398438 C 220.507812 516.898438 221.894531 520.074219 224.144531 522.417969 L 144.476562 522.417969 C 149.730469 518.53125 153.167969 512.316406 153.167969 505.285156 C 153.167969 497.914062 149.40625 491.40625 143.707031 487.582031 L 148.496094 487.582031 C 160.238281 487.582031 169.792969 478.019531 169.792969 466.269531 C 169.792969 454.519531 160.238281 444.957031 148.496094 444.957031 L 147.15625 444.957031 C 148.757812 443 149.730469 440.484375 149.730469 437.757812 C 149.730469 436.476562 148.699219 435.441406 147.417969 435.441406 L 143.78125 435.441406 C 142.996094 433.667969 141.980469 431.046875 141.5 428.566406 C 141.007812 425.945312 142.519531 421.933594 143.582031 419.621094 L 146.816406 419.621094 C 148.097656 419.621094 149.128906 418.585938 149.128906 417.308594 C 149.128906 411.355469 144.289062 406.511719 138.34375 406.511719 L 88.660156 406.511719 C 96.441406 402.304688 101.699219 394.5 101.699219 385.585938 C 101.699219 372.214844 89.925781 361.328125 75.4375 361.328125 C 74.699219 361.328125 73.976562 361.375 73.25 361.4375 C 71.539062 358.136719 66.996094 353.277344 65.5 351.722656 C 64.605469 350.796875 63.15625 350.765625 62.234375 351.660156 C 61.308594 352.539062 61.277344 354.003906 62.171875 354.929688 C 64.453125 357.304688 66.980469 360.265625 68.367188 362.269531 C 57.332031 365.136719 49.210938 374.5 49.210938 385.601562 C 49.210938 394.53125 54.464844 402.320312 62.25 406.527344 L 42.539062 406.527344 C 30.796875 406.527344 21.242188 416.089844 21.242188 427.839844 C 21.242188 439.589844 30.796875 449.152344 42.539062 449.152344 L 44.171875 449.152344 C 42.753906 450.988281 41.890625 453.269531 41.890625 455.769531 C 41.890625 457.046875 42.925781 458.082031 44.203125 458.082031 L 47.441406 458.082031 C 48.519531 460.394531 50.011719 464.417969 49.519531 467.027344 C 49.058594 469.507812 48.023438 472.144531 47.238281 473.902344 L 43.632812 473.902344 C 42.355469 473.902344 41.320312 474.9375 41.320312 476.21875 C 41.320312 479.222656 42.507812 481.953125 44.402344 483.988281 L 36.050781 483.988281 C 30.101562 483.988281 25.265625 488.832031 25.265625 494.785156 C 25.265625 496.0625 26.296875 497.097656 27.578125 497.097656 L 30.8125 497.097656 C 31.890625 499.410156 33.386719 503.4375 32.894531 506.042969 C 32.429688 508.523438 31.398438 511.160156 30.613281 512.917969 L 26.976562 512.917969 C 25.695312 512.917969 24.664062 513.953125 24.664062 515.234375 C 24.664062 517.960938 25.632812 520.460938 27.238281 522.433594 L 2.335938 522.433594 C 1.054688 522.433594 0.0234375 523.46875 0.0234375 524.746094 C 0.0234375 526.027344 1.054688 527.0625 2.335938 527.0625 L 672.632812 527.0625 C 673.914062 527.0625 674.945312 526.027344 674.945312 524.746094 C 674.945312 523.46875 673.898438 522.402344 672.632812 522.402344 Z M 53.820312 385.570312 C 53.820312 374.746094 63.527344 365.941406 75.4375 365.941406 C 87.367188 365.941406 97.074219 374.746094 97.074219 385.570312 C 97.074219 396.398438 87.367188 405.203125 75.4375 405.203125 C 63.511719 405.203125 53.820312 396.398438 53.820312 385.570312 Z M 165.15625 466.253906 C 165.15625 475.460938 157.683594 482.941406 148.480469 482.941406 L 52.679688 482.941406 C 49.765625 482.941406 47.285156 481.089844 46.34375 478.5 L 46.515625 478.5 C 46.945312 479.039062 47.59375 479.378906 48.300781 479.378906 L 118.832031 479.378906 C 125.984375 479.378906 131.808594 473.550781 131.808594 466.394531 C 131.808594 459.238281 125.984375 453.410156 118.832031 453.410156 L 46.976562 453.410156 C 47.886719 451.15625 50.105469 449.554688 52.679688 449.554688 L 127.816406 449.554688 C 127.894531 449.601562 127.957031 449.644531 128.035156 449.675781 C 128.496094 449.863281 139.222656 454.613281 134.550781 473.285156 C 134.242188 474.519531 135 475.785156 136.230469 476.09375 C 136.417969 476.140625 136.617188 476.15625 136.800781 476.15625 C 137.835938 476.15625 138.773438 475.445312 139.035156 474.398438 C 142.316406 461.273438 138.773438 453.65625 135.152344 449.554688 L 148.46875 449.554688 C 157.667969 449.570312 165.15625 457.046875 165.15625 466.253906 Z M 52.480469 458.050781 L 118.832031 458.050781 C 123.441406 458.050781 127.1875 461.796875 127.1875 466.410156 C 127.1875 471.019531 123.441406 474.765625 118.832031 474.765625 L 51.925781 474.765625 C 52.726562 472.839844 53.617188 470.328125 54.082031 467.859375 C 54.683594 464.636719 53.558594 460.78125 52.480469 458.050781 Z M 25.867188 427.808594 C 25.867188 418.601562 33.339844 411.125 42.539062 411.125 L 55.792969 411.125 C 55.269531 411.710938 54.757812 412.34375 54.265625 413.082031 C 51.617188 417.078125 49.058594 424.277344 51.96875 435.96875 C 52.230469 437.015625 53.171875 437.726562 54.203125 437.726562 C 54.390625 437.726562 54.574219 437.710938 54.773438 437.664062 C 56.007812 437.355469 56.761719 436.089844 56.453125 434.855469 C 51.800781 416.226562 62.480469 411.464844 62.972656 411.261719 C 63.050781 411.230469 63.125 411.1875 63.203125 411.140625 L 138.328125 411.140625 C 140.902344 411.140625 143.121094 412.726562 144.027344 414.996094 L 72.1875 414.996094 C 65.039062 414.996094 59.210938 420.824219 59.210938 427.980469 C 59.210938 435.136719 65.039062 440.964844 72.1875 440.964844 L 142.71875 440.964844 C 143.429688 440.964844 144.074219 440.625 144.507812 440.085938 L 144.675781 440.085938 C 143.734375 442.675781 141.253906 444.527344 138.34375 444.527344 L 42.539062 444.527344 C 33.355469 444.496094 25.867188 437 25.867188 427.808594 Z M 136.941406 429.398438 C 137.402344 431.867188 138.296875 434.378906 139.097656 436.308594 L 72.1875 436.308594 C 67.582031 436.308594 63.835938 432.558594 63.835938 427.949219 C 63.835938 423.335938 67.582031 419.589844 72.1875 419.589844 L 138.527344 419.589844 C 137.464844 422.335938 136.339844 426.191406 136.941406 429.398438 Z M 36.050781 488.585938 L 111.191406 488.585938 C 111.265625 488.632812 111.328125 488.675781 111.40625 488.707031 C 111.867188 488.894531 122.59375 493.644531 117.925781 512.300781 C 117.617188 513.535156 118.371094 514.800781 119.605469 515.109375 C 119.789062 515.15625 119.988281 515.171875 120.175781 515.171875 C 121.207031 515.171875 122.148438 514.460938 122.410156 513.414062 C 125.691406 500.289062 122.148438 492.671875 118.527344 488.570312 L 131.839844 488.570312 C 141.023438 488.570312 148.511719 496.046875 148.511719 505.253906 C 148.511719 514.445312 141.039062 521.941406 131.839844 521.941406 L 36.050781 521.941406 C 33.140625 521.941406 30.660156 520.089844 29.71875 517.5 L 29.886719 517.5 C 30.320312 518.039062 30.964844 518.378906 31.675781 518.378906 L 102.207031 518.378906 C 109.355469 518.378906 115.179688 512.550781 115.179688 505.394531 C 115.179688 498.238281 109.355469 492.410156 102.207031 492.410156 L 30.351562 492.410156 C 31.257812 490.171875 33.476562 488.585938 36.050781 488.585938 Z M 35.851562 497.066406 L 102.191406 497.066406 C 106.796875 497.066406 110.542969 500.8125 110.542969 505.425781 C 110.542969 510.035156 106.796875 513.785156 102.191406 513.785156 L 35.28125 513.785156 C 36.082031 511.855469 36.976562 509.34375 37.4375 506.875 C 38.054688 503.652344 36.929688 499.796875 35.851562 497.066406 Z M 440.316406 522.402344 L 437.710938 497.820312 L 462.105469 474.058594 C 462.074219 475.367188 462.105469 476.710938 462.179688 478.097656 C 462.75 488 474.617188 494.304688 481.644531 497.191406 C 482.570312 497.574219 483.292969 498.378906 483.664062 499.472656 C 488.101562 512.65625 502.09375 513.84375 506.269531 513.890625 C 507.5625 513.90625 508.734375 514.015625 509.875 514.230469 C 516.871094 515.527344 543.390625 520.289062 567.800781 522.417969 L 440.316406 522.417969 Z M 449.4375 472.5625 C 453.304688 473.070312 457.726562 467.535156 460.085938 464.050781 C 462.722656 460.164062 465.925781 458.714844 468.453125 458.21875 C 465.757812 460.828125 464.109375 463.726562 463.152344 466.902344 C 462.84375 467.011719 462.550781 467.164062 462.289062 467.410156 L 430.28125 498.609375 L 428.125 498.609375 L 429.542969 494.367188 Z M 620.828125 507.890625 C 616.589844 513.796875 609.054688 517.34375 598.421875 518.410156 C 573.179688 520.921875 520.925781 511.578125 510.707031 509.679688 C 509.304688 509.417969 507.871094 509.28125 506.316406 509.265625 C 501.9375 509.21875 491.414062 508.015625 488.039062 497.992188 C 487.886719 497.527344 487.683594 497.097656 487.453125 496.664062 C 490.644531 495.695312 495.390625 493.734375 497.421875 490.328125 C 498.085938 489.234375 497.730469 487.8125 496.636719 487.152344 C 495.542969 486.488281 494.125 486.84375 493.464844 487.9375 C 491.984375 490.421875 486.589844 492.285156 483.539062 492.886719 C 483.507812 492.886719 483.476562 492.902344 483.445312 492.917969 C 483.429688 492.917969 483.417969 492.902344 483.402344 492.886719 C 481.890625 492.269531 479.023438 490.992188 476.097656 489.1875 C 476.960938 486.902344 480.550781 478.746094 489.070312 474.242188 C 490.195312 473.640625 490.628906 472.253906 490.042969 471.113281 C 489.441406 469.988281 488.054688 469.539062 486.914062 470.140625 C 478.039062 474.8125 473.785156 482.742188 472.214844 486.425781 C 470.640625 485.128906 469.253906 483.679688 468.269531 482.109375 C 468.882812 479.917969 472.859375 467.425781 484.554688 464.375 C 485.789062 464.050781 486.527344 462.785156 486.207031 461.550781 C 485.882812 460.316406 484.617188 459.578125 483.386719 459.902344 C 474.648438 462.183594 469.546875 468.492188 466.726562 473.703125 C 467.003906 465.902344 469.996094 460.488281 480.582031 455.953125 C 481.753906 455.445312 482.292969 454.085938 481.796875 452.914062 C 481.289062 451.742188 479.933594 451.203125 478.761719 451.699219 C 477.128906 452.390625 475.664062 453.132812 474.324219 453.886719 C 474.109375 453.75 473.863281 453.625 473.585938 453.5625 C 473.152344 453.472656 463.074219 451.328125 456.25 461.414062 C 453.8125 465.019531 451.609375 467.027344 450.484375 467.6875 C 450.4375 467.367188 450.410156 466.902344 450.4375 466.238281 C 450.699219 459.101562 458.453125 447.8125 472.351562 445.191406 C 478.222656 444.078125 481.351562 444.605469 483.617188 446.625 C 483.695312 446.714844 483.722656 446.824219 483.816406 446.902344 C 483.894531 446.964844 483.972656 446.992188 484.0625 447.054688 C 485.679688 448.722656 486.898438 451.1875 488.5 454.488281 C 489.410156 456.355469 490.429688 458.453125 491.691406 460.6875 C 498.472656 472.777344 516.839844 485.59375 517.625 486.132812 C 518.027344 486.410156 518.488281 486.550781 518.9375 486.550781 C 519.660156 486.550781 520.382812 486.195312 520.832031 485.546875 C 521.554688 484.5 521.292969 483.046875 520.246094 482.324219 C 520.183594 482.277344 518.027344 480.78125 514.976562 478.375 L 575.351562 479.933594 C 575.367188 479.933594 575.398438 479.933594 575.414062 479.933594 C 576.660156 479.933594 577.695312 478.929688 577.726562 477.683594 C 577.753906 476.402344 576.753906 475.339844 575.476562 475.308594 L 567.539062 475.105469 C 567.539062 475.089844 567.539062 475.074219 567.523438 475.0625 L 554.917969 442.84375 C 555.011719 442.753906 555.101562 442.675781 555.179688 442.566406 C 556.027344 441.441406 576.382812 415.117188 608.683594 424.695312 C 615.816406 446.640625 621.257812 467.425781 623.324219 476.417969 C 626.636719 490.667969 625.804688 500.953125 620.828125 507.890625 Z M 485.234375 442.027344 C 484.21875 441.363281 483.0625 440.855469 481.722656 440.515625 L 489.917969 431.542969 L 492.707031 433.960938 Z M 454.753906 227.363281 C 455.433594 225.746094 456.925781 224.695312 459.300781 224.171875 C 465.664062 222.753906 465.878906 218.730469 466.019531 215.78125 C 466.082031 214.640625 466.140625 213.46875 466.480469 212.359375 C 467.773438 208.226562 472.398438 207.117188 478.960938 206.699219 C 491.476562 205.914062 509.953125 213.792969 521.910156 225.035156 C 527.6875 230.464844 534.5625 239.132812 534.5625 249.585938 C 534.5625 269.695312 524.882812 276.605469 521.863281 278.269531 C 517.625 276.480469 512.03125 278.996094 507.777344 281.695312 C 512.371094 266.441406 517.488281 246.238281 513.820312 242.046875 C 513.742188 241.953125 513.652344 241.859375 513.542969 241.785156 C 503.480469 233.488281 466.957031 232.191406 462.828125 232.066406 C 462.027344 232.023438 461.304688 232.421875 460.855469 233.070312 C 460.671875 233.332031 459.097656 235.660156 457.003906 239.4375 C 454.921875 235.230469 453.476562 230.402344 454.753906 227.363281 Z M 481.027344 339.292969 C 486.746094 333.570312 480.703125 312.78125 478.730469 306.539062 C 478.453125 305.644531 477.652344 305.011719 476.726562 304.933594 C 466.898438 304.085938 459.640625 300.878906 455.140625 295.402344 C 450.808594 290.128906 449.144531 282.804688 450.160156 273.644531 C 452.058594 256.558594 461.378906 240.84375 464 236.726562 C 475.558594 237.15625 502.769531 239.347656 510.351562 245.128906 C 511.894531 248.613281 506.886719 269.433594 501.277344 287.03125 C 500.96875 288.015625 501.339844 289.097656 502.199219 289.667969 C 503.0625 290.238281 504.203125 290.160156 504.988281 289.480469 C 509.535156 285.5625 517.609375 280.707031 520.507812 282.742188 C 522.417969 284.082031 522.804688 288.109375 521.355469 291.546875 C 520.601562 293.351562 518.195312 297.453125 512.511719 296.359375 C 509.472656 295.789062 506.992188 296.898438 505.53125 299.488281 C 500.566406 308.296875 508.78125 333.679688 513.234375 338.628906 C 514.960938 340.542969 518.488281 341.390625 523.605469 342.035156 C 519.089844 345.9375 508.070312 353.371094 488.71875 354.574219 C 468.390625 355.808594 462.90625 345.753906 461.503906 341.480469 C 463.367188 341.605469 465.078125 341.773438 466.648438 341.929688 C 472.613281 342.515625 477.34375 342.976562 481.027344 339.292969 Z M 449.824219 341.683594 C 452.304688 341.421875 454.570312 341.328125 456.679688 341.328125 C 457.113281 343.148438 458.34375 346.957031 461.671875 350.609375 C 465.371094 354.683594 472.429688 359.292969 485.390625 359.292969 C 486.542969 359.292969 487.761719 359.261719 489.011719 359.183594 C 516.363281 357.488281 528.199219 344.289062 529.539062 342.683594 C 529.878906 342.714844 530.183594 342.746094 530.523438 342.777344 C 533.375 343.054688 536.425781 343.363281 539.585938 343.75 C 537.78125 345.96875 534.023438 350.132812 528.167969 354.28125 C 520.324219 359.816406 506.976562 366.464844 487.976562 366.601562 C 487.792969 366.601562 487.609375 366.601562 487.421875 366.601562 C 457.558594 366.601562 448.789062 348.234375 446.679688 342.023438 C 447.742188 341.898438 448.773438 341.789062 449.824219 341.683594 Z M 390.539062 377.613281 C 412.515625 352.277344 428.324219 345.304688 442.070312 342.761719 C 442.933594 345.476562 445.105469 350.917969 449.882812 356.363281 C 455.863281 363.179688 467.21875 371.246094 487.4375 371.246094 C 487.625 371.246094 487.824219 371.246094 488.023438 371.246094 C 526.933594 370.953125 543.992188 345.738281 544.703125 344.675781 C 544.730469 344.613281 544.761719 344.550781 544.792969 344.488281 C 556.472656 346.324219 568.894531 349.808594 577.570312 358.246094 C 587.816406 368.207031 598.449219 394.050781 606.988281 419.480469 C 578.371094 412.679688 558.507812 431.910156 553.054688 438.019531 L 548.351562 426.035156 C 547.890625 424.847656 546.550781 424.261719 545.363281 424.726562 C 544.175781 425.1875 543.59375 426.53125 544.054688 427.71875 L 562.578125 475.015625 L 509.257812 473.640625 C 504.203125 469.214844 498.6875 463.679688 495.757812 458.46875 C 494.574219 456.339844 493.570312 454.304688 492.691406 452.5 C 491.351562 449.753906 490.121094 447.257812 488.59375 445.234375 L 497.730469 435.351562 C 498.164062 434.886719 498.378906 434.269531 498.347656 433.65625 C 498.316406 433.023438 498.023438 432.4375 497.546875 432.035156 L 491.246094 426.574219 C 490.289062 425.757812 488.871094 425.835938 488.023438 426.761719 L 475.988281 439.960938 C 475.941406 440.007812 475.925781 440.070312 475.894531 440.117188 C 474.570312 440.207031 473.136719 440.378906 471.535156 440.6875 C 454.523438 443.894531 446.15625 457.757812 445.863281 466.117188 C 445.816406 467.367188 445.925781 468.429688 446.15625 469.324219 L 435.96875 480.472656 L 428.386719 405.695312 C 428.355469 405.402344 428.28125 405.109375 428.140625 404.863281 L 421.839844 392.820312 C 421.253906 391.691406 419.851562 391.246094 418.710938 391.847656 C 417.585938 392.433594 417.136719 393.835938 417.738281 394.976562 L 423.839844 406.636719 L 425.367188 421.734375 L 415.796875 430.03125 C 405.519531 403.675781 385.222656 395.59375 376.6875 393.3125 C 381.03125 388.4375 385.703125 383.195312 390.539062 377.613281 Z M 343.386719 428.257812 C 343.539062 428.101562 355.714844 416.226562 373.097656 397.214844 C 378.167969 398.199219 401.496094 404.246094 412.039062 433.253906 L 362.402344 476.292969 L 343.03125 428.503906 C 343.15625 428.394531 343.292969 428.347656 343.386719 428.257812 Z M 216.347656 501.925781 L 187.421875 427.839844 C 186.574219 425.683594 186.835938 423.335938 188.148438 421.410156 C 189.457031 419.480469 191.539062 418.371094 193.847656 418.371094 L 328.933594 417.617188 C 328.949219 417.617188 328.964844 417.617188 328.976562 417.617188 C 331.8125 417.617188 334.339844 419.3125 335.402344 421.949219 L 365.730469 496.789062 C 366.410156 498.46875 366.410156 500.273438 365.761719 501.910156 C 365.453125 502.234375 365.253906 502.632812 365.160156 503.082031 C 365.113281 503.144531 365.082031 503.21875 365.039062 503.28125 C 363.726562 505.222656 361.632812 506.351562 359.273438 506.351562 L 222.789062 506.351562 C 219.9375 506.335938 217.394531 504.609375 216.347656 501.925781 Z M 225.132812 510.960938 L 359.304688 510.960938 C 363.15625 510.960938 366.746094 509.050781 368.890625 505.855469 C 368.90625 505.839844 368.90625 505.808594 368.921875 505.796875 L 408.0625 505.796875 C 409.046875 505.796875 409.863281 506.597656 409.863281 507.582031 L 409.863281 514.800781 C 409.863281 518.671875 406.722656 521.832031 402.839844 521.832031 L 233.558594 521.832031 C 228.90625 521.832031 225.117188 518.039062 225.117188 513.382812 L 225.117188 510.960938 Z M 408.0625 501.167969 L 370.707031 501.167969 C 371.03125 499.132812 370.816406 497.019531 370.015625 495.046875 L 364.25 480.8125 L 425.921875 427.347656 L 431.777344 485.070312 L 425.8125 491.609375 C 425.597656 491.855469 425.429688 492.132812 425.320312 492.441406 L 422.746094 500.183594 C 422.515625 500.890625 422.625 501.660156 423.070312 502.261719 C 423.519531 502.863281 424.195312 503.21875 424.949219 503.21875 L 431.253906 503.21875 C 431.855469 503.21875 432.441406 502.988281 432.871094 502.570312 L 433.519531 501.941406 L 435.691406 522.417969 L 411.667969 522.417969 C 413.425781 520.382812 414.503906 517.730469 414.503906 514.816406 L 414.503906 507.597656 C 414.472656 504.050781 411.589844 501.167969 408.0625 501.167969 Z M 111.558594 314.726562 L 366.148438 314.726562 C 367.425781 314.726562 368.457031 313.691406 368.457031 312.414062 L 368.457031 249.371094 C 371.078125 248.628906 373.667969 247.984375 376.023438 247.550781 C 391.527344 244.683594 399.214844 236.03125 397.691406 223.214844 C 397.691406 223.199219 397.691406 223.199219 397.691406 223.183594 C 397.691406 223.140625 397.691406 223.09375 397.675781 223.03125 C 396.488281 213.546875 387.273438 210.046875 379.953125 208.78125 C 385.253906 206.007812 390.894531 202.226562 391.449219 198.480469 C 391.710938 196.769531 391.019531 195.164062 389.523438 193.960938 C 385.75 190.941406 376.980469 193.253906 368.457031 196.722656 L 368.457031 51.609375 C 368.457031 50.328125 367.425781 49.296875 366.148438 49.296875 L 111.128906 49.296875 C 110.511719 49.296875 109.925781 49.542969 109.496094 49.972656 C 109.0625 50.40625 108.816406 50.992188 108.816406 51.609375 C 108.816406 54.214844 109.25 311.75 109.25 312.398438 C 109.25 313.675781 110.296875 314.726562 111.558594 314.726562 Z M 113.5 88.359375 L 232.449219 88.359375 C 230.324219 91.148438 228.335938 94.480469 226.457031 98.382812 C 226.070312 99.183594 225.671875 100.046875 225.238281 100.941406 L 133.503906 100.941406 C 132.226562 100.941406 131.191406 101.972656 131.191406 103.253906 L 131.191406 183.304688 C 131.191406 184.585938 132.226562 185.621094 133.503906 185.621094 L 191.289062 185.621094 C 190.121094 188.71875 189.425781 190.570312 189.394531 190.675781 C 189.257812 191.0625 189.226562 191.449219 189.289062 191.835938 C 182.445312 194.640625 175.140625 198.835938 168.40625 205.097656 L 131.777344 205.097656 C 130.5 205.097656 129.464844 206.128906 129.464844 207.410156 C 129.464844 208.6875 130.5 209.722656 131.777344 209.722656 L 163.890625 209.722656 C 161.273438 212.667969 158.792969 216 156.496094 219.730469 L 130.914062 219.730469 C 129.636719 219.730469 128.601562 220.765625 128.601562 222.042969 C 128.601562 223.324219 129.636719 224.355469 130.914062 224.355469 L 153.875 224.355469 C 151.902344 228.152344 150.132812 232.34375 148.621094 236.941406 L 136.078125 236.941406 C 134.796875 236.941406 133.765625 237.972656 133.765625 239.253906 C 133.765625 240.535156 134.796875 241.566406 136.078125 241.566406 L 147.140625 241.566406 C 134.691406 281.957031 129.328125 306.675781 128.601562 310.097656 L 113.886719 310.097656 C 113.839844 290.761719 113.625 155.191406 113.5 88.359375 Z M 286.707031 93.199219 C 314.941406 109.839844 313.136719 139.742188 308.40625 163.921875 C 304.90625 181.808594 300.792969 234.105469 299.929688 245.546875 L 278.109375 245.546875 L 267.769531 201.289062 C 267.585938 200.53125 267.046875 199.914062 266.320312 199.636719 C 264.210938 198.851562 258.292969 196.382812 256.058594 194.222656 C 255.425781 192.558594 257.523438 185.355469 260.695312 178.078125 C 273.410156 182.304688 290.960938 174.992188 298.066406 162.023438 C 305.738281 148.023438 300.222656 127.589844 299.992188 126.726562 C 299.667969 125.554688 298.480469 124.828125 297.28125 125.074219 L 245.671875 135.992188 C 243.808594 134.082031 239.601562 130.394531 235.132812 130.75 C 233.3125 130.890625 230.726562 131.785156 228.691406 135.191406 C 227.289062 137.519531 226.949219 140.019531 227.671875 142.609375 C 229.324219 148.5 236.101562 153.003906 238.859375 154.621094 C 240.0625 163.691406 247.550781 219.546875 252.867188 236.769531 C 247.167969 237.140625 234.390625 237.34375 226.347656 232.667969 L 217.488281 177.339844 C 217.289062 176.074219 216.085938 175.210938 214.835938 175.425781 C 213.574219 175.625 212.710938 176.8125 212.925781 178.078125 L 214.222656 186.191406 C 210.628906 186.34375 203.296875 187.039062 194.636719 189.84375 C 199.273438 177.492188 220.429688 121.542969 230.617188 100.371094 C 235.546875 90.132812 241.082031 84.378906 248 82.28125 C 257.105469 79.519531 269.402344 82.992188 286.707031 93.199219 Z M 297.621094 310.097656 L 277.617188 310.097656 L 281.085938 298.101562 C 285.890625 297.128906 300.132812 292.90625 304.707031 276.449219 C 307.34375 266.996094 301.902344 255.832031 298.542969 250.171875 L 302.042969 250.171875 C 303.257812 250.171875 304.261719 249.230469 304.351562 248.027344 C 304.367188 247.75 305.277344 235.554688 306.617188 220.269531 C 309.945312 223.246094 315.09375 228.519531 317.761719 234.71875 C 309.699219 259.394531 299.160156 303.359375 297.648438 309.730469 C 297.648438 309.835938 297.632812 309.976562 297.621094 310.097656 Z M 216.285156 310.097656 L 220.246094 306.691406 C 223.25 307.152344 226.085938 307.339844 228.675781 307.339844 C 234.5625 307.339844 239.183594 306.414062 241.726562 305.75 C 246.488281 304.5 248.355469 303.191406 250.511719 301.664062 C 251.574219 300.910156 252.667969 300.136719 254.316406 299.226562 C 257.847656 297.269531 260.589844 295.835938 261.929688 295.140625 C 269.050781 297.730469 271.652344 295.28125 272.59375 293.550781 C 274.996094 289.035156 270.375 281.753906 264.535156 277.792969 C 260.773438 275.246094 254.425781 272.039062 248.261719 269.15625 C 253.777344 267.582031 256.089844 264.207031 256.921875 262.449219 C 258.507812 259.132812 258.277344 255.339844 256.351562 253.210938 C 253.578125 250.125 250.527344 251.546875 248.09375 252.6875 C 246.734375 253.320312 245.195312 254.042969 243.207031 254.519531 C 240.15625 255.246094 238.570312 255.078125 235.054688 254.691406 C 232.390625 254.398438 228.738281 254.011719 222.851562 253.875 C 222.511719 253.875 222.171875 253.859375 221.832031 253.859375 C 210.707031 253.859375 206.160156 257.976562 197.703125 265.933594 L 203.1875 250.359375 C 203.617188 249.15625 202.988281 247.828125 201.769531 247.414062 C 200.566406 246.996094 199.242188 247.613281 198.828125 248.832031 L 190.429688 272.65625 C 176.421875 285.285156 151.765625 309.667969 151.503906 309.914062 C 151.441406 309.976562 151.425781 310.054688 151.378906 310.097656 L 133.320312 310.097656 C 134.597656 304.222656 140.253906 279.226562 152.472656 239.933594 C 158.4375 220.75 169.484375 206.902344 185.328125 198.632812 C 188.425781 200.917969 200.230469 209.058594 218.921875 215.550781 L 221.957031 234.457031 C 222.066406 235.105469 222.433594 235.675781 222.972656 236.03125 C 234.730469 243.726562 255.472656 241.242188 256.351562 241.121094 C 257.074219 241.027344 257.707031 240.613281 258.078125 239.980469 C 258.445312 239.347656 258.476562 238.574219 258.183594 237.914062 C 257.046875 235.277344 255.71875 229.96875 254.347656 223.261719 C 258.988281 223.695312 263.65625 223.925781 268.308594 223.941406 L 274.027344 248.398438 C 274.273438 249.449219 275.199219 250.1875 276.277344 250.1875 L 293.121094 250.1875 C 295.398438 253.625 302.875 265.949219 300.285156 275.230469 C 295.632812 291.917969 279.742188 293.707031 279.066406 293.785156 C 278.125 293.875 277.324219 294.523438 277.0625 295.449219 L 272.808594 310.128906 L 216.285156 310.128906 Z M 193.957031 275.679688 C 196.4375 273.457031 198.5625 271.453125 200.476562 269.648438 C 209.289062 261.351562 212.585938 258.253906 222.757812 258.46875 C 228.429688 258.59375 231.972656 258.976562 234.5625 259.253906 C 238.230469 259.65625 240.449219 259.886719 244.269531 258.976562 C 246.71875 258.390625 248.554688 257.527344 250.050781 256.835938 C 252.421875 255.722656 252.484375 255.785156 252.914062 256.265625 C 253.347656 256.742188 253.65625 258.53125 252.746094 260.414062 C 251.097656 263.882812 246.457031 265.65625 240.0625 265.316406 C 240 265.316406 239.925781 265.316406 239.863281 265.316406 C 234.945312 263.15625 231.234375 261.613281 230.863281 261.460938 C 229.675781 260.96875 228.335938 261.539062 227.84375 262.726562 C 227.351562 263.914062 227.921875 265.253906 229.105469 265.746094 C 229.351562 265.839844 253.363281 275.773438 261.945312 281.585938 C 267.230469 285.179688 269.125 290.175781 268.511719 291.332031 C 268.339844 291.640625 266.707031 291.996094 262.945312 290.53125 C 252.605469 282.15625 233.746094 276.265625 232.945312 276.019531 C 231.726562 275.648438 230.433594 276.328125 230.046875 277.546875 C 229.660156 278.761719 230.355469 280.058594 231.574219 280.445312 C 231.742188 280.492188 247.058594 285.285156 257.105469 291.996094 C 257.089844 291.996094 257.074219 291.996094 257.058594 291.980469 C 244.980469 291.164062 231.820312 285.886719 231.679688 285.828125 C 230.492188 285.347656 229.152344 285.917969 228.675781 287.105469 C 228.199219 288.292969 228.769531 289.636719 229.953125 290.113281 C 230.433594 290.296875 240.0625 294.152344 250.773438 295.882812 C 250.171875 296.25 249.648438 296.589844 249.15625 296.914062 C 248.925781 296.851562 248.691406 296.820312 248.445312 296.835938 C 239.738281 297.378906 227.488281 294.355469 227.367188 294.324219 C 226.117188 294.015625 224.867188 294.769531 224.5625 296.003906 C 224.253906 297.238281 225.007812 298.503906 226.242188 298.8125 C 226.625 298.902344 233.265625 300.554688 240.480469 301.230469 C 235.703125 302.464844 223.234375 304.65625 209.042969 298.734375 C 207.871094 298.242188 206.515625 298.796875 206.023438 299.984375 C 205.53125 301.15625 206.085938 302.511719 207.269531 303.003906 C 209.753906 304.039062 212.171875 304.824219 214.527344 305.441406 L 209.535156 309.730469 C 209.429688 309.820312 209.335938 309.929688 209.242188 310.039062 L 157.898438 310.039062 C 165.109375 303.019531 183.03125 285.503906 193.957031 275.679688 Z M 192.414062 180.992188 L 135.816406 180.992188 L 135.816406 125.367188 L 214.789062 125.367188 C 206.714844 145.152344 197.839844 168.332031 193.015625 181.085938 C 192.816406 181.023438 192.617188 180.992188 192.414062 180.992188 Z M 216.6875 120.742188 L 135.816406 120.742188 L 135.816406 105.566406 L 223.160156 105.566406 C 221.171875 110.023438 218.984375 115.191406 216.6875 120.742188 Z M 190.257812 196.289062 C 201.367188 191.570312 211.355469 190.878906 214.960938 190.785156 L 218.089844 210.355469 C 204.265625 205.296875 194.574219 199.359375 190.136719 196.351562 C 190.179688 196.320312 190.210938 196.304688 190.257812 196.289062 Z M 276.015625 134.3125 C 276.089844 134.40625 276.167969 134.496094 276.261719 134.574219 C 276.507812 134.777344 276.753906 134.960938 277.0625 135.144531 C 277.371094 135.316406 277.710938 135.53125 278.140625 135.640625 L 278.558594 135.746094 C 278.589844 135.761719 278.617188 135.761719 278.648438 135.761719 C 279.1875 135.839844 279.683594 135.46875 279.773438 134.929688 C 279.851562 134.390625 279.804688 133.957031 279.699219 133.527344 L 296.03125 130.070312 C 297.171875 135.4375 299.46875 149.84375 294.011719 159.804688 C 288.328125 170.183594 272.085938 178.386719 260.449219 173.019531 C 259.28125 172.480469 257.921875 172.988281 257.382812 174.144531 C 253.347656 182.859375 249.261719 193.976562 252.683594 197.417969 C 255.335938 200.070312 261.003906 202.519531 263.53125 203.523438 L 267.214844 219.269531 C 262.609375 219.222656 257.96875 218.960938 253.394531 218.496094 C 248.523438 192.960938 243.359375 153.417969 243.285156 152.878906 C 243.191406 152.140625 242.730469 151.476562 242.066406 151.136719 C 239.707031 149.886719 233.328125 145.710938 232.113281 141.375 C 231.726562 140.019531 231.910156 138.816406 232.636719 137.582031 C 233.882812 135.5 235.085938 135.40625 235.472656 135.375 C 238.214844 135.160156 241.988281 138.753906 243.066406 140.035156 C 243.621094 140.683594 244.46875 140.988281 245.316406 140.804688 Z M 363.835938 310.097656 L 345.25 310.097656 L 349.410156 255.925781 C 351.910156 254.9375 357.625 252.746094 363.835938 250.773438 Z M 386.640625 197.585938 C 386.8125 197.726562 386.875 197.816406 386.890625 197.816406 C 386.8125 199.746094 378.628906 204.820312 370.03125 208.273438 L 361 211.929688 C 359.8125 212.40625 359.242188 213.761719 359.722656 214.933594 C 360.089844 215.828125 360.953125 216.382812 361.863281 216.382812 C 362.15625 216.382812 362.449219 216.324219 362.726562 216.214844 L 371.355469 212.714844 C 373.835938 212.699219 387.84375 212.914062 392.003906 220.300781 C 382.417969 219.253906 365.285156 221.398438 363.050781 221.675781 C 361.785156 221.84375 360.890625 223 361.0625 224.265625 C 361.214844 225.4375 362.203125 226.285156 363.359375 226.285156 C 363.449219 226.285156 363.558594 226.285156 363.652344 226.269531 C 369.953125 225.453125 386.566406 223.800781 393.222656 225.144531 C 393.359375 227.640625 393.050781 229.894531 392.28125 231.914062 C 386.027344 231.34375 366.347656 233.085938 364.003906 233.285156 C 362.726562 233.394531 361.800781 234.519531 361.910156 235.800781 C 362.015625 237.003906 363.019531 237.914062 364.207031 237.914062 C 364.265625 237.914062 364.34375 237.914062 364.421875 237.898438 C 372.125 237.203125 383.683594 236.371094 389.460938 236.402344 C 386.457031 239.578125 381.695312 241.785156 375.191406 243 C 363.480469 245.175781 347.054688 251.882812 346.359375 252.175781 C 345.558594 252.5 345.003906 253.273438 344.925781 254.136719 L 340.628906 310.085938 C 340.628906 310.085938 340.628906 310.097656 340.628906 310.097656 L 302.351562 310.097656 C 310.101562 277.589844 323.199219 227.734375 327.976562 221.765625 C 330.488281 218.621094 333.03125 216.167969 335.480469 213.792969 C 339.640625 209.785156 343.21875 206.316406 344.726562 201.179688 C 345.21875 199.484375 345.699219 197.617188 346.175781 195.765625 C 346.945312 192.789062 348.132812 188.117188 349.164062 186.21875 C 350.519531 189.058594 351.601562 198.046875 348.886719 207.195312 C 348.886719 207.195312 348.886719 207.207031 348.886719 207.207031 C 348.828125 207.425781 348.8125 207.640625 348.8125 207.871094 C 348.8125 207.917969 348.8125 207.949219 348.8125 207.996094 C 348.828125 208.210938 348.855469 208.425781 348.933594 208.628906 C 348.933594 208.644531 348.933594 208.660156 348.949219 208.675781 C 349.011719 208.8125 354.265625 223.230469 345.296875 231.082031 C 344.34375 231.929688 344.234375 233.378906 345.082031 234.351562 C 345.929688 235.304688 347.378906 235.414062 348.347656 234.566406 C 357.640625 226.4375 355.253906 213.777344 353.894531 208.980469 C 367.625 201.394531 383.636719 195.164062 386.640625 197.585938 Z M 354.480469 203.339844 C 355.898438 194.917969 354.929688 186.636719 352.710938 183.183594 C 351.691406 181.59375 350.507812 181.117188 349.6875 181.007812 C 345.28125 180.390625 343.710938 186.652344 341.675781 194.609375 C 341.214844 196.414062 340.75 198.21875 340.257812 199.867188 C 339.101562 203.832031 336.066406 206.746094 332.230469 210.460938 C 329.796875 212.824219 327.019531 215.488281 324.324219 218.867188 C 323.105469 220.394531 321.550781 223.894531 319.824219 228.691406 C 315.585938 221.691406 309.421875 216.445312 307.113281 214.625 C 308.792969 196.042969 310.964844 174.730469 312.90625 164.816406 C 313.707031 160.699219 314.878906 154.699219 315.449219 147.746094 L 348.054688 147.746094 C 349.335938 147.746094 350.367188 146.710938 350.367188 145.429688 C 350.367188 144.152344 349.335938 143.117188 348.054688 143.117188 L 315.726562 143.117188 C 315.847656 139.816406 315.789062 136.363281 315.496094 132.832031 L 327.699219 132.832031 C 328.976562 132.832031 330.011719 131.800781 330.011719 130.519531 C 330.011719 129.238281 328.976562 128.207031 327.699219 128.207031 L 314.941406 128.207031 C 314.214844 123.425781 312.96875 118.597656 310.980469 113.894531 L 351.199219 113.894531 C 352.476562 113.894531 353.511719 112.863281 353.511719 111.582031 C 353.511719 110.300781 352.476562 109.269531 351.199219 109.269531 L 308.761719 109.269531 C 308.761719 109.269531 308.746094 109.269531 308.746094 109.269531 C 304.644531 101.742188 298.390625 94.757812 289.003906 89.222656 C 288.496094 88.929688 288.003906 88.652344 287.511719 88.359375 L 363.789062 88.359375 L 363.789062 198.726562 C 360.382812 200.300781 357.148438 201.933594 354.480469 203.339844 Z M 363.835938 53.921875 L 363.835938 83.730469 L 279.28125 83.730469 C 279.171875 83.730469 279.082031 83.746094 278.988281 83.761719 C 265.519531 77.175781 255.085938 75.3125 246.660156 77.871094 C 242.976562 78.996094 239.648438 80.925781 236.613281 83.730469 L 113.5 83.730469 C 113.472656 69.296875 113.457031 58.625 113.457031 53.921875 Z M 139.082031 77.160156 C 143.519531 77.160156 147.125 73.554688 147.125 69.113281 C 147.125 64.671875 143.519531 61.0625 139.082031 61.0625 C 134.644531 61.0625 131.039062 64.671875 131.039062 69.113281 C 131.039062 73.554688 134.660156 77.160156 139.082031 77.160156 Z M 139.082031 65.6875 C 140.960938 65.6875 142.503906 67.230469 142.503906 69.113281 C 142.503906 70.992188 140.960938 72.535156 139.082031 72.535156 C 137.203125 72.535156 135.660156 70.992188 135.660156 69.113281 C 135.660156 67.230469 137.203125 65.6875 139.082031 65.6875 Z M 159.730469 77.160156 C 164.167969 77.160156 167.777344 73.554688 167.777344 69.113281 C 167.777344 64.671875 164.167969 61.0625 159.730469 61.0625 C 155.292969 61.0625 151.6875 64.671875 151.6875 69.113281 C 151.6875 73.554688 155.292969 77.160156 159.730469 77.160156 Z M 159.730469 65.6875 C 161.613281 65.6875 163.152344 67.230469 163.152344 69.113281 C 163.152344 70.992188 161.613281 72.535156 159.730469 72.535156 C 157.851562 72.535156 156.308594 70.992188 156.308594 69.113281 C 156.308594 67.230469 157.851562 65.6875 159.730469 65.6875 Z M 180.65625 77.023438 C 185.097656 77.023438 188.703125 73.414062 188.703125 68.972656 C 188.703125 64.53125 185.097656 60.921875 180.65625 60.921875 C 176.21875 60.921875 172.613281 64.53125 172.613281 68.972656 C 172.613281 73.414062 176.21875 77.023438 180.65625 77.023438 Z M 180.65625 65.535156 C 182.539062 65.535156 184.078125 67.074219 184.078125 68.957031 C 184.078125 70.839844 182.539062 72.382812 180.65625 72.382812 C 178.777344 72.382812 177.238281 70.839844 177.238281 68.957031 C 177.238281 67.074219 178.777344 65.535156 180.65625 65.535156 Z M 360.863281 130.503906 C 360.863281 131.785156 359.828125 132.816406 358.550781 132.816406 L 344.21875 132.816406 C 342.941406 132.816406 341.90625 131.785156 341.90625 130.503906 C 341.90625 129.222656 342.941406 128.191406 344.21875 128.191406 L 358.550781 128.191406 C 359.828125 128.191406 360.863281 129.222656 360.863281 130.503906 Z M 147.742188 112.722656 C 147.742188 114.171875 146.554688 115.359375 145.109375 115.359375 C 143.660156 115.359375 142.472656 114.171875 142.472656 112.722656 C 142.472656 111.273438 143.660156 110.085938 145.109375 110.085938 C 146.554688 110.085938 147.742188 111.257812 147.742188 112.722656 Z M 158.28125 112.722656 C 158.28125 114.171875 157.097656 115.359375 155.648438 115.359375 C 154.199219 115.359375 153.011719 114.171875 153.011719 112.722656 C 153.011719 111.273438 154.199219 110.085938 155.648438 110.085938 C 157.097656 110.085938 158.28125 111.257812 158.28125 112.722656 Z M 419.773438 110.917969 C 424.164062 110.917969 427.726562 107.339844 427.726562 102.960938 C 427.726562 98.582031 424.148438 95.003906 419.773438 95.003906 C 415.398438 95.003906 411.820312 98.582031 411.820312 102.960938 C 411.820312 107.339844 415.398438 110.917969 419.773438 110.917969 Z M 419.773438 99.628906 C 421.605469 99.628906 423.101562 101.125 423.101562 102.960938 C 423.101562 104.796875 421.605469 106.292969 419.773438 106.292969 C 417.941406 106.292969 416.445312 104.796875 416.445312 102.960938 C 416.445312 101.125 417.941406 99.628906 419.773438 99.628906 Z M 446.957031 110.917969 C 451.347656 110.917969 454.90625 107.339844 454.90625 102.960938 C 454.90625 98.582031 451.332031 95.003906 446.957031 95.003906 C 442.578125 95.003906 439.003906 98.582031 439.003906 102.960938 C 439.003906 107.339844 442.578125 110.917969 446.957031 110.917969 Z M 446.957031 99.628906 C 448.789062 99.628906 450.285156 101.125 450.285156 102.960938 C 450.285156 104.796875 448.789062 106.292969 446.957031 106.292969 C 445.121094 106.292969 443.628906 104.796875 443.628906 102.960938 C 443.628906 101.125 445.121094 99.628906 446.957031 99.628906 Z M 474.140625 110.917969 C 478.53125 110.917969 482.089844 107.339844 482.089844 102.960938 C 482.089844 98.582031 478.515625 95.003906 474.140625 95.003906 C 469.761719 95.003906 466.1875 98.582031 466.1875 102.960938 C 466.1875 107.339844 469.761719 110.917969 474.140625 110.917969 Z M 474.140625 99.628906 C 475.972656 99.628906 477.46875 101.125 477.46875 102.960938 C 477.46875 104.796875 475.972656 106.292969 474.140625 106.292969 C 472.304688 106.292969 470.8125 104.796875 470.8125 102.960938 C 470.8125 101.125 472.304688 99.628906 474.140625 99.628906 Z M 45.113281 366.527344 C 51.878906 366.527344 57.671875 363.75 60.96875 361.128906 C 61.460938 360.742188 61.769531 360.15625 61.832031 359.539062 C 61.894531 358.90625 61.695312 358.289062 61.292969 357.8125 C 44.574219 338.289062 25.0625 353.03125 24.863281 353.1875 C 24.355469 353.585938 24.03125 354.171875 23.96875 354.820312 C 23.910156 355.46875 24.140625 356.101562 24.570312 356.578125 C 31.429688 364.042969 38.703125 366.527344 45.113281 366.527344 Z M 55.992188 358.890625 C 51.585938 361.4375 40.90625 365.632812 29.917969 355.40625 C 34.558594 352.816406 45.574219 348.558594 55.992188 358.890625 Z M 408.046875 133.078125 L 398.601562 148.070312 C 398.03125 148.964844 398.152344 150.136719 398.878906 150.890625 C 399.324219 151.367188 399.941406 151.617188 400.558594 151.617188 C 400.941406 151.617188 401.328125 151.523438 401.683594 151.324219 L 431.824219 134.40625 L 476.234375 134.40625 C 493.15625 134.40625 506.933594 120.617188 506.933594 103.6875 C 506.933594 86.753906 493.15625 72.96875 476.234375 72.96875 L 416.890625 72.96875 C 399.972656 72.96875 386.195312 86.753906 386.195312 103.6875 C 386.195312 117.347656 395.210938 129.222656 408.046875 133.078125 Z M 416.890625 77.59375 L 476.234375 77.59375 C 490.613281 77.59375 502.308594 89.296875 502.308594 103.6875 C 502.308594 118.074219 490.613281 129.777344 476.234375 129.777344 L 431.222656 129.777344 C 430.824219 129.777344 430.4375 129.886719 430.097656 130.070312 L 407.367188 142.824219 L 413.671875 132.832031 C 414.085938 132.183594 414.132812 131.367188 413.839844 130.671875 C 413.53125 129.964844 412.902344 129.46875 412.144531 129.332031 C 399.800781 127.050781 390.832031 116.269531 390.832031 103.703125 C 390.816406 89.296875 402.515625 77.59375 416.890625 77.59375 Z M 483.277344 264.589844 C 483.957031 262.386719 485.726562 260.96875 487.222656 261.429688 C 488.71875 261.894531 489.378906 264.050781 488.6875 266.273438 C 488.007812 268.476562 486.234375 269.894531 484.742188 269.433594 C 483.261719 268.972656 482.597656 266.8125 483.277344 264.589844 Z M 463.246094 258.222656 C 463.921875 256.015625 465.695312 254.597656 467.191406 255.0625 C 468.683594 255.523438 469.347656 257.683594 468.652344 259.902344 C 467.976562 262.109375 466.203125 263.527344 464.707031 263.066406 C 463.214844 262.585938 462.566406 260.425781 463.246094 258.222656 Z M 475.046875 269.234375 L 475.3125 269.28125 C 476.1875 269.433594 476.773438 270.28125 476.621094 271.160156 C 476.511719 271.714844 476.128906 272.164062 475.632812 272.378906 C 474.910156 272.671875 474.140625 272.886719 473.308594 272.980469 C 472.460938 273.027344 471.566406 273.011719 470.609375 272.703125 C 469.6875 272.394531 468.683594 271.824219 468.050781 270.914062 C 467.421875 269.988281 467.144531 269.015625 467.375 267.828125 C 467.40625 267.660156 467.558594 267.535156 467.746094 267.550781 L 470.300781 267.691406 C 470.488281 267.707031 470.65625 267.9375 470.8125 268.03125 C 470.964844 268.136719 471.089844 268.230469 471.210938 268.308594 C 471.441406 268.445312 471.644531 268.617188 472.011719 268.738281 C 472.335938 268.894531 472.828125 268.972656 473.339844 269.0625 C 473.617188 269.09375 473.878906 269.125 474.171875 269.171875 C 474.433594 269.171875 474.742188 269.1875 475.046875 269.234375 Z M 478.824219 285.625 C 478.855469 286.226562 478.515625 286.75 478.007812 287 C 477.269531 287.335938 476.511719 287.660156 475.726562 287.921875 C 474.910156 288.109375 474.109375 288.402344 473.246094 288.433594 C 471.550781 288.679688 469.746094 288.433594 468.066406 287.9375 C 466.371094 287.414062 464.816406 286.503906 463.539062 285.347656 C 462.226562 284.175781 461.257812 282.867188 460.5 281.152344 C 460.148438 280.335938 460.515625 279.378906 461.320312 279.027344 C 461.964844 278.734375 462.722656 278.917969 463.167969 279.425781 L 463.351562 279.628906 C 464.125 280.492188 465.15625 281.476562 466.140625 282.203125 C 467.160156 282.957031 468.238281 283.558594 469.394531 283.960938 C 470.550781 284.347656 471.765625 284.640625 473.046875 284.625 C 473.675781 284.699219 474.339844 284.578125 475.019531 284.578125 C 475.695312 284.53125 476.359375 284.375 477.066406 284.332031 L 477.3125 284.316406 C 478.117188 284.253906 478.777344 284.839844 478.824219 285.625 Z M 463.304688 248.523438 C 463.351562 248.246094 463.523438 248.011719 463.738281 247.859375 C 464.769531 247.148438 465.816406 246.8125 467.003906 246.671875 C 468.175781 246.53125 469.425781 246.671875 470.59375 247.121094 C 471.765625 247.535156 472.859375 248.277344 473.632812 249.214844 C 474.433594 250.140625 474.925781 251.253906 475.125 252.378906 C 475.25 253.148438 474.742188 253.875 473.96875 253.996094 C 473.585938 254.058594 473.214844 253.964844 472.921875 253.765625 L 472.738281 253.625 C 471.953125 253.070312 471.398438 252.515625 470.78125 252.085938 C 470.210938 251.605469 469.609375 251.28125 468.992188 250.960938 C 468.359375 250.652344 467.667969 250.402344 466.898438 250.203125 C 466.125 250.003906 465.234375 249.894531 464.386719 249.757812 L 464.136719 249.710938 C 463.582031 249.617188 463.214844 249.078125 463.304688 248.523438 Z M 484.265625 254.953125 C 484.308594 254.675781 484.480469 254.445312 484.695312 254.289062 C 485.726562 253.582031 486.777344 253.242188 487.960938 253.101562 C 489.132812 252.964844 490.382812 253.101562 491.550781 253.550781 C 492.722656 253.964844 493.816406 254.707031 494.589844 255.648438 C 495.390625 256.574219 495.882812 257.683594 496.082031 258.808594 C 496.207031 259.578125 495.699219 260.304688 494.925781 260.425781 C 494.542969 260.488281 494.171875 260.398438 493.878906 260.195312 L 493.695312 260.058594 C 492.910156 259.503906 492.355469 258.945312 491.738281 258.515625 C 491.167969 258.039062 490.566406 257.714844 489.949219 257.390625 C 489.316406 257.082031 488.625 256.835938 487.855469 256.632812 C 487.082031 256.433594 486.191406 256.324219 485.34375 256.1875 L 485.097656 256.140625 C 484.542969 256.03125 484.171875 255.507812 484.265625 254.953125 Z M 269.496094 139.480469 C 270.542969 137.707031 272.363281 136.84375 273.5625 137.550781 C 274.765625 138.261719 274.890625 140.265625 273.839844 142.054688 C 272.792969 143.84375 270.976562 144.691406 269.773438 143.980469 C 268.570312 143.273438 268.449219 141.269531 269.496094 139.480469 Z M 285.707031 148.871094 C 286.753906 147.097656 288.574219 146.234375 289.777344 146.941406 C 290.976562 147.652344 291.101562 149.65625 290.054688 151.445312 C 289.003906 153.234375 287.1875 154.082031 285.984375 153.375 C 284.78125 152.664062 284.660156 150.644531 285.707031 148.871094 Z M 274.164062 149.902344 C 274.675781 149.71875 275.230469 149.84375 275.613281 150.164062 L 275.722656 150.257812 C 276.152344 150.628906 276.523438 150.984375 276.894531 151.292969 C 277.261719 151.570312 277.601562 151.847656 277.894531 151.96875 C 278.1875 152.125 278.417969 152.171875 278.664062 152.230469 C 278.878906 152.308594 279.28125 152.324219 279.605469 152.464844 L 280.867188 153.003906 C 281.363281 153.203125 281.59375 153.773438 281.378906 154.269531 C 281.347656 154.34375 281.300781 154.421875 281.253906 154.484375 C 280.589844 155.347656 279.804688 155.765625 278.820312 155.886719 C 277.832031 156.011719 276.863281 155.703125 276.105469 155.269531 C 275.320312 154.839844 274.78125 154.253906 274.304688 153.667969 C 273.871094 153.066406 273.550781 152.433594 273.300781 151.769531 C 273.023438 151 273.410156 150.164062 274.164062 149.902344 Z M 262.253906 158.941406 C 262.039062 158.277344 262.40625 157.566406 263.070312 157.367188 C 263.609375 157.199219 264.164062 157.414062 264.472656 157.84375 L 264.550781 157.953125 C 265.273438 158.988281 265.953125 159.957031 266.769531 160.777344 C 267.539062 161.625 268.464844 162.257812 269.402344 162.78125 C 270.359375 163.304688 271.40625 163.660156 272.515625 163.875 C 273.59375 164.089844 274.859375 164.167969 275.890625 164.167969 L 276.121094 164.167969 C 276.910156 164.167969 277.554688 164.800781 277.570312 165.601562 C 277.570312 166.234375 277.15625 166.789062 276.585938 166.976562 C 275.011719 167.5 273.5625 167.636719 272.007812 167.484375 C 270.480469 167.328125 268.941406 166.851562 267.585938 166.050781 C 266.246094 165.246094 265.011719 164.214844 264.148438 162.933594 C 263.65625 162.347656 263.363281 161.65625 262.992188 161.007812 C 262.714844 160.328125 262.484375 159.632812 262.253906 158.941406 Z M 286.230469 140.898438 C 286.308594 140.558594 286.507812 140.28125 286.769531 140.109375 C 287.632812 139.554688 288.652344 139.214844 289.746094 139.203125 C 290.824219 139.15625 291.964844 139.417969 292.949219 139.941406 C 293.9375 140.449219 294.785156 141.175781 295.382812 142.039062 C 296 142.902344 296.402344 143.8125 296.554688 144.90625 C 296.617188 145.402344 296.277344 145.863281 295.769531 145.925781 C 295.523438 145.957031 295.277344 145.894531 295.09375 145.738281 L 294.921875 145.601562 C 294.320312 145.136719 293.703125 144.597656 293.121094 144.214844 C 292.519531 143.8125 291.949219 143.503906 291.363281 143.289062 C 290.777344 143.085938 290.207031 142.886719 289.542969 142.792969 C 288.898438 142.640625 288.1875 142.609375 287.371094 142.425781 L 287.171875 142.378906 C 286.523438 142.238281 286.09375 141.574219 286.230469 140.898438 Z M 286.230469 140.898438 " fill-opacity="1" fill-rule="nonzero"/></g></svg>