<svg xmlns="http://www.w3.org/2000/svg" xmlns:xlink="http://www.w3.org/1999/xlink" width="900" zoomAndPan="magnify" viewBox="0 0 675 576" height="768" preserveAspectRatio="xMidYMid meet" version="1.0"><defs><clipPath id="5b3e835d1c"><path d="M 7.671875 89 L 666 89 L 666 495.257812 L 7.671875 495.257812 Z M 7.671875 89 " clip-rule="nonzero"/></clipPath><clipPath id="4317e97a50"><path d="M 338 80.507812 L 342 80.507812 L 342 97 L 338 97 Z M 338 80.507812 " clip-rule="nonzero"/></clipPath></defs><path fill="#ffffff" d="M 210.667969 452.570312 L 225.222656 492.539062 L 200.167969 493.347656 Z M 398.597656 471.953125 C 400.21875 479.214844 396.179688 486.898438 385.664062 487.289062 C 375.152344 487.691406 304.4375 484.46875 304.4375 484.46875 C 301.613281 486.085938 300.800781 490.933594 300.800781 490.933594 L 276.152344 492.148438 L 225.234375 492.554688 L 208.667969 446.941406 L 209.480469 456.632812 L 200.183594 493.378906 L 163.398438 492.972656 C 163.398438 492.972656 164.6875 492.105469 166.714844 490.644531 C 164.222656 491.164062 161.386719 491.339844 158.140625 490.960938 C 144.398438 489.34375 106.414062 455.839844 97.925781 439.289062 C 97.925781 439.289062 98.738281 421.523438 108.832031 414.261719 C 118.941406 407 134.289062 409.414062 134.289062 409.414062 L 162.183594 435.253906 L 205.832031 374.292969 C 205.832031 374.292969 198.15625 371.875 199.355469 358.957031 C 200.558594 346.039062 201.382812 341.597656 201.382812 341.597656 C 201.382812 341.597656 183.398438 339.179688 177.34375 338.371094 C 174.1875 337.953125 170.566406 337.199219 167.929688 335.464844 C 169.523438 337.605469 172.1875 339.007812 176.738281 339.714844 C 176.738281 339.714844 185.628906 358.828125 167.308594 363.398438 C 148.988281 367.96875 131.207031 354.789062 121.503906 340.253906 C 121.503906 340.253906 126.179688 339.90625 130.683594 335.144531 C 127.542969 337.140625 123.125 338.355469 116.925781 338.097656 L 122.851562 305.792969 L 137.941406 315.484375 C 137.941406 315.484375 138.15625 316.671875 138.199219 318.507812 C 139.910156 310.871094 140.359375 303.652344 140.359375 303.652344 C 140.359375 303.652344 125.007812 296.390625 127.152344 290.199219 C 129.308594 284.007812 132.8125 281.851562 138.332031 283.066406 C 143.847656 284.28125 140.359375 277.003906 140.359375 277.003906 L 133.625 263.015625 C 133.625 263.015625 130.394531 255.753906 139.011719 253.597656 C 147.628906 251.441406 152.480469 250.632812 158.417969 247.40625 C 164.339844 244.179688 170.277344 235.296875 175.113281 241.214844 C 175.695312 241.925781 176.375 242.863281 177.140625 244.007812 C 176.15625 242.183594 175.796875 240.925781 174.910156 238.464844 C 173.085938 233.417969 170.058594 226.761719 157.535156 227.761719 C 145.007812 228.773438 131.464844 235.023438 131.464844 235.023438 C 131.464844 235.023438 135.101562 217.257812 146.816406 211.601562 C 158.53125 205.945312 171.871094 207.292969 171.871094 207.292969 C 200.964844 211.601562 193.417969 168 193.417969 168 C 189.65625 164.238281 182.644531 152.390625 187.496094 148.082031 C 192.347656 143.769531 200.429688 149.152344 200.429688 149.152344 C 214.433594 145.925781 242.453125 120.625 242.453125 120.625 C 242.453125 120.625 250 133.542969 251.621094 155.066406 C 253.242188 176.59375 221.441406 181.976562 221.441406 181.976562 C 221.441406 181.976562 216.589844 194.359375 224.136719 201.359375 C 231.679688 208.363281 248.378906 199.742188 248.378906 199.742188 C 248.378906 199.742188 270.070312 195.023438 285.015625 213.597656 C 299.976562 232.175781 308.058594 249.9375 308.058594 249.9375 C 308.058594 249.9375 300.0625 251.71875 293.242188 259.632812 C 302.179688 251.777344 308.058594 249.9375 308.058594 249.9375 L 313.316406 257.605469 L 312.503906 205.121094 C 312.503906 205.121094 312.503906 190.988281 317.761719 190.988281 C 323.015625 190.988281 320.585938 203.5 323.421875 207.539062 C 326.261719 211.574219 326.246094 211.574219 326.246094 211.574219 C 326.246094 211.574219 347.664062 194.621094 354.140625 191.796875 C 360.613281 188.976562 364.652344 186.953125 366.664062 190.179688 C 368.679688 193.402344 354.542969 203.90625 354.542969 203.90625 C 354.542969 203.90625 379.191406 202.285156 380.003906 207.539062 C 380.8125 212.789062 377.976562 212.789062 378.785156 216.421875 C 379.597656 220.050781 376.367188 222.886719 374.339844 225.300781 C 372.3125 227.71875 371.515625 230.148438 363.03125 231.769531 C 354.542969 233.390625 342.019531 236.613281 341.207031 245.09375 C 340.394531 253.570312 347.273438 303.636719 346.058594 312.503906 C 344.839844 321.375 342.421875 331.484375 332.71875 333.496094 C 323.015625 335.519531 312.519531 336.722656 283.816406 288.273438 L 276.949219 280.203125 C 276.949219 280.203125 261.992188 302.003906 264.828125 318.550781 C 267.652344 335.101562 280.992188 377.097656 280.992188 377.097656 L 303.222656 448.15625 C 303.222656 448.15625 299.992188 456.632812 302.816406 459.859375 C 304.929688 462.277344 307.277344 465.140625 308.652344 468.625 C 307.824219 465.3125 306.449219 462.679688 306.449219 462.679688 C 306.449219 462.679688 371.921875 460.65625 384.449219 461.058594 C 396.976562 461.449219 396.976562 464.675781 398.597656 471.953125 Z M 255.097656 317.886719 C 254.996094 317.28125 254.765625 316.789062 254.316406 316.527344 C 254.648438 316.917969 254.910156 317.367188 255.097656 317.886719 Z M 247.453125 336.707031 C 247.453125 336.707031 247.421875 336.882812 247.394531 337.171875 C 247.796875 336.375 248.40625 335.492188 249.03125 334.363281 C 248.523438 335.117188 248 335.898438 247.453125 336.707031 Z M 252.375 346.777344 C 254.128906 348.757812 255.445312 350.40625 257.140625 353.242188 C 257.199219 353.328125 257.242188 353.417969 257.300781 353.503906 C 256.777344 351.710938 256.3125 350.21875 254.113281 348.398438 C 253.390625 347.816406 252.851562 347.296875 252.375 346.777344 Z M 248.074219 341.179688 C 248.449219 342.058594 249.015625 343.015625 249.871094 343.984375 C 250.578125 344.78125 251.203125 345.472656 251.78125 346.125 C 250.464844 344.503906 249.882812 343.128906 248.074219 341.179688 Z M 233.300781 261.613281 C 246.699219 259.3125 252.449219 250.792969 254.332031 240.78125 C 252.1875 250.15625 246.277344 258.328125 233.300781 261.613281 Z M 180.023438 248.507812 C 184.050781 255.160156 188.945312 264.347656 192.042969 271.4375 C 190.117188 264.851562 187.148438 258.472656 183.601562 253.539062 C 182.109375 251.488281 180.949219 249.851562 180.023438 248.507812 Z M 194.101562 291.285156 C 194.246094 290.226562 194.332031 289.128906 194.359375 288 C 193.246094 292.339844 190.898438 296.96875 187.207031 300.554688 C 190.710938 298.242188 193.550781 295.1875 194.101562 291.285156 Z M 215.113281 351.636719 C 215.113281 351.636719 215.925781 336.894531 213.085938 332.859375 C 210.261719 328.824219 205.816406 323.570312 202.976562 327.40625 C 206.613281 327.40625 211.058594 329.429688 213.085938 337.910156 C 215.113281 346.398438 214.707031 352.851562 215.113281 351.636719 Z M 245.019531 320.96875 C 240.832031 324.195312 236.386719 328.375 233.910156 331.050781 C 230.796875 334.421875 223.933594 341.957031 219.414062 346.921875 C 226.394531 339.644531 239.890625 326.089844 245.019531 320.96875 Z M 241.382812 403.714844 C 241.382812 403.714844 262.398438 373.03125 263.613281 364.148438 C 263.613281 366.582031 241.382812 403.714844 241.382812 403.714844 Z M 263.570312 363.671875 C 263.425781 362.457031 262.992188 361.675781 262.410156 361.039062 C 262.992188 362.023438 263.425781 362.921875 263.570312 363.671875 Z M 586.125 379.5 C 596.230469 389.191406 601.472656 401.703125 601.472656 401.703125 C 593.394531 397.265625 576.421875 407.765625 576.421875 407.765625 C 575.609375 402.109375 564.300781 392.027344 564.300781 392.027344 C 564.300781 392.027344 472.558594 390.40625 466.894531 390.40625 C 461.230469 390.40625 460.03125 398.480469 460.03125 398.480469 C 460.03125 398.480469 463.765625 399.160156 465.9375 402.398438 L 465.273438 400.300781 L 526.90625 399.695312 C 526.90625 399.695312 538.824219 400.097656 539.839844 407.765625 C 540.851562 415.433594 536 419.066406 525.285156 419.671875 C 514.570312 420.28125 465.070312 419.875 465.070312 419.875 L 465.519531 417.558594 L 460.015625 421.089844 C 459.203125 423.503906 466.082031 429.160156 466.082031 429.160156 L 456.785156 446.925781 C 456.785156 446.925781 454.367188 440.460938 450.3125 431.984375 C 446.273438 423.503906 447.488281 397.667969 447.488281 397.667969 L 436.582031 399.289062 C 436.582031 399.289062 385.664062 410.585938 370.707031 406.550781 C 355.746094 402.515625 346.464844 394.039062 348.070312 377.082031 C 349.691406 360.128906 365.855469 327.824219 365.855469 327.824219 C 365.855469 327.824219 370.707031 320.96875 367.476562 313.285156 C 364.246094 305.621094 357.773438 300.367188 361.410156 294.710938 C 365.042969 289.054688 362.21875 287.449219 367.476562 283.414062 C 372.734375 279.378906 373.949219 278.566406 374.339844 275.339844 C 374.746094 272.117188 373.125 263.234375 376.757812 258.792969 C 380.394531 254.351562 386.867188 252.324219 386.460938 258.386719 C 386.058594 264.449219 381.207031 271.710938 384.839844 275.746094 C 388.476562 279.78125 396.960938 286.640625 399.394531 285.84375 C 401.8125 285.035156 401.015625 273.734375 401.8125 270.507812 C 402.609375 267.285156 407.070312 266.070312 410.300781 274.546875 C 413.527344 283.023438 411.921875 289.878906 407.878906 305.230469 C 403.839844 320.5625 399.394531 331.472656 399.394531 344.792969 C 399.394531 358.117188 399.394531 358.117188 399.394531 358.117188 L 426.476562 352.460938 C 426.476562 352.460938 423.796875 380.292969 433.425781 395.3125 C 427.097656 383.1875 426.476562 352.460938 426.476562 352.460938 C 448.300781 339.949219 468.5 348.425781 468.5 348.425781 C 467.675781 356.0625 465.589844 364.0625 471.660156 370.703125 C 469.167969 366.261719 468.457031 361.171875 468.097656 357.710938 C 467.285156 350.046875 471.324219 348.425781 471.324219 348.425781 C 476.175781 352.054688 480.625 350.839844 485.472656 346.398438 C 490.324219 341.960938 479.8125 322.183594 479.8125 322.183594 C 467.691406 318.550781 462.839844 312.894531 460.015625 306.039062 C 457.191406 299.183594 461.230469 287.871094 461.230469 287.871094 L 459.609375 281.011719 L 473.757812 275.355469 C 477.394531 266.878906 492.757812 255.582031 492.757812 255.582031 L 515.394531 291.109375 C 515.394531 291.109375 531.148438 293.527344 530.355469 302.003906 C 529.542969 310.480469 515.003906 309.265625 515.003906 309.265625 L 508.53125 310.886719 C 508.53125 310.886719 506.90625 314.921875 506.503906 326.625 C 506.097656 338.328125 511.351562 349.234375 519.433594 351.246094 C 527.515625 353.273438 534.785156 354.472656 534.785156 354.472656 C 534.785156 354.472656 543.675781 353.257812 557.421875 358.914062 C 571.164062 364.570312 576.015625 369.808594 586.125 379.5 Z M 467.167969 406.320312 C 467.226562 407.230469 467.210938 408.199219 467.140625 409.167969 L 467.488281 407.347656 Z M 518.363281 370.675781 C 510.832031 375.535156 501.535156 379.296875 491.558594 379.890625 C 491.355469 379.902344 491.179688 379.902344 490.976562 379.902344 C 500.910156 381.277344 510.613281 376.476562 518.363281 370.675781 Z M 637.445312 456.472656 C 633.941406 446.246094 601.472656 401.703125 601.472656 401.703125 C 601.472656 401.703125 583.820312 402.109375 578.171875 408.835938 C 572.511719 415.5625 574.40625 419.875 569.816406 423.101562 C 565.226562 426.328125 574.394531 427.671875 575.203125 431.449219 C 576.015625 435.210938 572.234375 434.414062 569.816406 436.828125 L 527.515625 435.210938 C 529.339844 440.867188 534.378906 441.472656 542.675781 443.484375 C 543.371094 443.65625 544.140625 443.789062 544.953125 443.890625 C 540.664062 443.800781 536.753906 443.410156 534.265625 442.472656 C 525.648438 439.246094 522.953125 433.863281 518.914062 431.96875 C 514.871094 430.089844 502.214844 423.359375 505.167969 431.433594 C 505.167969 431.433594 507.152344 434.039062 509.078125 436.917969 C 507.789062 436.179688 506.3125 435.699219 504.707031 435.800781 C 498.4375 436.207031 493.988281 446.507812 493.988281 446.507812 L 506.515625 448.664062 L 513.003906 444.699219 C 513.410156 447.1875 512.136719 448.878906 506.515625 448.664062 C 499.507812 448.386719 481.1875 444.351562 473.917969 443.816406 C 466.648438 443.28125 463.402344 443.816406 467.445312 449.199219 C 471.484375 454.578125 468.792969 455.390625 475.265625 460.769531 C 477.074219 462.277344 479.246094 463.707031 481.78125 465.054688 C 479.652344 464.300781 477.597656 463.738281 475.003906 463.460938 C 467.183594 462.652344 457.496094 450.816406 457.496094 450.816406 C 457.496094 450.816406 458.304688 458.890625 457.21875 471 C 456.132812 483.105469 448.605469 492.523438 448.605469 492.523438 C 448.605469 492.523438 590.324219 493.058594 586.007812 492.25 C 581.691406 491.441406 574.421875 480.953125 573.609375 480.402344 C 572.988281 479.980469 567.457031 478.78125 558.101562 476.914062 C 559.316406 477.089844 560.519531 477.25 561.75 477.449219 C 581.417969 480.675781 603.242188 487.679688 619.402344 484.453125 C 635.5625 481.226562 640.953125 466.703125 637.445312 456.472656 Z M 637.445312 456.472656 " fill-opacity="1" fill-rule="evenodd"/><path fill="#f7ce4d" d="M 322.757812 145.882812 C 319.789062 139.691406 312.792969 132.152344 314.675781 124.355469 C 316.558594 116.542969 324.378906 103.625 339.46875 104.175781 C 354.558594 104.710938 362.640625 119.511719 362.105469 128.941406 C 361.566406 138.359375 354.285156 145.621094 353.210938 150.207031 C 352.140625 154.777344 351.863281 156.125 351.863281 156.125 C 351.863281 156.125 352.402344 159.351562 352.675781 163.9375 C 352.953125 168.523438 345.40625 168.507812 345.40625 168.507812 C 345.40625 168.507812 344.335938 174.699219 340.019531 175.234375 C 335.703125 175.769531 334.097656 169.578125 334.097656 169.578125 C 334.097656 169.578125 331.9375 169.042969 328.433594 167.957031 C 324.929688 166.886719 328.433594 164.457031 326.550781 162.300781 C 324.667969 160.144531 326.550781 156.386719 326.550781 156.386719 C 326.550781 156.386719 325.710938 152.074219 322.757812 145.882812 Z M 201.371094 341.554688 L 176.722656 339.671875 C 179.140625 351.519531 181.980469 360.535156 163.382812 364.976562 C 144.789062 369.417969 121.488281 340.207031 121.488281 340.207031 C 121.488281 340.207031 100.734375 340.339844 81.34375 345.183594 C 61.9375 350.03125 60.738281 366.582031 60.738281 366.582031 C 60.085938 383.21875 66.023438 396.164062 72.597656 407.332031 C 71.484375 405.8125 70.84375 404.929688 70.84375 404.929688 L 52.65625 492.132812 L 136.316406 493.347656 L 153.695312 490.933594 C 143.585938 488.113281 122.980469 468.726562 113.683594 459.84375 C 109.628906 455.96875 100.925781 444.988281 92.421875 433.863281 C 95.636719 437.207031 97.910156 439.257812 97.910156 439.257812 C 104.386719 402.515625 133.886719 406.566406 133.886719 406.566406 L 162.167969 435.222656 L 205.816406 374.261719 C 205.816406 374.261719 202.179688 365.378906 199.34375 358.929688 C 196.519531 352.445312 201.371094 341.554688 201.371094 341.554688 Z M 427.691406 452.164062 C 421.21875 450.949219 303.222656 452.164062 303.222656 452.164062 C 303.222656 452.164062 296.746094 461.855469 309.289062 461.855469 C 321.816406 461.855469 384.871094 458.226562 390.515625 462.261719 C 396.164062 466.296875 399.816406 477.59375 398.191406 482.035156 C 396.570312 486.476562 391.71875 487.289062 385.664062 487.289062 C 379.613281 487.289062 302.410156 487.289062 302.410156 487.289062 L 300.789062 490.917969 L 439.40625 492.539062 C 439.40625 492.539062 440.21875 469.929688 439.003906 463.476562 C 437.800781 457.011719 434.164062 453.378906 427.691406 452.164062 Z M 566.3125 426.328125 C 566.3125 426.328125 579.519531 419.324219 576.421875 407.75 C 573.320312 396.179688 569.28125 391.332031 556.882812 391.070312 C 544.488281 390.796875 466.894531 390.390625 466.894531 390.390625 C 466.894531 390.390625 459.625 394.832031 460.03125 398.464844 C 460.433594 402.09375 529.671875 398.058594 535.058594 400.75 C 540.449219 403.441406 542.332031 410.441406 540.171875 413.945312 C 538.015625 417.445312 535.320312 419.324219 526.703125 419.601562 C 518.085938 419.875 457.464844 419.601562 457.464844 419.601562 C 457.464844 419.601562 462.855469 426.328125 474.714844 426.863281 C 486.5625 427.410156 566.3125 426.328125 566.3125 426.328125 Z M 494.582031 428.511719 C 494.960938 428.148438 495.191406 427.933594 495.191406 427.933594 L 469.53125 428.945312 C 469.53125 428.945312 459.421875 434.601562 459.828125 444.480469 C 460.234375 454.375 467.707031 461.640625 473.164062 462.042969 C 478.625 462.449219 473.976562 456.183594 470.933594 451.742188 C 467.90625 447.304688 463.257812 443.46875 468.71875 442.660156 C 474.179688 441.847656 486.503906 446.695312 486.503906 446.695312 C 486.503906 446.695312 485.082031 438.625 488.71875 434.585938 C 489.398438 433.835938 490.023438 433.15625 490.628906 432.519531 C 488.820312 435.960938 486.707031 440.964844 487.300781 444.683594 C 488.3125 450.949219 495.582031 447.707031 495.582031 447.707031 C 495.582031 447.707031 496.785156 435.46875 504.675781 435.800781 C 509.527344 436.003906 503.460938 428.335938 503.460938 428.335938 Z M 513.773438 427.542969 L 525.082031 435.410156 C 525.082031 435.410156 575.1875 436.828125 574.796875 434.601562 C 574.394531 432.386719 570.757812 428.539062 570.757812 428.539062 Z M 513.773438 427.542969 " fill-opacity="1" fill-rule="evenodd"/><path fill="#000000" d="M 175.101562 241.15625 C 175.101562 241.15625 164.992188 247.074219 156.101562 249.097656 C 147.207031 251.125 139.128906 249.097656 135.898438 254.351562 C 132.667969 259.601562 136.304688 271.304688 140.34375 276.960938 C 144.382812 282.617188 144.382812 283.820312 138.316406 283.023438 C 132.25 282.214844 128.207031 283.832031 127.007812 288.273438 C 125.804688 292.714844 133.074219 301.191406 140.34375 303.609375 L 137.925781 315.457031 C 137.925781 315.457031 110.988281 304.160156 109.902344 283.703125 C 109.902344 283.703125 87.269531 286.394531 84.574219 272.941406 C 81.878906 259.488281 84.574219 251.949219 91.046875 248.171875 C 97.519531 244.398438 109.902344 242.257812 118.535156 247.636719 C 118.535156 247.636719 132.003906 232.027344 149.785156 229.339844 C 167.554688 226.632812 171.335938 229.859375 175.101562 241.15625 Z M 244.351562 97.710938 C 230.347656 89.101562 212.824219 90.984375 194.246094 95.828125 C 175.648438 100.675781 168.917969 119.25 167.308594 129.738281 C 165.703125 140.226562 171.886719 163.113281 171.074219 174.683594 C 170.261719 186.257812 155.722656 208.332031 155.722656 208.332031 C 155.722656 208.332031 181.050781 208.058594 188.320312 203.488281 C 195.59375 198.914062 193.433594 167.957031 193.433594 167.957031 C 188.582031 162.300781 184.542969 151.8125 187.511719 148.039062 C 190.480469 144.277344 200.441406 149.109375 200.441406 149.109375 C 219.039062 144 242.46875 120.582031 242.46875 120.582031 C 242.46875 120.582031 249.203125 131.878906 250.550781 144 C 251.898438 156.125 251.621094 162.578125 245.699219 171.71875 C 239.777344 180.863281 221.457031 181.945312 221.457031 181.945312 C 221.457031 181.945312 219.574219 178.980469 220.644531 194.054688 C 221.71875 209.128906 239.238281 202.402344 248.390625 199.710938 C 257.558594 197.019531 269.144531 200.246094 269.144531 200.246094 C 269.144531 200.246094 258.371094 178.980469 257.558594 167.148438 C 256.75 155.3125 267.523438 138.894531 269.144531 127.582031 C 270.753906 116.285156 258.355469 106.316406 244.351562 97.710938 Z M 649.566406 388.105469 C 649.566406 388.105469 667.625 376.535156 663.570312 364.425781 C 659.515625 352.316406 648.222656 349.625 635.824219 344.246094 C 623.429688 338.863281 600.257812 329.445312 595.679688 316.253906 C 591.105469 303.058594 587.859375 286.640625 585.71875 276.152344 C 583.574219 265.664062 581.402344 258.660156 570.089844 255.160156 C 558.78125 251.660156 544.226562 261.886719 544.226562 261.886719 C 544.226562 261.886719 555 273.664062 555.710938 288.230469 C 553.566406 274.445312 542.34375 256.117188 526.992188 248.695312 C 510.296875 240.621094 489.269531 246.539062 477.957031 251.921875 C 466.648438 257.300781 464.214844 277.757812 464.214844 277.757812 C 464.214844 277.757812 472.570312 275.601562 473.773438 275.339844 C 479.289062 262.148438 492.773438 255.566406 492.773438 255.566406 L 515.410156 291.09375 C 515.410156 291.09375 530.5 290.691406 530.367188 301.988281 C 530.238281 313.285156 511.367188 309.25 511.367188 309.25 L 505.445312 315.441406 L 506.515625 326.609375 C 506.515625 326.609375 519.984375 325.667969 534.265625 321.894531 C 540.070312 320.359375 544.820312 317.394531 548.414062 313.488281 C 546.777344 315.761719 545.574219 316.511719 545.574219 316.511719 C 545.574219 316.511719 550.148438 352.578125 556.347656 356.886719 C 562.546875 361.199219 577.101562 369.808594 594.871094 391.609375 C 612.652344 413.410156 625.585938 435.484375 625.585938 435.484375 C 625.585938 435.484375 634.753906 440.332031 644.992188 433.066406 C 655.230469 425.804688 661.152344 411.542969 658.460938 402.386719 C 655.765625 393.226562 649.566406 388.105469 649.566406 388.105469 Z M 649.566406 388.105469 " fill-opacity="1" fill-rule="evenodd"/><g clip-path="url(#5b3e835d1c)"><path fill="#000000" d="M 653.027344 389.234375 C 654.492188 388.484375 656.214844 387.425781 657.925781 385.921875 C 661.71875 382.59375 666.105469 376.488281 665.398438 366.246094 C 664.484375 352.910156 655.417969 349.410156 640.402344 343.621094 C 633.03125 340.773438 623.832031 337.242188 613.203125 331.585938 C 595.941406 322.414062 592.667969 303.304688 589.757812 286.453125 C 587.457031 273.042969 585.457031 261.453125 577.070312 256.390625 C 560.691406 246.496094 547.050781 255.710938 543.605469 258.429688 C 527.414062 240.808594 507.457031 237.265625 482.75 247.609375 C 463.101562 255.828125 462.882812 273.75 463.011719 277.003906 C 462.375 277.207031 461.753906 277.394531 461.21875 277.582031 C 459.898438 278.019531 458.914062 278.929688 458.394531 280.1875 C 457.378906 282.648438 458.4375 285.886719 459.132812 287.523438 C 457.871094 290.878906 454.164062 302.640625 459.480469 312.128906 C 462.839844 318.148438 469.082031 321.980469 478.03125 323.542969 C 482.476562 335.449219 484.214844 346.921875 481.664062 347.960938 C 478.941406 349.078125 477.40625 348.410156 474.324219 347.078125 C 471.222656 345.734375 466.996094 343.898438 459.914062 343.695312 C 447.910156 343.277344 411.082031 352.054688 400.683594 354.601562 C 401.058594 345.503906 401.769531 334.914062 403.117188 327.753906 C 404.289062 321.519531 406.433594 315.917969 408.488281 310.507812 C 411.457031 302.710938 414.265625 295.363281 414.265625 286.640625 C 414.265625 275.355469 409.808594 267.371094 405.390625 265.300781 C 403.695312 264.507812 402.03125 264.636719 400.828125 265.648438 C 398.972656 267.183594 399.234375 270.363281 399.597656 274.75 C 399.769531 276.933594 400.148438 281.417969 399.480469 282.488281 C 399.453125 282.488281 399.410156 282.472656 399.351562 282.472656 C 393.542969 281.316406 385.753906 274.804688 385.449219 270.855469 C 385.332031 269.410156 386.289062 266.921875 387.113281 264.738281 C 388.519531 261.035156 389.867188 257.546875 388.199219 255 C 387.332031 253.671875 385.855469 252.933594 383.796875 252.816406 C 380.769531 252.644531 377.976562 253.976562 375.746094 256.636719 C 372.039062 261.078125 370.546875 268.527344 371.851562 275.53125 C 368.242188 277.582031 366.722656 281.808594 366.535156 282.386719 C 366.160156 282.574219 365.78125 282.792969 365.433594 283.039062 C 361.710938 285.773438 361.726562 291.050781 361.757812 291.644531 C 361.769531 292.035156 361.886719 292.382812 362.074219 292.699219 C 361.757812 292.859375 361.554688 292.960938 361.511719 292.992188 C 361.335938 293.089844 361.175781 293.207031 361.03125 293.351562 C 357.441406 296.941406 358.382812 303.40625 363.769531 312.070312 C 366.289062 316.136719 367 320.839844 365.722656 324.988281 C 365.40625 326.003906 365 326.957031 364.523438 327.8125 C 359.136719 337.34375 344.234375 368.460938 346.421875 385.90625 C 348.578125 403.195312 355.574219 408.921875 374.933594 408.921875 C 375.382812 408.921875 375.847656 408.921875 376.324219 408.910156 C 394.789062 408.664062 435.960938 401.804688 445.519531 400.171875 C 443.765625 411.136719 444.027344 424.171875 450.082031 436.742188 C 463.375 464.34375 447.878906 490.066406 447.71875 490.3125 C 447.605469 490.515625 447.515625 490.714844 447.472656 490.933594 L 441.871094 490.933594 L 441.871094 467.382812 C 441.871094 457.546875 433.859375 449.546875 424 449.546875 L 305.421875 449.546875 C 302.554688 434.660156 280.5 367.175781 273.734375 350.550781 C 267.292969 334.726562 263.410156 304.550781 274.910156 287.03125 C 275.820312 285.65625 276.601562 284.222656 277.285156 282.792969 C 279.890625 287.363281 285.25 296.492188 291.648438 305.820312 C 303.988281 323.789062 314.15625 333.828125 321.859375 335.667969 C 324.320312 336.257812 326.625 336.546875 328.78125 336.546875 C 333.3125 336.546875 337.136719 335.246094 340.207031 332.65625 C 345.839844 327.898438 348.390625 319.058594 347.59375 307.09375 C 347.273438 302.378906 346.476562 296.246094 345.636719 289.765625 C 343.304688 271.753906 340.105469 247.089844 346.203125 240.433594 C 349.96875 236.324219 356.804688 234.851562 362.828125 233.546875 C 369.621094 232.085938 376.613281 230.582031 376.917969 224.839844 C 378.382812 224.1875 380.367188 222.945312 381.308594 220.730469 C 382.117188 218.808594 381.972656 216.667969 380.871094 214.351562 C 381.699219 212.832031 382.796875 210.140625 382 207.683594 C 381.609375 206.46875 380.597656 204.847656 378.035156 203.992188 C 374.3125 202.75 365.261719 202.605469 358.730469 202.675781 C 361.132812 200.867188 363.828125 198.65625 365.941406 196.457031 C 368.894531 193.375 369.75 190.121094 368.230469 187.71875 C 366.839844 185.535156 363.855469 184.824219 360.597656 185.910156 C 355.558594 187.589844 333.023438 202.054688 325.855469 208.941406 C 324.652344 206.582031 324.652344 203.5 324.652344 200.492188 C 324.652344 196.6875 324.667969 193.085938 322.175781 190.871094 C 319.585938 188.574219 317.296875 189.050781 316.152344 189.542969 C 312.621094 191.0625 310.605469 196.601562 310.332031 205.585938 C 310.128906 211.992188 310.402344 231.101562 310.75 249.273438 C 298.425781 224.621094 286.148438 209.027344 273.375 201.78125 C 273.34375 201.738281 273.332031 201.691406 273.300781 201.664062 C 265.902344 194.128906 261.308594 184.03125 259.671875 171.675781 C 258.328125 161.578125 262.136719 153.695312 266.539062 144.566406 L 267.261719 143.0625 C 269.433594 138.535156 270.519531 134.757812 270.636719 131.183594 C 271.402344 110.207031 251.347656 94.84375 232.085938 91.039062 C 217.183594 88.105469 195.851562 89.203125 180.660156 101.125 C 160.980469 116.574219 164.644531 140.457031 167.308594 157.890625 C 167.917969 161.851562 168.496094 165.601562 168.714844 168.78125 C 169.871094 185.027344 153.261719 206.988281 153.101562 207.203125 C 152.957031 207.40625 152.855469 207.625 152.769531 207.839844 C 142.152344 211.269531 132.667969 218.691406 130.0625 235.601562 C 126.628906 237.960938 122.847656 241.128906 119.433594 245.265625 C 115.898438 243.933594 102.023438 239.335938 92.003906 244.773438 C 86.820312 247.582031 83.558594 252.558594 82.300781 259.542969 C 80.707031 268.339844 82.214844 275.09375 86.746094 279.609375 C 91.726562 284.570312 99.246094 285.613281 104.632812 285.613281 C 106.3125 285.613281 107.773438 285.511719 108.890625 285.394531 C 110.335938 294.957031 115.363281 301.859375 120.792969 306.691406 L 114.871094 337.15625 C 114.710938 337.171875 114.566406 337.183594 114.390625 337.183594 C 92.46875 338.847656 55.753906 341.640625 58.332031 375.621094 C 58.957031 383.898438 62.75 393.660156 68.355469 403.890625 C 68.3125 404.003906 68.269531 404.121094 68.253906 404.238281 L 51.222656 490.90625 L 9.878906 490.90625 C 8.675781 490.90625 7.703125 491.875 7.703125 493.074219 C 7.703125 494.273438 8.675781 495.246094 9.878906 495.246094 L 639.777344 495.246094 C 640.980469 495.246094 641.949219 494.273438 641.949219 493.074219 C 641.949219 491.875 640.980469 490.90625 639.777344 490.90625 L 589.0625 490.90625 C 588.917969 490.789062 588.773438 490.671875 588.597656 490.585938 C 585.457031 489.023438 582.125 486.261719 579.605469 483.933594 C 588.265625 485.683594 598.636719 487.246094 608.238281 487.246094 C 615.058594 487.246094 621.472656 486.464844 626.585938 484.394531 C 631.929688 482.238281 635.636719 478.347656 637.589844 472.820312 C 640.921875 463.417969 638.128906 451.453125 635.070312 445.972656 C 634.289062 444.554688 632.550781 441.734375 630.105469 437.941406 C 631.304688 438.160156 632.523438 438.277344 633.738281 438.277344 C 637.15625 438.277344 640.632812 437.453125 643.949219 435.800781 C 651.59375 431.996094 657.445312 424.300781 659.964844 414.667969 C 663.425781 401.546875 657.113281 393.113281 653.027344 389.234375 Z M 484.445312 251.617188 C 509.371094 241.1875 528.269531 245.597656 543.921875 265.488281 C 553.914062 278.175781 556.304688 294.726562 549.847656 306.675781 C 543.269531 318.839844 528.484375 324.671875 508.167969 323.195312 C 508.007812 320.5625 507.949219 318.003906 507.980469 315.703125 L 511.789062 311.289062 C 515.800781 312.214844 524.097656 313.15625 529.109375 309.570312 C 531.542969 307.832031 532.875 305.230469 532.960938 302.046875 C 533.03125 299.167969 532.089844 296.695312 530.152344 294.699219 C 526.285156 290.734375 519.449219 289.894531 516.652344 289.722656 L 494.628906 254.640625 C 493.988281 253.628906 492.65625 253.324219 491.644531 253.945312 C 490.976562 254.351562 475.902344 263.726562 471.382812 274.558594 C 470.429688 274.820312 468.9375 275.253906 467.3125 275.71875 C 467.34375 271.390625 468.746094 258.183594 484.445312 251.617188 Z M 527.53125 349.972656 C 523.691406 349.699219 520.390625 349.453125 517.785156 348.933594 C 512.425781 347.859375 509.644531 337.765625 508.542969 327.566406 C 510.558594 327.695312 512.496094 327.78125 514.351562 327.78125 C 528.921875 327.78125 538.476562 323.832031 544.734375 319.085938 C 545.980469 327 549.0625 344.433594 553.453125 354.269531 C 543.910156 351.175781 534.726562 350.507812 527.53125 349.972656 Z M 483.332031 351.96875 C 487.429688 350.292969 488.242188 344.476562 485.808594 334.191406 C 484.199219 327.390625 481.753906 321.070312 481.652344 320.792969 C 481.375 320.070312 480.710938 319.550781 479.941406 319.433594 C 471.730469 318.234375 466.125 315.066406 463.304688 310.015625 C 461.117188 306.125 460.839844 301.613281 461.230469 297.707031 C 461.433594 298.011719 461.636719 298.3125 461.867188 298.601562 C 462.910156 299.933594 464.246094 301.078125 465.792969 301.859375 C 467.328125 302.625 469.007812 303.160156 470.6875 303.21875 C 471.527344 303.332031 472.339844 303.1875 473.164062 303.160156 C 473.960938 303.03125 474.742188 302.855469 475.511719 302.652344 C 476.03125 302.507812 476.453125 302.0625 476.511719 301.496094 C 476.582031 300.757812 476.046875 300.09375 475.308594 300.019531 L 475.078125 299.992188 C 474.382812 299.917969 473.714844 299.964844 473.050781 299.890625 C 472.398438 299.773438 471.746094 299.789062 471.136719 299.601562 C 469.890625 299.382812 468.761719 298.90625 467.707031 298.34375 C 466.648438 297.765625 465.707031 296.996094 464.851562 296.085938 C 464.027344 295.203125 463.203125 294.089844 462.59375 293.105469 L 462.460938 292.890625 C 462.375 292.757812 462.273438 292.644531 462.160156 292.527344 C 462.796875 290.011719 463.492188 288.347656 463.503906 288.304688 C 463.75 287.726562 463.738281 287.042969 463.449219 286.480469 C 462.679688 284.945312 462.070312 282.660156 462.417969 281.835938 C 462.449219 281.765625 462.460938 281.75 462.609375 281.691406 C 466.214844 280.492188 473.542969 278.453125 473.613281 278.4375 C 474.292969 278.25 474.84375 277.726562 475.089844 277.0625 C 477.800781 269.265625 487.964844 261.671875 492.136719 258.820312 L 513.597656 292.992188 C 513.988281 293.625 514.683594 294.003906 515.4375 294.003906 C 517.667969 294.003906 524.113281 294.683594 527.050781 297.722656 C 528.167969 298.863281 528.671875 300.238281 528.628906 301.929688 C 528.574219 303.78125 527.933594 305.085938 526.601562 306.039062 C 522.882812 308.6875 515.0625 307.832031 511.6875 306.777344 C 510.859375 306.515625 509.964844 306.777344 509.398438 307.429688 L 504.183594 313.460938 C 503.851562 313.835938 503.664062 314.328125 503.648438 314.820312 C 503.5625 318.453125 503.1875 350.449219 516.929688 353.183594 C 519.796875 353.761719 523.230469 354.007812 527.195312 354.296875 C 528.671875 354.398438 530.195312 354.515625 531.773438 354.660156 C 527.09375 361.039062 512.019531 378.6875 489.195312 377.402344 C 481.652344 376.980469 476.234375 374.507812 473.105469 370.039062 C 468.558594 363.542969 469.761719 354.3125 470.601562 350.21875 C 471.296875 350.496094 471.964844 350.785156 472.585938 351.042969 C 475.859375 352.460938 478.914062 353.777344 483.332031 351.96875 Z M 387.984375 292.28125 C 385.8125 288.1875 380.988281 284.5 374.804688 282.371094 C 373.71875 281.996094 372.703125 281.765625 371.734375 281.632812 C 372.386719 280.605469 373.296875 279.550781 374.441406 279.058594 C 375.527344 278.582031 376.746094 278.652344 378.164062 279.277344 C 383.074219 281.460938 387.648438 286.496094 388.171875 290.269531 C 388.257812 291.023438 388.199219 291.6875 387.984375 292.28125 Z M 379.105469 259.386719 C 380.4375 257.792969 381.929688 257.027344 383.582031 257.128906 C 384.347656 257.171875 384.566406 257.34375 384.566406 257.34375 C 385 258.082031 383.738281 261.394531 383.058594 263.175781 C 382.015625 265.910156 380.929688 268.746094 381.117188 271.175781 C 381.308594 273.578125 382.742188 276.050781 384.78125 278.320312 C 383.203125 277.09375 381.523438 276.050781 379.917969 275.339844 C 378.628906 274.761719 377.324219 274.472656 376.078125 274.445312 C 375.109375 268.789062 376.265625 262.769531 379.105469 259.386719 Z M 368.027344 286.496094 C 369.171875 285.65625 370.980469 285.65625 373.386719 286.480469 C 379.46875 288.5625 384.175781 292.554688 384.824219 296.203125 C 384.96875 296.996094 384.898438 297.765625 384.621094 298.488281 C 383.320312 295.824219 380.960938 293.425781 378.003906 292.066406 C 373.632812 290.054688 369.257812 290.429688 366.101562 291.238281 C 366.160156 290.066406 366.535156 287.59375 368.027344 286.496094 Z M 376.253906 404.539062 C 356.398438 404.816406 352.445312 399.101562 350.722656 385.328125 C 348.839844 370.253906 361.742188 341.480469 368.300781 329.910156 C 368.9375 328.78125 369.476562 327.535156 369.878906 326.234375 C 371.53125 320.882812 370.648438 314.878906 367.460938 309.742188 C 363.59375 303.507812 362.292969 298.648438 363.914062 296.59375 C 365.230469 295.957031 370.878906 293.527344 376.210938 295.984375 C 379.757812 297.621094 381.769531 301.292969 381.351562 303.578125 C 381.21875 304.304688 380.859375 305.140625 379.132812 305.285156 C 376.410156 305.503906 375.730469 304.519531 374.617188 302.886719 C 373.675781 301.511719 372.402344 299.628906 369.707031 299.269531 C 368.519531 299.109375 367.417969 299.949219 367.257812 301.136719 C 367.101562 302.320312 367.941406 303.421875 369.128906 303.578125 C 369.824219 303.667969 370.183594 304.113281 371.011719 305.332031 C 372.285156 307.210938 374.226562 310.03125 379.46875 309.613281 C 382.769531 309.351562 385.070312 307.382812 385.609375 304.347656 C 385.621094 304.304688 385.621094 304.246094 385.621094 304.203125 C 387.839844 302.292969 389.054688 299.964844 389.199219 297.476562 C 389.285156 297.417969 389.375 297.386719 389.460938 297.332031 C 391.835938 295.378906 392.863281 292.730469 392.457031 289.675781 C 392.066406 286.8125 390.386719 283.90625 388.113281 281.402344 C 391.472656 284.066406 395.410156 286.074219 398.496094 286.683594 C 400.363281 287.058594 401.609375 286.394531 402.304688 285.773438 C 404.695312 283.644531 404.320312 279.132812 403.925781 274.359375 C 403.796875 272.738281 403.609375 270.421875 403.726562 269.25 C 405.652344 270.21875 409.921875 275.863281 409.921875 286.609375 C 409.921875 294.539062 407.257812 301.527344 404.433594 308.933594 C 402.304688 314.53125 400.105469 320.304688 398.84375 326.914062 C 395.960938 342.160156 395.917969 371.324219 395.917969 372.554688 C 395.917969 373.757812 396.890625 374.726562 398.089844 374.726562 C 399.292969 374.726562 400.261719 373.757812 400.261719 372.554688 C 400.261719 372.425781 400.261719 366.710938 400.507812 359.085938 C 404.128906 358.203125 413.949219 355.847656 424.78125 353.519531 C 423.519531 360.75 421.972656 378.660156 432.328125 397.886719 C 415.917969 400.519531 389.605469 404.367188 376.253906 404.539062 Z M 453.992188 434.832031 C 440.667969 407.160156 458.132812 375.738281 458.320312 375.433594 C 458.914062 374.390625 458.554688 373.0625 457.496094 372.484375 C 456.453125 371.890625 455.136719 372.25 454.542969 373.292969 C 454.136719 374 449.140625 382.984375 446.375 395.585938 C 445.332031 395.757812 441.871094 396.367188 436.886719 397.164062 C 425.390625 376.894531 428.386719 357.46875 429.414062 352.546875 C 441.535156 350.046875 453.976562 347.847656 459.785156 348.007812 C 462.433594 348.09375 464.589844 348.425781 466.445312 348.875 C 465.445312 353.359375 463.839844 364.339844 469.53125 372.496094 C 473.453125 378.125 479.984375 381.21875 488.949219 381.726562 C 489.847656 381.769531 490.746094 381.800781 491.628906 381.800781 C 518.449219 381.800781 534.25 358.984375 536.726562 355.136719 C 548.773438 356.570312 562.835938 360.070312 575.089844 372.308594 C 581.9375 379.152344 589.988281 389.019531 597.851562 399.40625 C 589.324219 398.941406 581.878906 402.804688 577.855469 405.453125 C 576 396.339844 567.90625 389.453125 558.246094 389.453125 L 468.226562 389.453125 C 462.636719 389.453125 458.089844 393.996094 458.089844 399.578125 C 458.089844 400.777344 459.058594 401.75 460.261719 401.75 L 463.304688 401.75 C 464.316406 403.917969 465.722656 407.695312 465.257812 410.140625 C 464.824219 412.46875 463.851562 414.941406 463.113281 416.589844 L 459.695312 416.589844 C 458.496094 416.589844 457.523438 417.558594 457.523438 418.761719 C 457.523438 423.695312 460.882812 427.832031 465.445312 429.0625 C 460.984375 432.230469 457.871094 437.160156 457.148438 442.847656 C 456.351562 440.214844 455.292969 437.539062 453.992188 434.832031 Z M 570.613281 433.328125 L 525.605469 433.328125 C 525.488281 433.328125 525.371094 433.34375 525.257812 433.355469 C 523.316406 432.039062 521.1875 430.796875 519 429.710938 L 567.050781 429.710938 C 569.46875 429.710938 571.554688 431.203125 572.410156 433.328125 Z M 531.890625 439.011719 C 531.496094 438.578125 531.078125 438.132812 530.613281 437.683594 L 567.222656 437.683594 C 566.789062 438.78125 566.355469 440.085938 566.035156 441.429688 C 546.429688 442.3125 533.769531 441.15625 531.890625 439.011719 Z M 497.058594 445.988281 C 497.046875 445.828125 497.03125 445.667969 497.03125 445.496094 C 497.03125 441.167969 500.550781 437.652344 504.878906 437.652344 L 506.414062 437.652344 C 507.039062 438.261719 507.691406 438.882812 508.355469 439.503906 C 509.628906 440.691406 511.484375 442.425781 512.0625 443.308594 C 510.976562 444.4375 505.71875 446.320312 497.058594 445.988281 Z M 502.882812 433.503906 C 497.101562 434.457031 492.6875 439.460938 492.6875 445.496094 C 492.6875 445.539062 492.699219 445.597656 492.699219 445.640625 C 491.425781 445.496094 490.222656 445.304688 489.050781 445.074219 C 488.5 433.257812 495.871094 429.957031 496.234375 429.8125 C 496.308594 429.785156 496.378906 429.742188 496.453125 429.699219 L 502.113281 429.699219 C 502.054688 429.929688 502.027344 430.160156 502 430.363281 C 501.925781 431.417969 502.273438 432.460938 502.882812 433.503906 Z M 467.75 440.605469 C 466.226562 441.167969 465.199219 442.269531 464.867188 443.6875 C 464.171875 446.566406 466.5625 449.949219 467.9375 451.613281 C 467.953125 455.042969 470.167969 458.066406 472.644531 460.394531 C 466.125 458.5 461.347656 452.496094 461.347656 445.378906 C 461.347656 436.757812 468.371094 429.726562 477.015625 429.726562 L 489.441406 429.726562 C 486.996094 432.503906 484.621094 437.03125 484.679688 444.078125 C 482.433594 443.453125 480.421875 442.773438 478.609375 442.167969 C 474.207031 440.664062 470.71875 439.476562 467.75 440.605469 Z M 558.261719 425.113281 L 468.226562 425.113281 C 465.488281 425.113281 463.15625 423.375 462.273438 420.945312 L 462.433594 420.945312 C 462.839844 421.453125 463.449219 421.769531 464.113281 421.769531 L 530.398438 421.769531 C 537.117188 421.769531 542.589844 416.300781 542.589844 409.589844 C 542.589844 402.875 537.117188 397.410156 530.398438 397.410156 L 462.867188 397.410156 C 463.722656 395.296875 465.808594 393.792969 468.226562 393.792969 L 538.839844 393.792969 C 538.914062 393.835938 538.96875 393.878906 539.042969 393.90625 C 539.476562 394.082031 549.554688 398.535156 545.167969 416.054688 C 544.878906 417.214844 545.589844 418.398438 546.746094 418.6875 C 546.921875 418.730469 547.109375 418.746094 547.28125 418.746094 C 548.253906 418.746094 549.136719 418.082031 549.382812 417.097656 C 552.46875 404.785156 549.136719 397.640625 545.734375 393.792969 L 558.246094 393.792969 C 566.875 393.792969 573.914062 400.808594 573.914062 409.445312 C 573.914062 418.082031 566.890625 425.113281 558.261719 425.113281 Z M 468.054688 401.75 L 530.398438 401.75 C 534.726562 401.75 538.246094 405.261719 538.246094 409.589844 C 538.246094 413.914062 534.726562 417.429688 530.398438 417.429688 L 467.515625 417.429688 C 468.269531 415.621094 469.109375 413.261719 469.542969 410.949219 C 470.109375 407.941406 469.050781 404.308594 468.054688 401.75 Z M 437.511719 467.351562 L 437.511719 490.90625 L 303.207031 490.90625 C 303.074219 489.933594 303.132812 489.152344 303.421875 488.707031 C 303.613281 488.402344 303.902344 488.285156 304.003906 488.257812 C 307.972656 488.316406 366.101562 489.082031 378.757812 489.082031 L 381.003906 489.082031 C 392.558594 489.125 400.234375 489.152344 400.683594 475.050781 C 401.058594 463.316406 392.804688 459.585938 388.386719 459.253906 C 388.332031 459.253906 388.273438 459.253906 388.214844 459.253906 L 306.289062 459.253906 C 305.625 459.253906 304.464844 459.164062 304.132812 458.585938 C 303.597656 457.691406 304.160156 455.546875 304.902344 453.855469 L 399.003906 453.855469 C 399.164062 454.015625 399.320312 454.160156 399.523438 454.277344 C 400.117188 454.59375 413.863281 462.433594 407.140625 482.949219 C 406.765625 484.089844 407.386719 485.304688 408.53125 485.683594 C 408.765625 485.753906 408.980469 485.785156 409.214844 485.785156 C 410.125 485.785156 410.980469 485.203125 411.285156 484.292969 C 416.570312 468.164062 410.503906 458.5 405.867188 453.839844 L 424 453.839844 C 431.457031 453.839844 437.511719 459.902344 437.511719 467.351562 Z M 309.203125 483.988281 C 313.5625 477.582031 311.230469 468.367188 309.519531 463.578125 L 388.128906 463.578125 C 389.300781 463.707031 396.671875 464.894531 396.351562 474.90625 C 396.035156 484.785156 392.878906 484.785156 381.03125 484.742188 L 378.773438 484.742188 C 368.027344 484.742188 324.496094 484.175781 309.203125 483.988281 Z M 310.925781 259.339844 C 311.230469 274.113281 311.519531 286.335938 311.546875 287.507812 C 311.578125 288.695312 312.546875 289.621094 313.71875 289.621094 C 313.734375 289.621094 313.75 289.621094 313.777344 289.621094 C 314.980469 289.589844 315.921875 288.59375 315.890625 287.390625 C 315.878906 286.710938 314.257812 218.617188 314.660156 205.671875 C 314.9375 196.992188 316.878906 193.894531 317.863281 193.476562 C 318.3125 193.289062 318.949219 193.765625 319.28125 194.070312 C 320.308594 194.980469 320.308594 197.757812 320.292969 200.433594 C 320.292969 204.484375 320.28125 209.085938 323.132812 212.703125 C 324.640625 214.625 331.867188 224.609375 325.59375 232.652344 C 324.855469 233.589844 325.03125 234.964844 325.972656 235.6875 C 326.914062 236.425781 328.289062 236.253906 329.011719 235.3125 C 334.644531 228.09375 332.429688 219.066406 328.316406 212.542969 C 333.921875 206.640625 357.367188 191.496094 361.960938 189.976562 C 363.464844 189.484375 364.378906 189.746094 364.535156 189.988281 C 364.726562 190.292969 364.550781 191.566406 362.785156 193.402344 C 358.28125 198.089844 350.488281 203.109375 350.417969 203.15625 C 349.589844 203.691406 349.230469 204.703125 349.519531 205.628906 C 349.824219 206.570312 350.664062 207.203125 351.675781 207.148438 C 357.179688 206.914062 372.386719 206.65625 376.628906 208.058594 C 377.65625 208.40625 377.800781 208.824219 377.84375 208.96875 C 378.089844 209.707031 377.6875 210.953125 377.164062 211.964844 C 370.226562 211.691406 349.808594 213.105469 347.316406 213.296875 C 346.117188 213.382812 345.21875 214.421875 345.304688 215.609375 C 345.390625 216.753906 346.332031 217.621094 347.460938 217.621094 C 347.519531 217.621094 347.5625 217.621094 347.621094 217.621094 C 354.296875 217.144531 371.515625 216.074219 376.976562 216.289062 C 377.46875 217.359375 377.570312 218.257812 377.28125 218.953125 C 376.804688 220.09375 375.296875 220.773438 374.472656 221.050781 C 364.347656 219.71875 348.246094 222.03125 347.5625 222.132812 C 346.375 222.308594 345.550781 223.40625 345.726562 224.59375 C 345.882812 225.679688 346.8125 226.445312 347.867188 226.445312 C 347.96875 226.445312 348.085938 226.445312 348.1875 226.417969 C 348.347656 226.386719 362.699219 224.332031 372.300781 225.15625 C 371.429688 226.953125 368.054688 227.878906 361.886719 229.207031 C 355.226562 230.640625 347.679688 232.273438 342.988281 237.394531 C 335.53125 245.527344 338.601562 269.265625 341.324219 290.210938 C 342.148438 296.621094 342.945312 302.683594 343.25 307.269531 C 343.945312 317.65625 341.859375 325.453125 337.398438 329.230469 C 333.996094 332.105469 329.101562 332.816406 322.871094 331.328125 C 312.476562 328.851562 296.601562 306.226562 286.480469 289.722656 C 286.523438 289.503906 286.539062 289.285156 286.523438 289.070312 C 286.523438 288.996094 285.785156 281.734375 288.175781 273.707031 C 291.257812 263.320312 297.933594 256.492188 308 253.382812 C 308.839844 255.101562 309.679688 256.867188 310.535156 258.691406 C 310.605469 258.980469 310.75 259.167969 310.925781 259.339844 Z M 173.015625 168.433594 C 172.769531 165.078125 172.1875 161.246094 171.566406 157.195312 C 168.917969 139.90625 165.613281 118.382812 183.3125 104.492188 C 197.34375 93.46875 217.257812 92.5 231.21875 95.25 C 248.726562 98.707031 266.957031 112.394531 266.277344 130.96875 C 266.175781 133.917969 265.234375 137.144531 263.324219 141.121094 L 262.597656 142.628906 C 258.09375 151.972656 253.835938 160.796875 255.34375 172.183594 C 256.675781 182.234375 259.847656 190.914062 264.800781 198.105469 C 255.242188 195.429688 246.859375 197.398438 239.847656 199.058594 C 237.183594 199.695312 234.648438 200.289062 232.359375 200.550781 C 228.640625 200.984375 226.019531 200.261719 224.339844 198.335938 C 221.269531 194.835938 221.789062 187.804688 222.46875 184.074219 C 236.617188 181.917969 246.089844 176.144531 250.621094 166.871094 C 260.121094 147.445312 244.222656 120.089844 243.542969 118.929688 C 243.148438 118.265625 242.453125 117.816406 241.628906 117.859375 C 240.847656 117.875 240.136719 118.308594 239.761719 118.988281 C 233.546875 130.359375 205.960938 145 199.601562 148.269531 C 197.285156 146.300781 192.464844 142.84375 188.421875 144.101562 C 186.832031 144.609375 184.757812 146.042969 183.949219 150.035156 C 181.980469 159.855469 189.394531 167.453125 191.828125 169.636719 C 192.914062 181.628906 192.101562 200.621094 185.324219 203.125 C 182.976562 203.992188 178.953125 204.238281 174.304688 204.527344 C 169.683594 204.816406 164.382812 205.152344 159.070312 206.179688 C 163.964844 198.988281 174.015625 182.324219 173.015625 168.433594 Z M 196.070312 168.378906 C 196.011719 167.796875 195.722656 167.261719 195.257812 166.902344 C 195.171875 166.828125 186.4375 159.8125 188.21875 150.929688 C 188.4375 149.875 188.871094 148.558594 189.726562 148.285156 C 191.609375 147.703125 195.636719 150.4375 197.765625 152.480469 C 198.429688 153.117188 199.414062 153.261719 200.226562 152.855469 C 200.890625 152.523438 208.464844 148.761719 217.214844 143.4375 C 216.878906 143.988281 216.621094 144.636719 216.519531 145.375 C 216.199219 147.445312 217.097656 149.3125 218.488281 149.511719 C 219.890625 149.730469 221.28125 148.210938 221.601562 146.144531 C 221.917969 144.074219 221.035156 142.207031 219.632812 142.003906 C 219.601562 142.003906 219.558594 142.003906 219.53125 142.003906 C 227.800781 136.8125 236.648438 130.402344 241.457031 124.285156 C 245.191406 131.761719 253.476562 151.191406 246.726562 165.007812 C 242.714844 173.210938 233.851562 178.273438 220.398438 180.023438 C 219.515625 180.136719 218.792969 180.773438 218.574219 181.644531 C 218.445312 182.179688 215.34375 194.675781 221.078125 201.230469 C 223.746094 204.269531 227.710938 205.511719 232.882812 204.90625 C 235.429688 204.617188 238.066406 203.980469 240.875 203.328125 C 242.585938 202.921875 244.351562 202.503906 246.175781 202.15625 C 248.015625 206.757812 257.601562 232.289062 249.667969 247.78125 C 246.667969 253.628906 241.382812 257.417969 233.96875 259.050781 C 203.730469 265.691406 178.125 219.964844 172.507812 209.070312 C 173.230469 209.027344 173.941406 208.984375 174.636719 208.941406 C 179.632812 208.636719 183.949219 208.363281 186.886719 207.277344 C 199.167969 202.664062 196.417969 171.878906 196.070312 168.378906 Z M 167.757812 209.390625 C 169.421875 212.773438 176.199219 226.039062 186.585938 238.742188 C 200.183594 255.378906 214.347656 263.984375 227.957031 263.984375 C 230.277344 263.984375 232.5625 263.738281 234.835938 263.234375 C 243.585938 261.308594 249.855469 256.765625 253.476562 249.707031 C 261.902344 233.257812 253.214844 208.289062 250.535156 201.433594 C 265.089844 199.8125 283.394531 205.035156 306 249.519531 C 287.042969 255.753906 282.945312 272.925781 282.207031 282.660156 C 281.121094 280.78125 280.164062 279.074219 279.382812 277.640625 C 279.339844 277.570312 279.28125 277.496094 279.238281 277.425781 C 281.050781 270.753906 280.6875 263.609375 278.066406 256.289062 C 275.15625 248.128906 270.535156 242.675781 270.332031 242.445312 C 269.550781 241.535156 268.1875 241.433594 267.277344 242.214844 C 266.363281 242.996094 266.261719 244.355469 267.03125 245.265625 C 267.726562 246.074219 283.871094 265.402344 271.257812 284.613281 C 258.890625 303.433594 262.890625 335.433594 269.695312 352.144531 C 277.195312 370.601562 299.90625 440.9375 301.308594 451.238281 C 300.382812 453.058594 298.5 457.558594 300.367188 460.769531 C 301.003906 461.855469 302.292969 463.113281 304.800781 463.476562 C 306.320312 467.222656 310.433594 479.300781 302.945312 484.0625 C 302.164062 484.265625 300.832031 484.8125 299.859375 486.203125 C 298.992188 487.445312 298.660156 489.023438 298.816406 490.90625 L 278.832031 490.90625 L 243.121094 402.921875 C 251.085938 391.925781 257.300781 382.898438 259.617188 378.515625 C 266.871094 364.785156 267.492188 363.109375 262.207031 357.957031 C 261.917969 357.683594 261.613281 357.378906 261.28125 357.046875 C 259.472656 355.238281 259.210938 354.097656 258.921875 352.765625 C 258.398438 350.4375 257.691406 348.484375 253.765625 346.386719 C 251.621094 345.242188 251.304688 344.257812 250.882812 342.914062 C 250.347656 341.207031 249.679688 339.660156 247.710938 338.445312 C 252.257812 333.089844 260.976562 321.375 256.082031 315.28125 C 255.34375 314.355469 254.257812 313.851562 252.996094 313.851562 C 252.996094 313.851562 252.984375 313.851562 252.984375 313.851562 C 245.523438 313.851562 226.03125 336.101562 216.691406 347.28125 C 216.226562 344.214844 215.589844 340.078125 214.953125 336.042969 C 213.96875 329.835938 211.390625 327.1875 209.40625 326.058594 C 207.351562 324.890625 204.902344 324.773438 202.527344 325.726562 C 198.953125 327.160156 199.199219 331.109375 199.429688 334.929688 C 199.5 336.113281 199.574219 337.34375 199.574219 338.617188 C 195.96875 338.023438 191.898438 337.792969 187.613281 337.53125 C 181.183594 337.15625 174.519531 336.75 169.410156 335.132812 C 169.03125 335.015625 168.496094 334.753906 168.03125 333.816406 C 165.773438 329.15625 169.074219 316.078125 171.941406 308.019531 C 183.875 307.109375 191.566406 302.742188 194.839844 295.058594 C 202.324219 277.453125 183.109375 248.5625 178.648438 242.964844 C 177.953125 235.558594 174.957031 230.351562 169.65625 227.558594 C 159.980469 222.453125 145.339844 226.851562 135.027344 232.476562 C 139.605469 214.234375 154.464844 210.617188 167.757812 209.390625 Z M 227.582031 490.90625 L 211.03125 445.753906 C 220.789062 433.054688 231.304688 419.152344 240.136719 407.058594 L 274.171875 490.90625 Z M 170.21875 490.90625 C 174.855469 489.039062 179.488281 485.609375 184.050781 480.054688 C 188.902344 474.152344 197.71875 462.984375 207.667969 450.09375 L 197.75 490.890625 L 170.21875 490.890625 Z M 132.699219 410.109375 L 159.835938 437.4375 C 160.285156 437.898438 160.90625 438.132812 161.558594 438.074219 C 162.195312 438.015625 162.789062 437.683594 163.152344 437.148438 L 207.613281 373.410156 C 208.277344 372.441406 208.0625 371.125 207.121094 370.414062 C 200.355469 365.4375 199.457031 354.632812 202.5 347.050781 C 204.28125 342.59375 204.019531 338.199219 203.804688 334.667969 C 203.671875 332.597656 203.511719 330.023438 204.179688 329.765625 C 205.339844 329.300781 206.378906 329.328125 207.292969 329.835938 C 208.929688 330.761719 210.144531 333.207031 210.695312 336.722656 C 211.925781 344.519531 213.160156 352.738281 213.160156 352.75 C 213.289062 353.605469 213.898438 354.296875 214.738281 354.515625 C 215.5625 354.734375 216.445312 354.457031 216.996094 353.792969 C 231.085938 336.492188 248.667969 318.292969 252.867188 318.191406 C 255.039062 321.605469 248.058594 331.816406 242.542969 337.792969 C 242.035156 338.34375 241.847656 339.125 242.050781 339.847656 C 242.253906 340.570312 242.800781 341.132812 243.527344 341.351562 C 246.105469 342.105469 246.320312 342.785156 246.785156 344.246094 C 246.828125 344.390625 246.886719 344.535156 246.929688 344.679688 C 246.046875 345.300781 236.835938 351.941406 231.96875 358.40625 C 231.246094 359.363281 231.449219 360.722656 232.40625 361.445312 C 232.796875 361.734375 233.257812 361.878906 233.707031 361.878906 C 234.375 361.878906 235.027344 361.574219 235.445312 361.011719 C 239.558594 355.527344 247.539062 349.597656 249.1875 348.398438 C 249.839844 349.019531 250.652344 349.640625 251.753906 350.234375 C 254.230469 351.550781 254.375 352.230469 254.707031 353.71875 C 254.777344 354.039062 254.851562 354.371094 254.953125 354.734375 C 253.488281 355.457031 249.492188 357.8125 245.292969 363.398438 C 244.570312 364.351562 244.773438 365.710938 245.726562 366.4375 C 246.117188 366.726562 246.582031 366.871094 247.03125 366.871094 C 247.699219 366.871094 248.347656 366.566406 248.769531 366.003906 C 252.519531 360.996094 255.996094 359.058594 256.90625 358.609375 C 257.285156 359.101562 257.703125 359.59375 258.238281 360.128906 C 258.574219 360.476562 258.90625 360.78125 259.195312 361.070312 C 262.324219 364.121094 262.324219 364.121094 255.792969 376.488281 C 248.03125 391.1875 195.636719 459.136719 180.691406 477.292969 C 166.699219 494.273438 152.667969 489.589844 135.898438 477.335938 C 128.136719 471.664062 113.710938 457.5 99.691406 440.75 C 99.707031 440.664062 99.722656 440.574219 99.722656 440.476562 C 99.722656 440.316406 100.242188 424.042969 110.480469 415.304688 C 115.925781 410.644531 123.269531 408.894531 132.261719 410.09375 C 132.421875 410.125 132.566406 410.125 132.699219 410.109375 Z M 210.492188 456.910156 L 222.949219 490.90625 L 202.222656 490.90625 Z M 175.941406 355.152344 C 174.085938 358.898438 170.015625 361.417969 163.847656 362.632812 C 146.367188 366.046875 129.671875 347.6875 124.023438 340.65625 C 124.226562 340.628906 124.441406 340.613281 124.632812 340.585938 C 141.097656 338.300781 142.109375 304.953125 142.152344 303.535156 C 142.183594 302.625 141.617188 301.785156 140.761719 301.46875 C 140.632812 301.410156 127.644531 296.113281 128.945312 288.652344 C 129.351562 286.292969 130.480469 285.527344 133.390625 285.527344 C 134.363281 285.527344 135.535156 285.613281 136.941406 285.757812 C 140.402344 286.105469 143.980469 286.480469 145.875 283.773438 C 146.441406 282.964844 146.398438 281.894531 145.761719 281.140625 C 142.398438 277.136719 134.015625 265.316406 135.507812 258.75 C 136.261719 255.421875 137.996094 255.101562 143.371094 254.582031 C 147.6875 254.164062 153.042969 253.640625 159.125 250.300781 C 162.558594 248.417969 165.0625 246.800781 167.089844 245.496094 C 172.261719 242.171875 172.261719 242.171875 174.96875 245.28125 C 179.9375 251.007812 197.171875 278.625 190.898438 293.367188 C 188.207031 299.703125 181.285156 303.21875 170.320312 303.796875 C 169.464844 303.839844 168.714844 304.390625 168.410156 305.199219 C 167.554688 307.457031 160.199219 327.523438 164.179688 335.722656 C 165.050781 337.503906 166.410156 338.734375 168.148438 339.28125 C 170.320312 339.976562 172.695312 340.453125 175.171875 340.816406 C 175.679688 341.957031 178.820312 349.308594 175.941406 355.152344 Z M 89.757812 276.5 C 86.296875 273.042969 85.210938 267.585938 86.527344 260.28125 C 87.542969 254.65625 90.0625 250.707031 94.03125 248.550781 C 101.503906 244.484375 112.335938 247.421875 116.664062 248.867188 C 111.421875 256.59375 107.644531 267.066406 108.441406 281.027344 C 104.414062 281.433594 94.988281 281.707031 89.757812 276.5 Z M 112.902344 282.734375 C 110.554688 255.957031 126.179688 242.648438 135.710938 237.09375 C 145.816406 231.203125 159.617188 227.152344 167.65625 231.394531 C 170.453125 232.867188 172.378906 235.355469 173.464844 238.769531 C 170.769531 237.945312 168.335938 239.507812 164.714844 241.824219 C 162.761719 243.082031 160.3125 244.660156 157.027344 246.464844 C 151.726562 249.375 146.847656 249.851562 142.9375 250.226562 C 137.695312 250.734375 132.742188 251.226562 131.25 257.765625 C 129.4375 265.691406 136.941406 276.800781 140.605469 281.632812 C 139.574219 281.664062 138.289062 281.519531 137.347656 281.417969 C 133.089844 280.984375 125.964844 280.261719 124.632812 287.882812 C 123.023438 297.128906 133.726562 303.015625 137.722656 304.867188 C 137.621094 306.746094 137.417969 309.046875 137.085938 311.550781 C 131.929688 309.511719 114.535156 301.265625 112.902344 282.734375 Z M 124.585938 309.714844 C 129.683594 313.34375 134.480469 315.269531 136.40625 315.964844 C 134.652344 325.234375 131.003906 335.332031 124.023438 336.300781 C 122.648438 336.492188 121.082031 336.648438 119.359375 336.808594 Z M 114.738281 341.511719 C 116.21875 341.394531 117.605469 341.292969 118.925781 341.179688 C 120.417969 343.1875 125.238281 349.421875 132.191406 355.355469 C 141.488281 363.28125 150.84375 367.375 159.546875 367.375 C 161.300781 367.375 163.007812 367.21875 164.703125 366.882812 C 172.289062 365.394531 177.386719 362.082031 179.863281 357.046875 C 182.6875 351.289062 181.269531 344.882812 180.066406 341.367188 C 182.5 341.582031 184.976562 341.726562 187.410156 341.871094 C 191.710938 342.132812 195.78125 342.363281 199.242188 342.957031 C 199.066406 343.796875 198.820312 344.621094 198.503906 345.445312 C 195.144531 353.835938 195.722656 365.757812 202.949219 372.554688 L 161.109375 432.53125 L 112.308594 383.390625 C 111.46875 382.539062 110.089844 382.539062 109.238281 383.375 C 108.382812 384.214844 108.382812 385.589844 109.222656 386.441406 L 128.078125 405.4375 C 119.925781 405.21875 113.058594 407.40625 107.660156 412.035156 C 99.375 419.121094 96.679688 430 95.828125 436.019531 C 79.113281 415.316406 63.9375 391.652344 62.691406 375.289062 C 60.433594 345.648438 93.105469 343.160156 114.738281 341.511719 Z M 71.640625 409.574219 C 89.746094 439.679688 121.183594 471.96875 133.335938 480.851562 C 139.011719 485.003906 145.035156 488.792969 151.25 490.917969 L 55.667969 490.917969 Z M 572.277344 482.730469 C 572.496094 482.976562 576.375 487.257812 581.125 490.90625 L 452.355469 490.90625 C 454.84375 486.246094 461.175781 472.429688 459.652344 455.257812 C 463.101562 461.277344 469.585938 465.355469 477.015625 465.355469 L 479.480469 465.355469 C 486.90625 472.011719 506.761719 475.25 523.648438 475.496094 C 542.460938 475.773438 551.875 476.929688 565.660156 480.632812 C 567.441406 481.109375 569.585938 481.660156 572.003906 482.238281 C 572.074219 482.414062 572.148438 482.585938 572.277344 482.730469 Z M 633.507812 471.375 C 631.988281 475.671875 629.105469 478.710938 624.964844 480.371094 C 608.773438 486.898438 576.332031 479.011719 566.789062 476.453125 C 552.597656 472.632812 542.9375 471.445312 523.722656 471.171875 C 508.878906 470.957031 495.0625 468.539062 487.210938 465.054688 C 490.007812 465.398438 493.019531 465.660156 495.757812 465.660156 C 498.058594 465.660156 500.171875 465.472656 501.78125 465.007812 C 502.925781 464.675781 503.589844 463.460938 503.257812 462.320312 C 502.925781 461.160156 501.722656 460.511719 500.566406 460.84375 C 495.597656 462.289062 482.605469 460.121094 478.015625 459.152344 C 478.015625 459.152344 478 459.152344 478 459.152344 C 476.003906 457.675781 473.832031 455.707031 472.847656 453.683594 C 478.667969 454.941406 491.050781 457.429688 498.695312 457.429688 C 499 457.429688 499.304688 457.429688 499.59375 457.414062 C 500.796875 457.386719 501.738281 456.386719 501.707031 455.1875 C 501.679688 453.988281 500.695312 453.015625 499.476562 453.074219 C 491.238281 453.292969 474.875 449.703125 471.355469 448.910156 C 470.023438 447.304688 468.9375 445.351562 469.050781 444.785156 C 469.050781 444.785156 469.109375 444.726562 469.285156 444.671875 C 470.804688 444.089844 473.644531 445.0625 477.234375 446.277344 C 481.214844 447.621094 486.183594 449.3125 492.441406 450.007812 C 502.085938 451.078125 511.019531 449.792969 514.667969 446.796875 C 516.058594 445.652344 516.449219 444.453125 516.523438 443.65625 C 516.726562 441.386719 514.46875 439.273438 511.339844 436.351562 C 509.730469 434.863281 506.835938 432.140625 506.402344 430.914062 C 509.457031 429.292969 522.96875 435.382812 528.644531 441.878906 C 534.667969 448.765625 574.855469 445.4375 587.035156 444.25 C 588.222656 444.132812 589.105469 443.078125 588.992188 441.878906 C 588.875 440.675781 587.804688 439.808594 586.617188 439.925781 C 580.9375 440.476562 575.59375 440.894531 570.640625 441.183594 C 571.078125 439.792969 571.597656 438.535156 571.988281 437.683594 L 575.03125 437.683594 C 576.230469 437.683594 577.203125 436.714844 577.203125 435.511719 C 577.203125 430.882812 574.074219 426.976562 569.816406 425.777344 C 574.652344 422.347656 577.898438 416.835938 578.246094 410.558594 C 580.878906 408.546875 590.828125 401.75 601.414062 404.308594 C 601.460938 404.324219 601.515625 404.324219 601.5625 404.324219 C 615.941406 423.765625 628.859375 443.644531 631.320312 448.070312 C 633.871094 452.714844 636.359375 463.316406 633.507812 471.375 Z M 655.78125 413.566406 C 653.578125 421.988281 648.570312 428.671875 642.039062 431.910156 C 637.214844 434.3125 632.015625 434.574219 627.425781 432.675781 C 627.148438 432.5625 626.859375 432.503906 626.570312 432.519531 C 614.78125 414.695312 593.769531 384.851562 578.171875 369.269531 C 572.351562 363.457031 566.109375 359.476562 559.867188 356.714844 C 559.851562 356.699219 559.851562 356.671875 559.839844 356.65625 C 554.625 350.839844 550.09375 325.960938 548.585938 315.644531 C 550.902344 313.242188 552.539062 310.8125 553.65625 308.730469 C 560.910156 295.289062 558.363281 276.832031 547.3125 262.800781 C 547.023438 262.421875 546.71875 262.0625 546.414062 261.699219 C 549.308594 259.371094 560.707031 251.585938 574.796875 260.109375 C 581.488281 264.144531 583.328125 274.820312 585.457031 287.1875 C 588.367188 304.144531 592.003906 325.25 611.132812 335.421875 C 621.996094 341.207031 631.320312 344.792969 638.808594 347.671875 C 653.128906 353.199219 660.3125 355.960938 661.039062 366.550781 C 662.125 382.566406 648.800781 386.355469 648.234375 386.515625 C 647.394531 386.730469 646.773438 387.441406 646.644531 388.292969 C 646.511719 389.148438 646.917969 390 647.65625 390.464844 C 648.191406 390.769531 659.835938 398.132812 655.78125 413.566406 Z M 655.78125 413.566406 " fill-opacity="1" fill-rule="nonzero"/></g><path fill="#000000" d="M 163.253906 272.519531 C 162.285156 270.625 160.457031 269.613281 159.171875 270.277344 C 157.882812 270.929688 157.636719 272.996094 158.605469 274.894531 C 159.574219 276.789062 161.398438 277.800781 162.6875 277.136719 C 163.976562 276.46875 164.222656 274.414062 163.253906 272.519531 Z M 163.253906 272.519531 " fill-opacity="1" fill-rule="nonzero"/><path fill="#000000" d="M 176.359375 261.308594 C 175.070312 261.960938 174.824219 264.027344 175.796875 265.925781 C 176.765625 267.820312 178.589844 268.832031 179.878906 268.167969 C 181.167969 267.515625 181.414062 265.445312 180.445312 263.550781 C 179.460938 261.65625 177.632812 260.65625 176.359375 261.308594 Z M 176.359375 261.308594 " fill-opacity="1" fill-rule="nonzero"/><path fill="#000000" d="M 171.4375 278.335938 C 172.132812 278.480469 172.871094 278.554688 173.636719 278.507812 C 174.40625 278.421875 175.214844 278.265625 176.027344 277.828125 C 176.808594 277.410156 177.621094 276.730469 178.054688 275.820312 C 178.488281 274.878906 178.574219 273.96875 178.183594 272.925781 C 178.113281 272.722656 177.894531 272.605469 177.679688 272.664062 L 175.5625 273.242188 C 175.402344 273.289062 175.273438 273.53125 175.171875 273.632812 C 175.054688 273.765625 174.957031 273.878906 174.855469 273.96875 C 174.664062 274.140625 174.492188 274.328125 174.1875 274.503906 C 173.914062 274.703125 173.476562 274.851562 173.027344 275.007812 C 172.550781 275.152344 172.03125 275.285156 171.480469 275.457031 L 171.335938 275.5 C 170.84375 275.644531 170.4375 276.050781 170.320312 276.601562 C 170.132812 277.382812 170.640625 278.164062 171.4375 278.335938 Z M 171.4375 278.335938 " fill-opacity="1" fill-rule="nonzero"/><path fill="#000000" d="M 175.695312 289.085938 C 175.128906 289.257812 174.507812 289.242188 173.898438 289.359375 C 173.273438 289.433594 172.652344 289.386719 172 289.460938 L 171.785156 289.488281 C 171.277344 289.546875 170.828125 289.910156 170.699219 290.429688 C 170.523438 291.109375 170.929688 291.804688 171.609375 291.976562 C 172.335938 292.164062 173.074219 292.339844 173.824219 292.457031 C 174.59375 292.5 175.359375 292.628906 176.144531 292.511719 C 177.722656 292.46875 179.300781 291.964844 180.746094 291.238281 C 182.195312 290.503906 183.457031 289.433594 184.441406 288.171875 C 185.441406 286.898438 186.105469 285.570312 186.527344 283.90625 C 186.671875 283.3125 186.425781 282.660156 185.875 282.3125 C 185.195312 281.894531 184.296875 282.097656 183.875 282.792969 L 183.746094 282.996094 C 183.179688 283.90625 182.398438 284.960938 181.617188 285.785156 C 180.820312 286.640625 179.921875 287.363281 178.9375 287.914062 C 177.9375 288.417969 176.882812 288.882812 175.695312 289.085938 Z M 175.695312 289.085938 " fill-opacity="1" fill-rule="nonzero"/><path fill="#000000" d="M 170.929688 261.035156 L 171.074219 260.890625 C 171.683594 260.253906 172.101562 259.660156 172.59375 259.167969 C 173.042969 258.648438 173.535156 258.257812 174.042969 257.851562 C 174.5625 257.460938 175.15625 257.128906 175.851562 256.824219 C 176.519531 256.535156 177.332031 256.289062 178.070312 256.027344 L 178.273438 255.957031 C 178.503906 255.871094 178.691406 255.710938 178.808594 255.464844 C 179.011719 255 178.808594 254.453125 178.34375 254.25 C 177.300781 253.773438 176.289062 253.640625 175.203125 253.699219 C 174.128906 253.757812 173.015625 254.089844 172.03125 254.667969 C 171.03125 255.234375 170.175781 256.074219 169.613281 257.042969 C 169.03125 258.011719 168.757812 259.082031 168.757812 260.136719 C 168.757812 260.46875 168.886719 260.804688 169.132812 261.046875 C 169.640625 261.539062 170.4375 261.539062 170.929688 261.035156 Z M 170.929688 261.035156 " fill-opacity="1" fill-rule="nonzero"/><path fill="#000000" d="M 160.257812 265.113281 C 160.488281 265.027344 160.675781 264.867188 160.792969 264.621094 C 160.996094 264.160156 160.792969 263.609375 160.328125 263.40625 C 159.285156 262.929688 158.273438 262.800781 157.1875 262.855469 C 156.113281 262.914062 155 263.246094 154.015625 263.828125 C 153.015625 264.390625 152.160156 265.230469 151.597656 266.199219 C 151.015625 267.167969 150.742188 268.238281 150.742188 269.292969 C 150.742188 269.628906 150.871094 269.960938 151.132812 270.207031 C 151.640625 270.699219 152.4375 270.683594 152.914062 270.175781 L 153.058594 270.03125 C 153.667969 269.394531 154.085938 268.800781 154.578125 268.3125 C 155.027344 267.789062 155.519531 267.398438 156.027344 266.996094 C 156.550781 266.605469 157.144531 266.269531 157.835938 265.96875 C 158.503906 265.679688 159.316406 265.433594 160.054688 265.171875 Z M 160.257812 265.113281 " fill-opacity="1" fill-rule="nonzero"/><path fill="#000000" d="M 489.3125 284.511719 C 490.339844 282.503906 490.078125 280.304688 488.703125 279.609375 C 487.34375 278.914062 485.402344 279.984375 484.359375 281.996094 C 483.316406 284.007812 483.59375 286.207031 484.96875 286.898438 C 486.34375 287.59375 488.285156 286.523438 489.3125 284.511719 Z M 489.3125 284.511719 " fill-opacity="1" fill-rule="nonzero"/><path fill="#000000" d="M 487.558594 274.125 L 487.777344 274.199219 C 488.574219 274.472656 489.429688 274.734375 490.136719 275.039062 C 490.863281 275.355469 491.5 275.703125 492.050781 276.121094 C 492.597656 276.558594 493.121094 276.960938 493.585938 277.527344 C 494.105469 278.03125 494.554688 278.683594 495.207031 279.347656 L 495.351562 279.507812 C 495.597656 279.753906 495.929688 279.914062 496.308594 279.914062 C 497.046875 279.914062 497.652344 279.320312 497.652344 278.566406 C 497.652344 277.453125 497.363281 276.3125 496.742188 275.285156 C 496.148438 274.257812 495.234375 273.359375 494.179688 272.753906 C 493.136719 272.128906 491.949219 271.78125 490.804688 271.726562 C 489.644531 271.667969 488.574219 271.8125 487.457031 272.304688 C 487.226562 272.40625 487.023438 272.605469 486.9375 272.867188 C 486.777344 273.386719 487.054688 273.9375 487.558594 274.125 Z M 487.558594 274.125 " fill-opacity="1" fill-rule="nonzero"/><path fill="#000000" d="M 238.53125 144.679688 C 237.125 144.464844 235.734375 145.984375 235.417969 148.050781 C 235.097656 150.121094 235.980469 151.988281 237.386719 152.191406 C 238.792969 152.40625 240.179688 150.886719 240.5 148.820312 C 240.820312 146.75 239.933594 144.898438 238.53125 144.679688 Z M 238.53125 144.679688 " fill-opacity="1" fill-rule="nonzero"/><path fill="#000000" d="M 226.453125 156.890625 C 227.117188 157.265625 227.855469 157.601562 228.753906 157.714844 C 229.625 157.832031 230.667969 157.746094 231.535156 157.265625 C 232.417969 156.761719 233.011719 156.09375 233.300781 155.039062 C 233.359375 154.835938 233.246094 154.621094 233.042969 154.546875 L 231.015625 153.796875 C 230.855469 153.738281 230.625 153.851562 230.480469 153.882812 C 230.304688 153.910156 230.160156 153.953125 230.03125 153.953125 C 229.769531 153.984375 229.539062 154.042969 229.191406 153.996094 C 228.855469 153.996094 228.421875 153.867188 227.972656 153.738281 C 227.511719 153.59375 227.015625 153.390625 226.46875 153.203125 L 226.335938 153.160156 C 225.859375 152.984375 225.292969 153.085938 224.886719 153.449219 C 224.292969 153.984375 224.25 154.894531 224.789062 155.488281 C 225.265625 156.007812 225.816406 156.484375 226.453125 156.890625 Z M 226.453125 156.890625 " fill-opacity="1" fill-rule="nonzero"/><path fill="#000000" d="M 218.589844 168.132812 C 219.183594 168.59375 219.71875 169.144531 220.414062 169.503906 C 221.703125 170.375 223.265625 170.878906 224.832031 171.125 C 226.410156 171.371094 228.046875 171.226562 229.539062 170.792969 C 231.074219 170.34375 232.375 169.664062 233.664062 168.578125 C 234.128906 168.1875 234.300781 167.523438 234.054688 166.929688 C 233.75 166.207031 232.910156 165.859375 232.1875 166.164062 L 231.96875 166.25 C 231 166.65625 229.769531 167.0625 228.667969 167.277344 C 227.539062 167.496094 226.410156 167.566406 225.292969 167.4375 C 224.195312 167.292969 223.078125 167.046875 222.019531 166.539062 C 221.472656 166.351562 220.976562 165.992188 220.429688 165.730469 C 219.890625 165.425781 219.414062 165.035156 218.851562 164.71875 L 218.660156 164.617188 C 218.226562 164.371094 217.664062 164.398438 217.242188 164.746094 C 216.707031 165.179688 216.632812 165.976562 217.082031 166.511719 C 217.5625 167.046875 218.054688 167.609375 218.589844 168.132812 Z M 218.589844 168.132812 " fill-opacity="1" fill-rule="nonzero"/><path fill="#000000" d="M 234.34375 141.355469 L 234.535156 141.324219 C 235.386719 141.167969 236.070312 140.921875 236.734375 140.820312 C 237.386719 140.644531 238.007812 140.617188 238.644531 140.585938 C 239.285156 140.574219 239.964844 140.660156 240.671875 140.804688 C 241.382812 140.949219 242.164062 141.222656 242.902344 141.441406 L 243.105469 141.5 C 243.339844 141.570312 243.585938 141.542969 243.816406 141.414062 C 244.25 141.167969 244.394531 140.601562 244.148438 140.183594 C 243.585938 139.214844 242.859375 138.519531 241.949219 137.941406 C 241.050781 137.363281 239.980469 137 238.847656 136.898438 C 237.734375 136.78125 236.546875 136.957031 235.546875 137.417969 C 234.519531 137.851562 233.695312 138.5625 233.085938 139.402344 C 232.898438 139.660156 232.808594 140.007812 232.867188 140.339844 C 233.011719 141.023438 233.664062 141.46875 234.34375 141.355469 Z M 234.34375 141.355469 " fill-opacity="1" fill-rule="nonzero"/><path fill="#000000" d="M 321.597656 148.441406 C 322.25 149.410156 325.074219 154.386719 325.652344 156.125 C 325.625 156.183594 325.636719 156.253906 325.625 156.328125 C 324.582031 157.527344 323.726562 159.191406 323.886719 160.984375 C 323.972656 161.941406 324.351562 162.824219 324.988281 163.53125 C 324.550781 164.761719 324.421875 166.222656 325 167.507812 C 325.550781 168.722656 326.667969 169.535156 328.113281 169.796875 C 329.449219 170.027344 330.851562 170.199219 332.269531 170.332031 C 332.269531 170.34375 332.257812 170.359375 332.257812 170.375 C 332.257812 173.601562 334.878906 176.21875 338.105469 176.21875 L 340.582031 176.21875 C 343.8125 176.21875 346.433594 173.601562 346.433594 170.375 L 346.433594 170.097656 C 346.433594 170.039062 346.40625 169.984375 346.40625 169.925781 C 346.78125 169.867188 347.160156 169.808594 347.535156 169.75 C 347.78125 169.707031 353.675781 168.578125 354.660156 165.195312 C 354.890625 164.382812 354.933594 163.226562 354.007812 161.96875 C 354.339844 160.855469 354.660156 159.074219 354.039062 157.5 C 353.792969 156.875 353.414062 156.355469 352.953125 155.90625 C 353.152344 151.957031 355.355469 148.617188 357.714844 145.101562 C 360.046875 141.601562 362.464844 137.984375 363.046875 133.511719 C 363.566406 129.433594 363.21875 125.050781 362.03125 120.828125 C 359.25 110.976562 352.082031 104.132812 343.292969 102.960938 C 335.398438 101.917969 327.171875 104.363281 321.324219 109.5 C 315.890625 114.273438 312.910156 120.871094 312.921875 128.089844 C 312.953125 135.351562 317.226562 142.121094 321.597656 148.441406 Z M 335.542969 134.988281 C 336.660156 134.613281 337.816406 134.078125 339.003906 133.339844 C 340.191406 134.0625 341.351562 134.613281 342.464844 134.988281 C 341.019531 141.265625 341.917969 152.101562 342.175781 154.835938 C 340.089844 154.851562 337.890625 154.878906 335.820312 154.894531 C 336.078125 152.246094 337.007812 141.296875 335.542969 134.988281 Z M 350.300781 158.238281 C 350.632812 158.394531 350.75 158.582031 350.824219 158.757812 C 351.097656 159.453125 350.835938 160.578125 350.605469 161.273438 L 327.652344 161.273438 C 327.433594 161.058594 327.375 160.839844 327.363281 160.667969 C 327.304688 160.03125 327.753906 159.148438 328.417969 158.4375 C 332.472656 158.394531 346.578125 158.265625 350.300781 158.238281 Z M 342.988281 170.375 C 342.988281 171.691406 341.917969 172.746094 340.613281 172.746094 L 338.136719 172.746094 C 336.875 172.746094 335.863281 171.761719 335.777344 170.53125 C 336.441406 170.546875 337.109375 170.578125 337.789062 170.578125 C 339.542969 170.578125 341.292969 170.503906 342.988281 170.34375 Z M 346.914062 166.335938 C 341.46875 167.351562 334.328125 167.351562 328.722656 166.367188 C 328.261719 166.28125 328.1875 166.121094 328.160156 166.0625 C 328.042969 165.800781 328.070312 165.296875 328.246094 164.746094 L 350.867188 164.746094 C 350.140625 165.308594 348.59375 166.035156 346.914062 166.335938 Z M 323.625 112.117188 C 327.957031 108.3125 333.777344 106.199219 339.671875 106.199219 C 340.730469 106.199219 341.800781 106.273438 342.859375 106.402344 C 350.34375 107.402344 356.269531 113.144531 358.699219 121.765625 C 359.757812 125.542969 360.078125 129.449219 359.613281 133.066406 C 359.148438 136.726562 357.050781 139.851562 354.847656 143.164062 C 352.503906 146.679688 350.070312 150.308594 349.5625 154.765625 C 348.59375 154.777344 347.230469 154.792969 345.679688 154.808594 C 345.117188 149.210938 344.785156 140.152344 345.855469 135.667969 C 349.488281 135.929688 352.386719 134.511719 353.894531 132.933594 C 355.660156 131.070312 355.933594 128.753906 354.574219 127.046875 C 353.242188 125.355469 351.820312 125.066406 350.867188 125.121094 C 348.300781 125.269531 346.160156 127.871094 343.742188 131.75 C 342.566406 131.371094 341.308594 130.765625 340.003906 129.851562 C 339.832031 129.738281 339.640625 129.664062 339.441406 129.609375 C 339.410156 129.59375 339.382812 129.578125 339.351562 129.578125 C 339.238281 129.5625 339.136719 129.578125 339.019531 129.578125 C 338.902344 129.578125 338.789062 129.5625 338.671875 129.578125 C 338.644531 129.578125 338.628906 129.59375 338.601562 129.609375 C 338.398438 129.652344 338.207031 129.738281 338.035156 129.851562 C 336.730469 130.765625 335.472656 131.371094 334.296875 131.75 C 331.878906 127.871094 329.738281 125.269531 327.171875 125.121094 C 326.203125 125.066406 324.796875 125.355469 323.464844 127.046875 C 322.121094 128.769531 322.378906 131.070312 324.148438 132.933594 C 325.652344 134.527344 328.550781 135.929688 332.183594 135.667969 C 333.257812 140.183594 332.921875 149.339844 332.359375 154.921875 C 330.984375 154.9375 329.765625 154.953125 328.898438 154.953125 C 327.867188 151.566406 324.539062 146.519531 324.496094 146.460938 C 320.425781 140.585938 316.457031 134.339844 316.429688 128.074219 C 316.398438 121.882812 318.949219 116.210938 323.625 112.117188 Z M 347.59375 132.167969 C 349.636719 129.128906 350.632812 128.59375 351.054688 128.582031 C 351.054688 128.582031 351.070312 128.582031 351.070312 128.582031 C 351.34375 128.582031 351.71875 129.042969 351.835938 129.1875 C 352.199219 129.636719 351.445312 130.460938 351.359375 130.546875 C 350.632812 131.316406 349.316406 131.996094 347.59375 132.167969 Z M 330.433594 132.167969 C 328.707031 131.996094 327.390625 131.316406 326.652344 130.546875 C 326.566406 130.460938 325.8125 129.636719 326.175781 129.1875 C 326.289062 129.042969 326.667969 128.582031 326.941406 128.582031 C 326.941406 128.582031 326.957031 128.582031 326.957031 128.582031 C 327.390625 128.609375 328.390625 129.144531 330.433594 132.167969 Z M 330.433594 132.167969 " fill-opacity="1" fill-rule="nonzero"/><path fill="#000000" d="M 299.628906 135.855469 C 298.6875 135.699219 297.789062 136.335938 297.628906 137.289062 C 297.472656 138.230469 298.109375 139.125 299.066406 139.285156 L 307.175781 140.632812 C 307.277344 140.644531 307.363281 140.660156 307.464844 140.660156 C 308.304688 140.660156 309.027344 140.050781 309.171875 139.214844 C 309.332031 138.273438 308.695312 137.375 307.738281 137.21875 Z M 299.628906 135.855469 " fill-opacity="1" fill-rule="nonzero"/><path fill="#000000" d="M 313.75 101.570312 C 314.066406 101.804688 314.429688 101.917969 314.792969 101.917969 C 315.3125 101.917969 315.835938 101.6875 316.183594 101.226562 C 316.761719 100.457031 316.617188 99.371094 315.847656 98.792969 L 309.289062 93.832031 C 308.519531 93.253906 307.433594 93.398438 306.855469 94.164062 C 306.277344 94.933594 306.421875 96.015625 307.1875 96.59375 Z M 313.75 101.570312 " fill-opacity="1" fill-rule="nonzero"/><path fill="#000000" d="M 369.851562 136.304688 C 368.910156 136.464844 368.257812 137.363281 368.417969 138.300781 C 368.5625 139.15625 369.300781 139.75 370.125 139.75 C 370.226562 139.75 370.316406 139.734375 370.417969 139.71875 L 378.527344 138.375 C 379.46875 138.214844 380.121094 137.316406 379.960938 136.378906 C 379.800781 135.4375 378.917969 134.800781 377.960938 134.945312 Z M 369.851562 136.304688 " fill-opacity="1" fill-rule="nonzero"/><path fill="#000000" d="M 294.039062 114.492188 L 304.855469 118.539062 C 305.058594 118.613281 305.261719 118.65625 305.464844 118.65625 C 306.175781 118.65625 306.828125 118.222656 307.085938 117.527344 C 307.421875 116.632812 306.972656 115.632812 306.074219 115.300781 L 295.253906 111.25 C 294.359375 110.917969 293.359375 111.367188 293.027344 112.261719 C 292.691406 113.144531 293.140625 114.144531 294.039062 114.492188 Z M 294.039062 114.492188 " fill-opacity="1" fill-rule="nonzero"/><path fill="#000000" d="M 361.351562 101.382812 C 361.710938 101.382812 362.089844 101.269531 362.394531 101.035156 L 368.953125 96.074219 C 369.722656 95.496094 369.867188 94.410156 369.285156 93.644531 C 368.707031 92.878906 367.621094 92.734375 366.855469 93.3125 L 360.292969 98.273438 C 359.527344 98.851562 359.382812 99.9375 359.960938 100.703125 C 360.308594 101.136719 360.828125 101.382812 361.351562 101.382812 Z M 361.351562 101.382812 " fill-opacity="1" fill-rule="nonzero"/><path fill="#000000" d="M 369.039062 116.976562 C 369.300781 117.671875 369.96875 118.105469 370.664062 118.105469 C 370.867188 118.105469 371.066406 118.078125 371.269531 117.992188 L 382.089844 113.941406 C 382.988281 113.609375 383.433594 112.609375 383.101562 111.710938 C 382.769531 110.816406 381.769531 110.367188 380.859375 110.699219 L 370.039062 114.75 C 369.15625 115.082031 368.707031 116.082031 369.039062 116.976562 Z M 369.039062 116.976562 " fill-opacity="1" fill-rule="nonzero"/><g clip-path="url(#4317e97a50)"><path fill="#000000" d="M 339.84375 96.59375 C 340.800781 96.59375 341.582031 95.8125 341.582031 94.859375 L 341.582031 82.246094 C 341.582031 81.289062 340.800781 80.507812 339.84375 80.507812 C 338.890625 80.507812 338.109375 81.289062 338.109375 82.246094 L 338.109375 94.859375 C 338.109375 95.8125 338.890625 96.59375 339.84375 96.59375 Z M 339.84375 96.59375 " fill-opacity="1" fill-rule="nonzero"/></g></svg>